<?xml version="1.0" standalone="no"?>
<!DOCTYPE svg PUBLIC "-//W3C//DTD SVG 20010904//EN"
 "http://www.w3.org/TR/2001/REC-SVG-20010904/DTD/svg10.dtd">
<svg version="1.0" xmlns="http://www.w3.org/2000/svg"
 width="500.000000pt" height="500.000000pt" viewBox="0 0 500.000000 500.000000"
 preserveAspectRatio="xMidYMid meet">
<metadata>
Created by potrace 1.11, written by Peter Selinger 2001-2013
</metadata>
<g transform="translate(0.000000,500.000000) scale(0.100000,-0.100000)"
fill="#000000" stroke="none">
<path d="M1055 4949 c-22 -4 -49 -10 -60 -13 -235 -57 -444 -243 -529 -468
-54 -143 -52 -76 -54 -1983 l-1 -1770 23 -87 c64 -242 229 -430 457 -521 157
-63 302 -73 479 -33 63 14 161 62 350 171 182 105 248 143 372 214 18 10 89
51 158 91 69 40 181 105 250 145 69 40 160 93 203 119 43 25 81 46 83 46 3 0
17 8 32 19 21 14 543 317 792 459 19 11 161 93 315 182 154 89 300 173 325
187 25 14 50 29 55 33 6 4 37 22 70 40 186 102 300 200 374 324 38 64 77 157
85 203 4 18 10 43 16 57 5 14 8 85 6 158 -3 104 -8 148 -26 203 -57 178 -164
322 -310 417 -63 40 -279 168 -286 168 -2 0 -23 11 -45 26 -40 25 -73 44 -159
92 -25 14 -57 33 -72 43 -14 11 -28 19 -31 19 -2 0 -94 52 -203 116 -110 64
-217 127 -239 139 -57 32 -147 84 -165 95 -55 34 -169 100 -173 100 -2 0 -46
25 -96 55 -51 30 -96 55 -101 55 -6 0 -10 5 -10 10 0 6 -4 10 -9 10 -5 0 -86
45 -181 100 -94 55 -175 100 -180 100 -6 0 -10 5 -10 10 0 6 -4 10 -9 10 -5 0
-117 62 -248 138 -837 486 -836 485 -968 515 -67 15 -219 18 -280 6z m235
-649 c30 -18 71 -42 90 -52 19 -10 51 -28 70 -39 67 -40 415 -242 460 -266 25
-14 65 -37 90 -52 25 -14 54 -32 65 -38 46 -26 601 -349 620 -360 11 -7 27
-15 35 -19 8 -4 74 -43 148 -86 73 -43 137 -78 142 -78 6 0 10 -4 10 -9 0 -5
6 -11 13 -13 10 -2 228 -125 317 -178 86 -52 223 -130 227 -130 3 0 17 -8 31
-19 15 -10 52 -32 82 -49 30 -16 123 -69 205 -117 83 -48 170 -99 195 -113
100 -56 122 -74 140 -114 21 -48 18 -98 -10 -143 -17 -28 -91 -73 -502 -310
-9 -5 -68 -39 -130 -75 -62 -36 -135 -78 -163 -93 -27 -16 -67 -39 -87 -53
-21 -13 -40 -24 -42 -24 -3 0 -65 -35 -138 -78 -73 -43 -153 -90 -178 -104
-88 -50 -117 -66 -240 -138 -69 -40 -138 -80 -155 -90 -16 -9 -105 -60 -197
-113 -93 -53 -178 -102 -190 -109 -13 -7 -31 -19 -40 -27 -10 -8 -18 -10 -18
-6 0 4 -8 1 -17 -7 -10 -8 -64 -42 -121 -74 -56 -33 -110 -64 -120 -69 -9 -6
-48 -28 -87 -50 -38 -22 -77 -44 -87 -50 -9 -5 -45 -26 -80 -46 -35 -20 -119
-69 -188 -109 -202 -118 -210 -122 -246 -127 -46 -6 -117 29 -144 72 -20 33
-20 35 -18 1768 l3 1736 21 28 c52 70 141 79 234 23z"/>
</g>
</svg>
