<?xml version="1.0" encoding="utf-8"?>
<!-- Generator: Adobe Illustrator 18.0.0, SVG Export Plug-In . SVG Version: 6.00 Build 0)  -->
<!DOCTYPE svg PUBLIC "-//W3C//DTD SVG 1.1//EN" "http://www.w3.org/Graphics/SVG/1.1/DTD/svg11.dtd">
<svg version="1.1" id="Layer_1" xmlns="http://www.w3.org/2000/svg" xmlns:xlink="http://www.w3.org/1999/xlink" x="0px" y="0px"
	 viewBox="0 0 187.4 155.2" enable-background="new 0 0 187.4 155.2" xml:space="preserve">
<g>
	<g>
		<g>
			<g>
				<rect x="33" y="13.6" fill="#2C366E" width="116.3" height="80.7"/>
			</g>
		</g>
		<g>
			<g>
				<g>
					
						<linearGradient id="SVGID_1_" gradientUnits="userSpaceOnUse" x1="119.5898" y1="373.8281" x2="115.0639" y2="370.532" gradientTransform="matrix(0.7637 0 0 -0.7637 -30.3908 332.9152)">
						<stop  offset="0" style="stop-color:#D79128"/>
						<stop  offset="1" style="stop-color:#FEEA35"/>
					</linearGradient>
					<path fill="url(#SVGID_1_)" d="M66.9,47.6l-6.8-4l-1.9-1.1c-0.7-0.4-1.6-0.4-2.3,0c-0.7,0.4-1.1,1.2-1.1,2v10.1
						c0,0.8,0.4,1.6,1.1,2c0.4,0.2,0.8,0.3,1.1,0.3c0.4,0,0.8-0.1,1.1-0.3l1.5-0.9l2.1-1.2l5.1-3c0.7-0.4,1.1-1.2,1.1-2
						C68,48.8,67.6,48,66.9,47.6z M66,50l-5.5,3.2l-0.7,0.4l-2.5,1.4c-0.2,0.1-0.4,0-0.5,0c-0.1,0-0.2-0.2-0.2-0.4V44.6
						c0-0.2,0.2-0.4,0.2-0.4c0,0,0.1-0.1,0.2-0.1c0.1,0,0.1,0,0.2,0.1l2.7,1.6l6,3.5c0.2,0.1,0.2,0.3,0.2,0.4
						C66.2,49.7,66.2,49.9,66,50z"/>
				</g>
				
					<linearGradient id="SVGID_2_" gradientUnits="userSpaceOnUse" x1="111.4164" y1="367.8715" x2="120.6316" y2="367.8715" gradientTransform="matrix(0.7637 0 0 -0.7637 -30.3908 332.9152)">
					<stop  offset="0" style="stop-color:#F2BE19"/>
					<stop  offset="1" style="stop-color:#C87F2A"/>
				</linearGradient>
				<path fill="url(#SVGID_2_)" d="M61.7,54.6l-3.6,2.1C57.8,56.9,57.4,57,57,57c-0.4,0-0.8-0.1-1.1-0.3c-0.7-0.4-1.1-1.2-1.1-2V47
					l1.8,2.4v5.4c0,0.2,0.2,0.4,0.2,0.4c0.1,0,0.3,0.1,0.5,0l3.2-1.9L61.7,54.6z"/>
				
					<linearGradient id="SVGID_3_" gradientUnits="userSpaceOnUse" x1="123.3952" y1="375.7129" x2="120.3251" y2="362.0531" gradientTransform="matrix(0.7637 0 0 -0.7637 -30.3908 332.9152)">
					<stop  offset="0" style="stop-color:#D78F28"/>
					<stop  offset="1" style="stop-color:#C96128"/>
				</linearGradient>
				<path fill="url(#SVGID_3_)" d="M68,49.6c0,0.8-0.4,1.6-1.1,2l-5.1,3l-2.1,1.2l0.6-2.5l0.2-0.1L66,50c0.2-0.1,0.2-0.3,0.2-0.4
					s0-0.3-0.2-0.4l-6-3.5l-0.6-2.5l7.5,4.3C67.6,48,68,48.8,68,49.6z"/>
			</g>
			<g>
				<path fill="#FFFFFF" d="M76.8,54.4h-6.1V44.2h6.1v2.2h-3.3v1.6h3.1v2.2h-3.1v1.9h3.3V54.4z"/>
				<path fill="#FFFFFF" d="M78.6,54.4V44.2h2.8v8h3.9v2.2H78.6z"/>
				<path fill="#FFFFFF" d="M90.6,48l1.8-3.8h3L92,50.5v4h-2.8v-3.9l-3.4-6.3h3L90.6,48z"/>
				<path fill="#FFFFFF" d="M103.1,51.3c0,0.6-0.2,1.2-0.5,1.7c-0.3,0.5-0.8,0.9-1.4,1.1c-0.6,0.3-1.3,0.4-2.1,0.4
					c-0.7,0-1.3,0-1.7-0.1c-0.5-0.1-0.9-0.3-1.4-0.5v-2.5c0.5,0.3,1.1,0.5,1.6,0.6c0.6,0.2,1.1,0.2,1.6,0.2c0.4,0,0.7-0.1,0.9-0.2
					c0.2-0.1,0.3-0.3,0.3-0.5c0-0.1,0-0.3-0.1-0.4c-0.1-0.1-0.2-0.2-0.4-0.3c-0.2-0.1-0.6-0.3-1.4-0.7c-0.7-0.3-1.2-0.6-1.5-0.9
					c-0.3-0.3-0.6-0.6-0.7-1s-0.2-0.8-0.2-1.3c0-0.9,0.3-1.7,1-2.2c0.7-0.5,1.6-0.8,2.8-0.8c1.1,0,2.1,0.2,3.2,0.7l-0.8,2.1
					c-1-0.4-1.8-0.7-2.5-0.7c-0.4,0-0.6,0.1-0.8,0.2c-0.2,0.1-0.2,0.3-0.2,0.5c0,0.2,0.1,0.4,0.3,0.5c0.2,0.2,0.8,0.4,1.7,0.9
					c0.9,0.4,1.5,0.8,1.8,1.3C103,50.1,103.1,50.7,103.1,51.3z"/>
				<path fill="#FFFFFF" d="M104.7,54.4V44.2h2.8v10.2H104.7z"/>
				<path fill="#FFFFFF" d="M118.4,44.2v6.1c0,1.3-0.4,2.4-1.1,3.1c-0.8,0.7-1.8,1.1-3.3,1.1c-1.4,0-2.5-0.4-3.2-1.1
					c-0.7-0.7-1.1-1.7-1.1-3.1v-6.2h2.8v6c0,0.7,0.1,1.2,0.4,1.6c0.3,0.3,0.7,0.5,1.2,0.5c0.6,0,1-0.2,1.2-0.5
					c0.3-0.3,0.4-0.9,0.4-1.6v-6H118.4z"/>
				<path fill="#FFFFFF" d="M125,54.4l-2.1-7.4h-0.1c0.1,1.3,0.1,2.2,0.1,2.9v4.4h-2.4V44.2h3.7l2.1,7.3h0.1l2.1-7.3h3.7v10.2h-2.5
					V50c0-0.2,0-0.5,0-0.8c0-0.3,0-1,0.1-2.1h-0.1l-2.1,7.3H125z"/>
			</g>
		</g>
		<g>
			<g>
				<g>
					<g>
						<path fill="#D32327" d="M126.7,23.5c-18,7.5-47.1,7.1-65.2,0c0-5.9,0-10.3,0-16.1c21.7,0,43.5,0,65.2,0
							C126.7,13.2,126.7,17.6,126.7,23.5z"/>
					</g>
				</g>
				<g>
					<g>
						<path fill="#EF3E23" d="M126.7,19.7c-18,6.5-47.2,6.5-65.2,0c0-4.6,0-7.8,0-12.4c21.7,0,43.5,0,65.2,0
							C126.7,12,126.7,15.1,126.7,19.7z"/>
					</g>
				</g>
				<g>
					<g>
						<path fill="#F15B2D" d="M126.7,16.8c-18,5.1-47.2,5.1-65.2,0c0-3.6,0-5.8,0-9.4c21.7,0,43.5,0,65.2,0
							C126.7,11,126.7,13.2,126.7,16.8z"/>
					</g>
				</g>
				<g>
					<g>
						<path fill="#F15B2D" d="M126.7,14c-18,4-47.2,4-65.2,0c0-2.9,0-4.2,0-7.1c21.7,0,43.5,0,65.2,0C126.7,9.7,126.7,11.1,126.7,14
							z"/>
					</g>
				</g>
				<g>
					<g>
						<g>
							<path fill="#CE2027" d="M31.5,86.6v6V12.8l22-5.6C53.6,7.2,56.2,69.6,31.5,86.6z"/>
						</g>
					</g>
					<g>
						<g>
							<path fill="#D32327" d="M31.5,86.6v6V12.8l16.8-5.6C48.3,7.2,50.3,69.6,31.5,86.6z"/>
						</g>
					</g>
					<g>
						<g>
							<path fill="#E53125" d="M31.5,86.6v6V12.8l12.7-5.6C44,7.2,45.4,69.7,31.5,86.6z"/>
						</g>
					</g>
					<g>
						<g>
							<path fill="#EF3E23" d="M31.5,86.6v6V12.8l9.7-5.6C41.2,7.2,42.4,69.6,31.5,86.6z"/>
						</g>
					</g>
					<g>
						<g>
							<path fill="#D32327" d="M61.5,23.5c-8.3,8.3-21.7,8.3-29.9,0c0-5.9,0-9.2,0-15.1c10,0,20-1.1,29.9-1.1
								C61.5,13.2,61.5,17.6,61.5,23.5z"/>
						</g>
					</g>
					<g>
						<g>
							<path fill="#EF3E23" d="M61.5,19.7c-8.3,6.5-21.7,6.5-29.9,0c0-4.6,0-5.6,0-10.3c10,0,20-2.1,29.9-2.1
								C61.5,12,61.5,15.1,61.5,19.7z"/>
						</g>
					</g>
					<g>
						<g>
							<path fill="#F15B2D" d="M61.5,16.8c-8.3,5.1-21.7,5.1-29.9,0c0-3.6,0-4.7,0-8.4c10,0,20-1.1,29.9-1.1
								C61.5,11,61.5,13.2,61.5,16.8z"/>
						</g>
					</g>
					<g>
						<g>
							<path fill="#F15B2D" d="M61.5,14.5c-8.3,4-21.7,4-29.9,0c0,0,0-4.5,0-6s0.7-1.6,1.9-1.6c9.4,0,18.7,0,28.1,0
								C61.5,6.9,61.5,14.5,61.5,14.5z"/>
						</g>
					</g>
					<g>
						<g>
							<path fill="#EF3E23" d="M42.4,97.5c-4.3,0-6.6,0-10.9,0c0.1-8.4-0.1-12.3,0-20.7c2.2,0,5.1,0,7.2,0
								C42.1,84.2,43.5,89.4,42.4,97.5z"/>
						</g>
					</g>
					<g>
						<g>
							<path fill="#EF3E23" d="M42.4,97.5c-4.3,0-6.6,0-10.9,0c0.1-8.4-0.1-12.3,0-20.7c2.2,0,5.1,0,7.2,0
								C42.1,84.2,43.5,89.4,42.4,97.5z"/>
						</g>
					</g>
					<g>
						<g>
							<path fill="#CE2027" d="M46.1,97.5c-5.7,0-8.8,0-14.5,0c0.1-8.4-0.1-12.3,0-20.7c2.9,0,6.2,0,9.1,0
								C45,84.2,47.6,89.4,46.1,97.5z"/>
						</g>
					</g>
					<g>
						<g>
							<path fill="#D32327" d="M41.9,97.5c-4,0-6.3,0-10.3,0c0.1-8.4-0.1-12.3,0-20.7c2,0,4.8,0,6.9,0
								C41.5,84.2,42.9,89.4,41.9,97.5z"/>
						</g>
					</g>
					<g>
						<g>
							<path fill="#E53125" d="M39.2,97.5c-3,0-4.7,0-7.7,0c0.1-8.4-0.1-12.3,0-20.7c1.5,0,3.6,0,5.1,0C39,84.2,40,89.4,39.2,97.5z"
								/>
						</g>
					</g>
					<g>
						<g>
							<path fill="#EF3E23" d="M37.4,97.5c-2.3,0-3.6,0-5.9,0c0-8.4,0-12.3,0-20.7c1.2,0,2.8,0,3.9,0C37.2,84.2,38,89.4,37.4,97.5z"
								/>
						</g>
					</g>
				</g>
				<g>
					<g>
						<g>
							<path fill="#CE2027" d="M155.6,86.6v6V12.8l-22-5.6C133.6,7.2,131,69.6,155.6,86.6z"/>
						</g>
					</g>
					<g>
						<g>
							<path fill="#D32327" d="M155.6,86.6v6V12.8l-16.8-5.6C138.9,7.2,136.9,69.6,155.6,86.6z"/>
						</g>
					</g>
					<g>
						<g>
							<path fill="#E53125" d="M155.6,86.6v6V12.8l-12.7-5.6C143.2,7.2,141.8,69.7,155.6,86.6z"/>
						</g>
					</g>
					<g>
						<g>
							<path fill="#EF3E23" d="M155.6,86.6v6V12.8l-9.7-5.6C145.9,7.2,144.8,69.6,155.6,86.6z"/>
						</g>
					</g>
					<g>
						<g>
							<path fill="#D32327" d="M125.7,23.5c8.3,8.3,21.7,8.3,29.9,0c0-5.9,0-8.3,0-14.2c-10,0-20-1.9-29.9-1.9
								C125.7,13.2,125.7,17.6,125.7,23.5z"/>
						</g>
					</g>
					<g>
						<g>
							<path fill="#EF3E23" d="M125.7,20.1c8.3,6.5,21.7,6.2,29.9-0.3c0-4.6,0-5.8,0-10.4c-10,0-20-1.9-29.9-1.9
								C125.7,12,125.7,15.5,125.7,20.1z"/>
						</g>
					</g>
					<g>
						<g>
							<path fill="#F15B2D" d="M125.7,17c8.3,5.1,21.7,4.9,29.9-0.2c0-3.6,0-4.2,0-7.9c-10,0-20-0.1-29.9-0.1
								C125.7,12.5,125.7,13.4,125.7,17z"/>
						</g>
					</g>
					<g>
						<g>
							<path fill="#F15B2D" d="M125.7,14c8.3,4,21.7,4,29.9,0c0,0,0-4.2,0-5.4s-0.4-1.7-1.4-1.7c-9.9,0-18.7,0-28.5,0
								C125.7,9.7,125.7,11.1,125.7,14z"/>
						</g>
					</g>
					<g>
						<g>
							<path fill="#EF3E23" d="M144.8,97.5c4.3,0,6.6,0,10.9,0c-0.1-8.4,0.1-12.3,0-20.7c-2.2,0-5.1,0-7.2,0
								C145.1,84.2,143.7,89.4,144.8,97.5z"/>
						</g>
					</g>
					<g>
						<g>
							<path fill="#EF3E23" d="M144.8,97.5c4.3,0,6.6,0,10.9,0c-0.1-8.4,0.1-12.3,0-20.7c-2.2,0-5.1,0-7.2,0
								C145.1,84.2,143.7,89.4,144.8,97.5z"/>
						</g>
					</g>
					<g>
						<g>
							<path fill="#CE2027" d="M141.1,97.5c5.7,0,8.8,0,14.5,0c-0.1-8.4,0.1-12.3,0-20.7c-2.9,0-6.2,0-9.1,0
								C142.2,84.2,139.6,89.4,141.1,97.5z"/>
						</g>
					</g>
					<g>
						<g>
							<path fill="#D32327" d="M145.3,97.5c4,0,6.3,0,10.3,0c-0.1-8.4,0.1-12.3,0-20.7c-2,0-4.8,0-6.9,0
								C145.6,84.2,144.3,89.4,145.3,97.5z"/>
						</g>
					</g>
					<g>
						<g>
							<path fill="#E53125" d="M147.9,97.5c3,0,4.7,0,7.7,0c-0.1-8.4,0.1-12.3,0-20.7c-1.5,0-3.6,0-5.1,0
								C148.2,84.2,147.1,89.4,147.9,97.5z"/>
						</g>
					</g>
					<g>
						<g>
							<path fill="#EF3E23" d="M149.8,97.5c2.3,0,3.6,0,5.9,0c0-8.4,0-12.3,0-20.7c-1.2,0-2.8,0-3.9,0
								C149.9,84.2,149.1,89.4,149.8,97.5z"/>
						</g>
					</g>
				</g>
			</g>
			<g>
				<g>
					<g>
						<g>
							<path fill="#EF4E84" d="M74.1,97.4H56.4l-0.9-17c-0.1-2.7,2-5,4.8-5h10c2.7,0,4.9,2.3,4.8,5L74.1,97.4z"/>
						</g>
					</g>
					<g>
						<g>
							<path fill="#E43567" d="M74.1,99.6H56.4l-0.9-17c-0.1-2.7,2-5,4.8-5h10c2.7,0,4.9,2.3,4.8,5L74.1,99.6z"/>
						</g>
					</g>
				</g>
				<g>
					<g>
						<g>
							<path fill="#EF4E84" d="M93.5,97.4H75.8l-0.9-17c-0.1-2.7,2-5,4.8-5h10c2.7,0,4.9,2.3,4.8,5L93.5,97.4z"/>
						</g>
					</g>
					<g>
						<g>
							<path fill="#E43567" d="M93.5,99.6H75.8l-0.9-17c-0.1-2.7,2-5,4.8-5h10c2.7,0,4.9,2.3,4.8,5L93.5,99.6z"/>
						</g>
					</g>
				</g>
				<g>
					<g>
						<g>
							<path fill="#EF4E84" d="M112.9,97.4H95.3l-0.9-17c-0.1-2.7,2-5,4.8-5h10c2.7,0,4.9,2.3,4.8,5L112.9,97.4z"/>
						</g>
					</g>
					<g>
						<g>
							<path fill="#E43567" d="M112.9,99.6H95.3l-0.9-17c-0.1-2.7,2-5,4.8-5h10c2.7,0,4.9,2.3,4.8,5L112.9,99.6z"/>
						</g>
					</g>
				</g>
				<g>
					<g>
						<g>
							<path fill="#EF4E84" d="M132.4,97.4h-17.7l-0.9-17c-0.1-2.7,2-5,4.8-5h10c2.7,0,4.9,2.3,4.8,5L132.4,97.4z"/>
						</g>
					</g>
					<g>
						<g>
							<path fill="#E43567" d="M132.4,99.6h-17.7l-0.9-17c-0.1-2.7,2-5,4.8-5h10c2.7,0,4.9,2.3,4.8,5L132.4,99.6z"/>
						</g>
					</g>
				</g>
				<g>
					<g>
						<g>
							<path fill="#EF4E84" d="M84.1,107.5H64.8l-0.2-17c-0.1-2.7,2-5,4.8-5h10c2.7,0,4.9,2.3,4.8,5L84.1,107.5z"/>
						</g>
					</g>
					<g>
						<g>
							<path fill="#E43567" d="M84.1,109.7H64.8l-0.2-17c-0.1-2.7,2-5,4.8-5h10c2.7,0,4.9,2.3,4.8,5L84.1,109.7z"/>
						</g>
					</g>
				</g>
				<g>
					<g>
						<g>
							<path fill="#EF4E84" d="M103.3,107.5H84.1l0-17c-0.1-2.7,2-5,4.8-5h10c2.7,0,4.9,2.3,4.8,5L103.3,107.5z"/>
						</g>
					</g>
					<g>
						<g>
							<path fill="#E43567" d="M103.3,109.7H84.1l0-17c-0.1-2.7,2-5,4.8-5h10c2.7,0,4.9,2.3,4.8,5L103.3,109.7z"/>
						</g>
					</g>
				</g>
				<g>
					<g>
						<g>
							<path fill="#EF4E84" d="M45.6,107.5H27l-0.9-17c-0.1-2.7,2-5,4.8-5h10c2.7,0,4.9,2.3,4.8,5L45.6,107.5z"/>
						</g>
					</g>
					<g>
						<g>
							<path fill="#E43567" d="M45.6,109.7H27l-0.9-17c-0.1-2.7,2-5,4.8-5h10c2.7,0,4.9,2.3,4.8,5L45.6,109.7z"/>
						</g>
					</g>
				</g>
				<g>
					<g>
						<g>
							<path fill="#EF4E84" d="M64.8,107.5H45.6l0-17c-0.1-2.7,2-5,4.8-5h10c2.7,0,4.9,2.3,4.8,5L64.8,107.5z"/>
						</g>
					</g>
					<g>
						<g>
							<path fill="#E43567" d="M64.8,109.7H45.6l0-17c-0.1-2.7,2-5,4.8-5h10c2.7,0,4.9,2.3,4.8,5L64.8,109.7z"/>
						</g>
					</g>
				</g>
				<g>
					<g>
						<g>
							<path fill="#EF4E84" d="M160.1,107.5h-18.3l-0.2-17c-0.1-2.7,2-5,4.8-5h10c2.7,0,4.9,2.3,4.8,5L160.1,107.5z"/>
						</g>
					</g>
					<g>
						<g>
							<path fill="#E43567" d="M160.1,109.7h-18.3l-0.2-17c-0.1-2.7,2-5,4.8-5h10c2.7,0,4.9,2.3,4.8,5L160.1,109.7z"/>
						</g>
					</g>
				</g>
				<g>
					<g>
						<g>
							<path fill="#EF4E84" d="M122.6,107.5h-19.2l-0.2-17c-0.1-2.7,2-5,4.8-5h10c2.7,0,4.9,2.3,4.8,5L122.6,107.5z"/>
						</g>
					</g>
					<g>
						<g>
							<path fill="#E43567" d="M122.6,109.7h-19.2l-0.2-17c-0.1-2.7,2-5,4.8-5h10c2.7,0,4.9,2.3,4.8,5L122.6,109.7z"/>
						</g>
					</g>
				</g>
				<g>
					<g>
						<g>
							<path fill="#EF4E84" d="M141.8,107.5h-19.2l0-17c-0.1-2.7,2-5,4.8-5h10c2.7,0,4.9,2.3,4.8,5L141.8,107.5z"/>
						</g>
					</g>
					<g>
						<g>
							<path fill="#E43567" d="M141.8,109.7h-19.2l0-17c-0.1-2.7,2-5,4.8-5h10c2.7,0,4.9,2.3,4.8,5L141.8,109.7z"/>
						</g>
					</g>
				</g>
			</g>
		</g>
	</g>
</g>
<g opacity="0.5">
	<ellipse fill="#44C1EF" cx="93.6" cy="135.5" rx="82.2" ry="12.9"/>
</g>
<g display="none">
	<g display="inline">
		<g>
			<path fill="#A0A8D5" d="M93.6,69.5c-9,0-16.3-7.3-16.3-16.3S84.6,37,93.6,37c9,0,16.3,7.3,16.3,16.3S102.6,69.5,93.6,69.5z
				 M93.6,38.7c-8,0-14.6,6.5-14.6,14.6s6.5,14.6,14.6,14.6s14.6-6.6,14.6-14.6S101.6,38.7,93.6,38.7z"/>
		</g>
	</g>
	<g display="inline">
		<g>
			<polygon fill="#A0A8D5" points="100.9,53.8 90.2,60 90.2,47.5 100.9,53.8 			"/>
		</g>
	</g>
</g>
<g>
	<g>
		<g>
			<g>
				<path fill="#16345B" d="M179.4,116.4l-0.1,0c-0.1,0-0.2-0.1-0.2-0.2l-0.3-1.1c0-0.1,0-0.3,0.1-0.3l0.2,0l-1.9-8.2l-0.3,0.1
					c-0.2,0.1-0.3,0-0.4-0.1l-0.3-1.1c0-0.1,0.1-0.3,0.3-0.4l0.3-0.1l-0.2-0.8c0,0-0.4,0.2-1.1,0.4c-0.3,0.1-0.7,0.3-1.1,0.4
					c-0.4,0.2-0.8,0.4-1.2,0.6c-0.4,0.2-0.8,0.4-1.1,0.6c-0.4,0.2-0.7,0.4-0.9,0.6c-0.5,0.3-0.9,0.6-0.9,0.6s-0.1,0.1-0.2,0.2
					c-0.1,0.1-0.3,0.2-0.6,0.4c-0.2,0.2-0.5,0.4-0.8,0.6c-0.3,0.2-0.5,0.5-0.8,0.7c-0.6,0.5-1.1,0.9-1.5,1.3
					c-0.4,0.3-0.6,0.6-0.6,0.6l-3.8,3.5c0,0-0.9,0.8-1.9,1.7c-0.5,0.4-0.9,0.8-1.3,1.1c-0.4,0.3-0.6,0.5-0.6,0.5s-0.2,0.2-0.6,0.5
					c-0.4,0.3-0.8,0.7-1.3,1.1c-0.5,0.4-1,0.8-1.3,1.1c-0.4,0.3-0.6,0.5-0.6,0.5s-0.3,0.2-0.6,0.5c-0.4,0.3-0.9,0.7-1.4,1
					c-0.5,0.4-1,0.7-1.4,1c-0.2,0.1-0.4,0.3-0.5,0.3c-0.1,0.1-0.2,0.1-0.2,0.1s-1,0.6-2,1.2c-0.3,0.1-0.5,0.3-0.7,0.4
					c-0.2,0.1-0.5,0.2-0.7,0.3c-0.4,0.2-0.7,0.3-0.7,0.3s-0.3,0.1-0.7,0.3c-0.2,0.1-0.4,0.2-0.7,0.3c-0.3,0.1-0.5,0.2-0.8,0.3
					c-0.6,0.2-1.1,0.4-1.5,0.5c-0.4,0.1-0.7,0.2-0.7,0.2s-0.3,0.1-0.7,0.2c-0.2,0.1-0.5,0.1-0.7,0.2c-0.3,0.1-0.6,0.1-0.9,0.1
					c-0.6,0.1-1.2,0.1-1.6,0.2c-0.2,0-0.4,0-0.5,0c-0.1,0-0.2,0-0.2,0s-0.3,0-0.8,0c-0.2,0-0.5,0-0.8,0c-0.3,0-0.6-0.1-0.9-0.1
					c-0.6-0.1-1.2-0.1-1.7-0.2c-0.5-0.1-0.8-0.2-0.8-0.2s-0.3-0.1-0.8-0.2c-0.2,0-0.5-0.1-0.8-0.2c-0.3-0.1-0.6-0.2-0.9-0.3
					c-0.3-0.1-0.6-0.2-0.9-0.3c-0.3-0.1-0.5-0.2-0.8-0.3c-0.2-0.1-0.4-0.2-0.5-0.2c-0.1-0.1-0.2-0.1-0.2-0.1s-0.3-0.1-0.7-0.3
					c-0.2-0.1-0.5-0.2-0.7-0.4c-0.3-0.1-0.5-0.3-0.8-0.5c-0.5-0.3-1.1-0.7-1.5-1c-0.4-0.3-0.6-0.5-0.6-0.5l0.2,0.2
					c0.1,0.1,0.1,0.1,0.2,0.2l0,0c-0.1-0.1-0.1-0.1-0.2-0.2l-0.2-0.2l0.2,0.2c0.1,0.1,0.1,0.1,0.2,0.2l0,0c-0.1-0.1-0.1-0.1-0.2-0.2
					l-0.2-0.2c0,0,0.2,0.3,0.5,0.6c0.3,0.4,0.8,0.8,1.3,1.3c0.2,0.2,0.5,0.4,0.7,0.6c0.2,0.2,0.4,0.4,0.6,0.5
					c0.4,0.3,0.7,0.5,0.7,0.5s0.1,0.1,0.2,0.1c0.1,0.1,0.3,0.2,0.5,0.3c0.2,0.1,0.5,0.3,0.7,0.5c0.3,0.2,0.5,0.4,0.8,0.5
					c0.3,0.2,0.6,0.3,0.9,0.5c0.3,0.1,0.5,0.3,0.8,0.4c0.5,0.2,0.8,0.3,0.8,0.3s0.3,0.1,0.8,0.3c0.5,0.2,1.1,0.4,1.8,0.6
					c0.3,0.1,0.7,0.2,1,0.3c0.3,0.1,0.6,0.1,0.9,0.2c0.5,0.1,0.8,0.2,0.8,0.2s0.1,0,0.2,0.1c0.1,0,0.4,0.1,0.6,0.1
					c0.5,0.1,1.2,0.1,1.9,0.2c0.4,0,0.7,0.1,1,0.1c0.3,0,0.6,0,0.9,0c0.5,0,0.9,0,0.9,0s0.4,0,0.9,0c0.5-0.1,1.2-0.1,1.9-0.2
					c0.4,0,0.7-0.1,1-0.1c0.3,0,0.6-0.1,0.9-0.2c0.5-0.1,0.9-0.2,0.9-0.2s0.3-0.1,0.9-0.2c0.3-0.1,0.6-0.1,0.9-0.2
					c0.3-0.1,0.6-0.2,1-0.3c1.3-0.5,2.7-1,2.7-1s0.1,0,0.2-0.1c0.1-0.1,0.3-0.1,0.6-0.2c0.5-0.2,1.1-0.5,1.7-0.7
					c0.6-0.3,1.2-0.5,1.7-0.7c0.5-0.2,0.8-0.3,0.8-0.3s0.3-0.1,0.8-0.4c0.5-0.2,1.1-0.5,1.7-0.8c0.6-0.3,1.2-0.6,1.7-0.8
					c0.4-0.2,0.7-0.4,0.7-0.4s0.3-0.2,0.8-0.4c0.4-0.2,1-0.6,1.6-0.9c1.2-0.7,2.3-1.3,2.3-1.3l4.5-2.7c0,0,0.3-0.2,0.7-0.4
					c0.4-0.2,0.9-0.5,1.4-0.8c0.3-0.1,0.5-0.3,0.7-0.4c0.2-0.1,0.4-0.2,0.6-0.3c0.2-0.1,0.3-0.2,0.4-0.2c0.1,0,0.2-0.1,0.2-0.1
					s0.2-0.1,0.6-0.2c0.2-0.1,0.4-0.1,0.5-0.2c0.2-0.1,0.4-0.1,0.6-0.2c0.2,0,0.4-0.1,0.6-0.1c0.2,0,0.3,0,0.5-0.1
					c0.3,0,0.4,0,0.4,0L179.4,116.4z M174.3,106.1l0.7-0.3c0.2-0.1,0.3,0,0.4,0.1l0.3,1c0,0.1-0.1,0.3-0.2,0.3l-0.6,0.3
					c-0.2,0.1-0.3,0-0.4-0.1l-0.4-1C174,106.3,174.1,106.1,174.3,106.1z M172.2,107.1l0.6-0.3c0.2-0.1,0.3-0.1,0.4,0.1l0.4,1
					c0.1,0.1,0,0.3-0.2,0.4l-0.6,0.3c-0.1,0.1-0.3,0-0.4-0.1l-0.5-0.9C172,107.4,172.1,107.2,172.2,107.1z M170.9,107.9
					c0.1-0.1,0.3-0.1,0.4,0l0.5,0.9c0.1,0.1,0,0.3-0.1,0.4l-0.3,0.2l-0.2,0.1c-0.1,0.1-0.3,0.1-0.3,0l-0.5-0.8
					c-0.1-0.1,0-0.3,0.1-0.4l0.2-0.1L170.9,107.9z M168.8,109.5c0,0,0.1-0.1,0.2-0.2c0.1-0.1,0.3-0.2,0.3-0.2c0.1-0.1,0.3-0.1,0.4,0
					l0.5,0.8c0.1,0.1,0,0.3-0.1,0.4c0,0-0.1,0.1-0.2,0.2c-0.1,0.1-0.2,0.2-0.2,0.2c-0.1,0.1-0.3,0.1-0.3,0l-0.5-0.8
					C168.7,109.8,168.7,109.6,168.8,109.5z M169.4,111.5c0.4-0.3,0.7-0.6,1-0.8c0.3-0.2,0.5-0.3,0.5-0.3c0.3-0.2,0.8-0.2,0.9,0.1
					l2.8,4.7c0.2,0.3,0.1,0.7-0.2,0.8c0,0-0.2,0.1-0.4,0.2c-0.3,0.1-0.6,0.4-1,0.6c-0.3,0.2-0.7,0.4-1,0.6c-0.3,0.2-0.4,0.3-0.4,0.3
					c-0.3,0.2-0.7,0.1-0.9-0.1l-3-4c-0.2-0.3-0.1-0.7,0.2-0.9c0,0,0.2-0.1,0.4-0.4C168.7,112,169,111.8,169.4,111.5z M159.8,119.9
					c-0.1-0.2,0-0.6,0.3-0.8c0,0,0.7-0.5,1.3-1c0.7-0.5,1.3-1.1,1.3-1.1c0.3-0.2,0.6-0.2,0.8,0l2.6,3.6c0.2,0.2,0,0.6-0.3,0.8
					c0,0-0.7,0.5-1.5,0.9c-0.8,0.5-1.5,0.9-1.5,0.9c-0.3,0.2-0.7,0.2-0.9,0L159.8,119.9z M163.8,116.8c-0.2-0.2-0.1-0.6,0.2-0.8
					l2.6-2.2c0.3-0.2,0.7-0.2,0.9,0l3,4c0.2,0.3,0.1,0.6-0.2,0.8l-2.9,1.9c-0.3,0.2-0.7,0.2-0.9,0L163.8,116.8z M167.4,110.7
					l0.4-0.4c0.1-0.1,0.3-0.1,0.3,0l0.5,0.8c0.1,0.1,0,0.3-0.1,0.3l-0.4,0.4c-0.1,0.1-0.3,0.1-0.3,0l-0.5-0.8
					C167.2,111,167.3,110.8,167.4,110.7z M166.4,111.6c0.1-0.1,0.2-0.1,0.3,0l0.5,0.7c0.1,0.1,0,0.2-0.1,0.3l-0.2,0.2l-0.2,0.1
					c-0.1,0.1-0.2,0.1-0.3,0l-0.5-0.7c-0.1-0.1,0-0.2,0.1-0.3l0.2-0.1L166.4,111.6z M164.7,113.1l0.4-0.4c0.1-0.1,0.2-0.1,0.3,0
					l0.5,0.7c0.1,0.1,0,0.2-0.1,0.3l-0.4,0.4c-0.1,0.1-0.2,0.1-0.3,0l-0.5-0.7C164.6,113.3,164.6,113.2,164.7,113.1z M163.5,114.2
					l0.4-0.4c0.1-0.1,0.2-0.1,0.3,0l0.5,0.7c0.1,0.1,0,0.2-0.1,0.3l-0.4,0.3c-0.1,0.1-0.2,0.1-0.3,0l-0.5-0.7
					C163.3,114.5,163.4,114.3,163.5,114.2z M162.6,115c0.1-0.1,0.2-0.1,0.3,0l0.5,0.7c0.1,0.1,0,0.2-0.1,0.3l-0.2,0.2l-0.2,0.1
					c-0.1,0.1-0.2,0.1-0.3,0l-0.5-0.7c-0.1-0.1,0-0.2,0.1-0.3l0.2-0.1L162.6,115z M161,116.5l0.4-0.3c0.1-0.1,0.2-0.1,0.3,0l0.5,0.6
					c0.1,0.1,0,0.2-0.1,0.3l-0.4,0.3c-0.1,0.1-0.2,0.1-0.3,0l-0.5-0.6C160.8,116.7,160.9,116.5,161,116.5z M159.7,117.6l0.4-0.3
					c0.1-0.1,0.2-0.1,0.3,0l0.4,0.6c0.1,0.1,0,0.2-0.1,0.3l-0.4,0.3c-0.1,0.1-0.2,0.1-0.3,0l-0.4-0.6
					C159.5,117.8,159.6,117.6,159.7,117.6z M158.8,118.3c0.1-0.1,0.2-0.1,0.3,0l0.4,0.6c0.1,0.1,0,0.2-0.1,0.3l-0.2,0.2l-0.2,0.1
					c-0.1,0.1-0.2,0.1-0.3,0l-0.4-0.6c-0.1-0.1,0-0.2,0.1-0.3l0.2-0.1L158.8,118.3z M157.1,119.6l0.4-0.3c0.1-0.1,0.2-0.1,0.3,0
					l0.4,0.6c0,0.1,0,0.2-0.1,0.3l-0.4,0.3c-0.1,0.1-0.2,0.1-0.3,0l-0.4-0.6C157,119.8,157,119.7,157.1,119.6z M155.8,120.7l0.4-0.3
					c0.1-0.1,0.2-0.1,0.3,0l0.4,0.6c0,0.1,0,0.2-0.1,0.3l-0.4,0.3c-0.1,0.1-0.2,0.1-0.3,0l-0.3-0.6
					C155.6,120.9,155.7,120.7,155.8,120.7z M154.5,121.6l0.2-0.1l0.2-0.2c0.1-0.1,0.2-0.1,0.3,0l0.3,0.6c0,0.1,0,0.2-0.1,0.3
					l-0.2,0.1l-0.2,0.1c-0.1,0.1-0.2,0.1-0.3,0l-0.3-0.5C154.3,121.8,154.4,121.7,154.5,121.6z M153.1,122.6l0.4-0.3
					c0.1-0.1,0.2-0.1,0.3,0l0.3,0.5c0,0.1,0,0.2-0.1,0.3l-0.4,0.3c-0.1,0.1-0.2,0.1-0.3,0l-0.3-0.5
					C152.9,122.8,153,122.7,153.1,122.6z M151.7,123.6l0.4-0.3c0.1-0.1,0.2-0.1,0.3,0l0.3,0.5c0,0.1,0,0.2-0.1,0.2l-0.4,0.3
					c-0.1,0.1-0.2,0.1-0.3,0l-0.3-0.5C151.5,123.8,151.6,123.7,151.7,123.6z M150.3,124.5l0.2-0.1l0.2-0.1c0.1-0.1,0.2-0.1,0.3,0
					l0.3,0.5c0,0.1,0,0.2-0.1,0.2l-0.2,0.1l-0.2,0.1c-0.1,0.1-0.2,0.1-0.3,0l-0.2-0.5C150.2,124.6,150.2,124.5,150.3,124.5z
					 M149,125.3l0.4-0.3c0.1-0.1,0.2-0.1,0.2,0l0.2,0.5c0,0.1,0,0.2-0.1,0.2l-0.4,0.3c-0.1,0.1-0.2,0.1-0.2,0l-0.2-0.5
					C148.8,125.5,148.9,125.4,149,125.3z M147.6,126.1c0,0,0.1-0.1,0.2-0.1c0.1,0,0.2-0.1,0.2-0.1c0.1-0.1,0.2-0.1,0.2,0l0.2,0.5
					c0,0.1,0,0.2-0.2,0.2c0,0-0.1,0.1-0.2,0.1c-0.1,0-0.2,0.1-0.2,0.1c-0.1,0-0.2,0-0.2,0l-0.2-0.4
					C147.4,126.2,147.5,126.2,147.6,126.1z M146.2,126.7l0.2-0.1l0.2-0.1c0.1-0.1,0.2,0,0.2,0l0.2,0.4c0,0.1-0.1,0.1-0.2,0.2
					l-0.2,0.1l-0.2,0.1c-0.1,0.1-0.2,0-0.2,0l-0.1-0.4C146,126.9,146.1,126.8,146.2,126.7z M144.7,127.4l0.5-0.2
					c0.1-0.1,0.2-0.1,0.2,0l0.1,0.4c0,0.1-0.1,0.1-0.2,0.2l-0.5,0.1c-0.1,0-0.2,0-0.2,0l-0.1-0.4
					C144.5,127.5,144.6,127.4,144.7,127.4z M143.2,127.9l0.5-0.2c0.1,0,0.2,0,0.2,0l0.1,0.4c0,0.1-0.1,0.1-0.2,0.2l-0.5,0.1
					c-0.1,0-0.2,0-0.2,0L143,128C143,128,143,127.9,143.2,127.9z M141.7,128.3l0.2,0l0.2-0.1c0.1,0,0.2,0,0.2,0l0.1,0.4
					c0,0-0.1,0.1-0.2,0.1l-0.2,0l-0.2,0c-0.1,0-0.2,0-0.2,0l0-0.4C141.4,128.4,141.5,128.3,141.7,128.3z M140.1,128.6l0.5-0.1
					c0.1,0,0.2,0,0.2,0l0,0.3c0,0-0.1,0.1-0.2,0.1l-0.5,0.1c-0.1,0-0.2,0-0.2-0.1l0-0.3C139.9,128.7,140,128.6,140.1,128.6z
					 M138.2,128.9c0,0,0.1-0.1,0.2-0.1l0.5,0c0.1,0,0.2,0,0.2,0.1l0,0.3c0,0-0.1,0.1-0.2,0.1l-0.5,0c-0.1,0-0.2,0-0.2-0.1
					L138.2,128.9z M136.7,128.9c0,0,0.1-0.1,0.2-0.1l0.2,0l0.3,0c0.1,0,0.2,0,0.2,0.1l0,0.3c0,0-0.1,0.1-0.2,0.1l-0.3,0l-0.2,0
					c-0.1,0-0.2,0-0.2-0.1L136.7,128.9z M135,128.8c0,0,0.1,0,0.2,0c0,0,0.5,0,0.5,0c0.1,0,0.2,0,0.2,0.1l0,0.3c0,0-0.1,0.1-0.2,0
					c0,0-0.5,0-0.5,0c-0.1,0-0.2-0.1-0.2-0.1L135,128.8z M133.4,128.6c0,0,0.1,0,0.2,0l0.5,0.1c0.1,0,0.2,0,0.2,0.1l0,0.2
					c0,0-0.1,0-0.2,0l-0.5-0.1c-0.1,0-0.2-0.1-0.2-0.1L133.4,128.6z M131.8,128.3c0,0,0.1,0,0.2,0l0.2,0l0.3,0.1
					c0.1,0,0.2,0.1,0.2,0.1l-0.1,0.2c0,0-0.1,0-0.2,0l-0.3-0.1l-0.2-0.1c-0.1,0-0.2-0.1-0.2-0.1L131.8,128.3z M130.2,127.8
					c0,0,0.1,0,0.2,0l0.5,0.2c0.1,0,0.2,0.1,0.2,0.1l-0.1,0.2c0,0-0.1,0-0.2,0l-0.5-0.2c-0.1,0-0.2-0.1-0.2-0.1L130.2,127.8z
					 M128.6,127.2c0,0,0.1,0,0.2,0.1l0.5,0.2c0.1,0,0.2,0.1,0.2,0.1l-0.1,0.1c0,0-0.1,0-0.2-0.1l-0.5-0.2
					C128.6,127.4,128.5,127.3,128.6,127.2L128.6,127.2z M127.1,126.5c0,0,0.1,0,0.2,0.1l0.2,0.1l0.2,0.1c0.1,0.1,0.2,0.1,0.2,0.1
					l0,0.1c0,0-0.1,0-0.2-0.1l-0.2-0.1l-0.2-0.1C127.1,126.7,127,126.6,127.1,126.5L127.1,126.5z M125.6,125.7c0,0,0.1,0,0.2,0.1
					l0.5,0.3c0.1,0.1,0.2,0.1,0.2,0.1l0,0.1c0,0-0.1,0-0.2-0.1l-0.5-0.3C125.6,125.8,125.5,125.8,125.6,125.7L125.6,125.7z
					 M124.1,124.8c0,0,0.1,0.1,0.2,0.1l0.4,0.3c0.1,0.1,0.2,0.1,0.2,0.1l0,0c0,0-0.1-0.1-0.2-0.1l-0.4-0.3
					C124.2,124.9,124.1,124.8,124.1,124.8L124.1,124.8z M124.7,125.7c0,0-0.1-0.1-0.2-0.2l-0.4-0.4c-0.1-0.1-0.2-0.2-0.2-0.2l0,0
					c0,0,0.1,0.1,0.2,0.2l0.4,0.4C124.7,125.5,124.7,125.6,124.7,125.7L124.7,125.7z M126,126.8c0,0-0.1-0.1-0.2-0.1l-0.4-0.4
					c-0.1-0.1-0.2-0.2-0.2-0.2l0,0c0,0,0.1,0.1,0.2,0.1l0.4,0.3C126,126.7,126.1,126.8,126,126.8L126,126.8z M126,126.6
					c-0.3-0.2-0.6-0.5-0.9-0.8c-0.3-0.3-0.7-0.6-0.9-0.8c-0.2-0.2-0.4-0.4-0.4-0.4c-0.3-0.3-0.5-0.5-0.5-0.5l0,0
					c0,0,0.2,0.2,0.5,0.4c0,0,0.2,0.1,0.4,0.3c0.3,0.2,0.6,0.4,1,0.7c0.4,0.2,0.7,0.5,1,0.6c0.3,0.2,0.5,0.3,0.5,0.3
					c0.3,0.2,0.6,0.3,0.6,0.4l-0.2,0.4c0,0-0.3-0.1-0.6-0.3C126.4,126.9,126.2,126.8,126,126.6z M127.4,127.9c0,0-0.1,0-0.2-0.1
					l-0.2-0.2l-0.2-0.1c-0.1-0.1-0.2-0.2-0.2-0.2l0-0.1c0,0,0.1,0,0.2,0.1l0.2,0.1l0.2,0.2C127.4,127.7,127.5,127.8,127.4,127.9
					L127.4,127.9z M128.9,128.8c0,0-0.1,0-0.2-0.1l-0.5-0.3c-0.1-0.1-0.2-0.1-0.2-0.2l0.1-0.1c0,0,0.1,0,0.2,0.1l0.5,0.3
					c0.1,0.1,0.2,0.1,0.2,0.2L128.9,128.8z M130.5,129.7c0,0-0.1,0-0.2-0.1l-0.5-0.3c-0.1-0.1-0.2-0.1-0.2-0.1l0.1-0.1
					c0,0,0.1,0,0.2,0.1l0.5,0.3c0.1,0.1,0.2,0.1,0.2,0.1L130.5,129.7z M130.4,129.3c-0.3-0.1-0.7-0.3-1.1-0.5
					c-0.4-0.2-0.8-0.4-1.1-0.6c-0.3-0.2-0.5-0.3-0.5-0.3c-0.3-0.2-0.6-0.4-0.5-0.4l0.3-0.4c0,0,0.3,0.1,0.6,0.2c0,0,0.2,0.1,0.5,0.2
					c0.3,0.1,0.7,0.3,1.1,0.5c0.4,0.1,0.8,0.3,1.1,0.4c0.3,0.1,0.5,0.2,0.5,0.2c0.4,0.1,0.6,0.2,0.6,0.3l-0.3,0.9
					c0,0.1-0.3,0-0.7-0.1C130.9,129.5,130.7,129.5,130.4,129.3z M132.1,130.4c0,0-0.1,0-0.2-0.1l-0.3-0.1l-0.2-0.1
					c-0.1-0.1-0.2-0.1-0.2-0.1l0.1-0.2c0,0,0.1,0,0.2,0.1l0.2,0.1l0.3,0.1c0.1,0.1,0.2,0.1,0.2,0.1L132.1,130.4z M133.9,131
					c0,0-0.1,0-0.3,0l-0.5-0.2c-0.1,0-0.2-0.1-0.2-0.1l0.1-0.2c0,0,0.1,0,0.3,0l0.5,0.2c0.1,0,0.2,0.1,0.2,0.1L133.9,131z
					 M135.6,131.4c0,0-0.1,0-0.3,0c0,0-0.6-0.1-0.6-0.1c-0.1,0-0.2-0.1-0.2-0.1l0-0.2c0,0,0.1,0,0.3,0c0,0,0.6,0.1,0.6,0.1
					c0.1,0,0.2,0.1,0.2,0.1L135.6,131.4z M135.5,131c-0.3,0-0.8-0.2-1.2-0.3c-0.4-0.1-0.9-0.2-1.2-0.3c-0.3-0.1-0.5-0.2-0.5-0.2
					c-0.4-0.1-0.6-0.3-0.6-0.4l0.3-1c0-0.1,0.3,0,0.7,0.1c0,0,0.2,0.1,0.5,0.1c0.3,0,0.7,0.1,1.1,0.2c0.4,0.1,0.8,0.1,1.1,0.1
					c0.3,0,0.5,0,0.5,0c0.4,0,0.6,0.1,0.6,0.2l-0.1,1.5c0,0.1-0.3,0.1-0.7,0.1C136,131.1,135.8,131,135.5,131z M137.4,131.8
					c0,0-0.1,0-0.3,0l-0.3-0.1l-0.2,0c-0.1,0-0.3-0.1-0.2-0.1l0-0.3c0,0,0.1,0,0.3,0l0.2,0l0.3,0c0.1,0,0.3,0.1,0.2,0.1L137.4,131.8
					z M139,132l-0.6-0.1c-0.1,0-0.3-0.1-0.3-0.1l0-0.3c0,0,0.1-0.1,0.3-0.1l0.6,0c0.1,0,0.3,0.1,0.3,0.1l0,0.3
					C139.2,132,139.1,132,139,132z M140.8,132.1l-0.6,0c-0.1,0-0.3-0.1-0.3-0.1l0-0.3c0,0,0.1-0.1,0.3-0.1l0.6,0
					c0.1,0,0.3,0,0.3,0.1l0,0.3C141.1,132.1,141,132.1,140.8,132.1z M141.4,131.4c0,0-0.2,0-0.6,0c-0.3,0-0.8,0-1.2,0
					c-0.9-0.1-1.8-0.1-1.8-0.1c-0.4,0-0.7-0.2-0.7-0.3l0.1-1.5c0-0.1,0.3-0.1,0.7-0.2c0,0,0.8,0,1.7-0.1c0.4,0,0.8-0.1,1.1-0.1
					c0.3-0.1,0.5-0.1,0.5-0.1c0.3-0.1,0.6,0,0.7,0.1l0.2,2C142.1,131.3,141.8,131.4,141.4,131.4z M142.7,132.1l-0.3,0l-0.2,0
					c-0.1,0-0.3,0-0.3-0.1l0-0.4c0,0,0.1-0.1,0.2-0.1l0.2,0l0.3,0c0.1,0,0.3,0,0.3,0.1l0.1,0.4C142.9,132,142.8,132.1,142.7,132.1z
					 M144.5,131.9L144,132c-0.1,0-0.3,0-0.3-0.1l-0.1-0.4c0,0,0.1-0.1,0.2-0.1l0.6-0.1c0.1,0,0.3,0,0.3,0.1l0.1,0.4
					C144.8,131.8,144.7,131.9,144.5,131.9z M146.4,131.6l-0.6,0.1c-0.1,0-0.3,0-0.3-0.1l-0.1-0.4c0-0.1,0.1-0.1,0.2-0.1l0.6-0.1
					c0.1,0,0.3,0,0.3,0l0.1,0.4C146.7,131.5,146.5,131.6,146.4,131.6z M146.8,130.6c0,0-0.2,0.1-0.5,0.2c-0.3,0.1-0.8,0.1-1.2,0.2
					c-0.9,0.1-1.8,0.3-1.8,0.3c-0.4,0-0.7-0.1-0.7-0.2l-0.3-2c0-0.1,0.1-0.1,0.2-0.2c0.1-0.1,0.3-0.1,0.4-0.2c0,0,0.8-0.2,1.6-0.5
					c0.4-0.1,0.8-0.2,1.1-0.3c0.3-0.1,0.5-0.2,0.5-0.2c0.3-0.1,0.6-0.1,0.7,0l0.8,2.3C147.4,130.3,147.2,130.5,146.8,130.6z
					 M148.2,131.2l-0.3,0.1l-0.2,0.1c-0.1,0-0.3,0-0.3,0l-0.1-0.4c0-0.1,0.1-0.1,0.2-0.2l0.2-0.1l0.3-0.1c0.1,0,0.3,0,0.3,0l0.2,0.4
					C148.4,131.1,148.3,131.2,148.2,131.2z M150,130.7c0,0-0.1,0.1-0.3,0.1c-0.1,0-0.3,0.1-0.3,0.1c-0.1,0-0.3,0-0.3,0l-0.2-0.4
					c0-0.1,0.1-0.1,0.2-0.2c0,0,0.1,0,0.3-0.1c0.1,0,0.3-0.1,0.3-0.1c0.1-0.1,0.3,0,0.3,0l0.2,0.5
					C150.2,130.6,150.1,130.7,150,130.7z M151.8,130.1l-0.5,0.2c-0.1,0.1-0.3,0-0.3,0l-0.2-0.5c0-0.1,0.1-0.1,0.2-0.2l0.5-0.2
					c0.1-0.1,0.3,0,0.3,0l0.2,0.5C152,129.9,151.9,130,151.8,130.1z M151.9,128.9c0,0-0.8,0.3-1.7,0.7c-0.2,0.1-0.4,0.2-0.6,0.2
					c-0.2,0.1-0.4,0.1-0.6,0.2c-0.3,0.1-0.6,0.2-0.6,0.2c-0.4,0.1-0.7,0.1-0.8-0.1l-0.8-2.4c-0.1-0.2,0.2-0.4,0.5-0.5
					c0,0,0.2-0.1,0.5-0.2c0.1-0.1,0.3-0.1,0.5-0.2c0.2-0.1,0.4-0.2,0.5-0.3c0.7-0.4,1.4-0.8,1.4-0.8c0.3-0.2,0.6-0.2,0.7,0l1.4,2.6
					C152.5,128.5,152.3,128.8,151.9,128.9z M153.5,129.4l-0.3,0.1l-0.2,0.1c-0.1,0.1-0.3,0-0.3,0l-0.2-0.5c0-0.1,0.1-0.2,0.2-0.2
					l0.2-0.1l0.3-0.1c0.1-0.1,0.3-0.1,0.3,0l0.3,0.5C153.7,129.3,153.6,129.4,153.5,129.4z M155.1,128.7l-0.5,0.2
					c-0.1,0.1-0.3,0-0.3,0l-0.3-0.5c0-0.1,0-0.2,0.2-0.2l0.5-0.2c0.1-0.1,0.3-0.1,0.3,0l0.3,0.5
					C155.3,128.6,155.3,128.7,155.1,128.7z M156.8,128l-0.5,0.2c-0.1,0.1-0.3,0-0.3,0l-0.3-0.5c0-0.1,0-0.2,0.2-0.2l0.5-0.2
					c0.1-0.1,0.3-0.1,0.3,0l0.3,0.5C157,127.8,156.9,127.9,156.8,128z M156.7,126.6c0,0-0.8,0.4-1.6,0.8c-0.8,0.4-1.6,0.8-1.6,0.8
					c-0.3,0.2-0.7,0.2-0.8,0l-1.4-2.6c-0.1-0.2,0.1-0.5,0.4-0.7c0,0,0.7-0.5,1.4-0.9c0.7-0.4,1.4-0.9,1.4-0.9c0.3-0.2,0.6-0.2,0.8,0
					l1.8,3C157.2,126.2,157.1,126.5,156.7,126.6z M158.4,127.2l-0.3,0.1l-0.2,0.1c-0.1,0.1-0.3,0.1-0.3,0l-0.3-0.5
					c0-0.1,0-0.2,0.1-0.2l0.2-0.1l0.2-0.1c0.1-0.1,0.3-0.1,0.3,0l0.3,0.6C158.5,127.1,158.5,127.2,158.4,127.2z M160,126.4l-0.5,0.3
					c-0.1,0.1-0.3,0.1-0.3,0l-0.3-0.6c0-0.1,0-0.2,0.1-0.2l0.5-0.3c0.1-0.1,0.3-0.1,0.3,0l0.4,0.6
					C160.2,126.3,160.1,126.4,160,126.4z M161.6,125.6l-0.5,0.3c-0.1,0.1-0.3,0.1-0.3,0l-0.4-0.6c0-0.1,0-0.2,0.1-0.3l0.5-0.3
					c0.1-0.1,0.3-0.1,0.3,0l0.4,0.6C161.8,125.4,161.7,125.5,161.6,125.6z M161.4,124.1c0,0-0.8,0.4-1.6,0.9
					c-0.8,0.4-1.6,0.8-1.6,0.8c-0.3,0.2-0.7,0.2-0.8,0l-1.8-3c-0.1-0.2,0-0.5,0.3-0.7c0,0,0.7-0.5,1.4-1c0.7-0.5,1.4-1,1.4-1
					c0.3-0.2,0.6-0.2,0.8,0l2.2,3.3C161.8,123.6,161.7,123.9,161.4,124.1z M163.1,124.8l-0.2,0.1l-0.2,0.1c-0.1,0.1-0.3,0.1-0.3,0
					l-0.4-0.6c-0.1-0.1,0-0.2,0.1-0.3l0.2-0.1l0.2-0.1c0.1-0.1,0.3-0.1,0.3,0l0.4,0.6C163.3,124.6,163.3,124.7,163.1,124.8z
					 M164.7,123.9l-0.5,0.3c-0.1,0.1-0.3,0.1-0.3,0l-0.4-0.6c-0.1-0.1,0-0.2,0.1-0.3l0.5-0.3c0.1-0.1,0.3-0.1,0.3,0l0.4,0.6
					C164.9,123.7,164.8,123.8,164.7,123.9z M166.3,123l-0.5,0.3c-0.1,0.1-0.3,0.1-0.3,0l-0.5-0.6c-0.1-0.1,0-0.2,0.1-0.3l0.5-0.3
					c0.1-0.1,0.3-0.1,0.3,0l0.5,0.6C166.5,122.8,166.4,122.9,166.3,123z M167.8,122.1l-0.2,0.1l-0.2,0.1c-0.1,0.1-0.3,0.1-0.3,0
					l-0.5-0.7c-0.1-0.1,0-0.2,0.1-0.3l0.2-0.1l0.2-0.1c0.1-0.1,0.3-0.1,0.3,0l0.5,0.7C167.9,121.9,167.9,122,167.8,122.1z
					 M169.3,121.2l-0.5,0.3c-0.1,0.1-0.3,0.1-0.3,0l-0.5-0.7c-0.1-0.1,0-0.2,0.1-0.3l0.5-0.3c0.1-0.1,0.3-0.1,0.3,0l0.5,0.7
					C169.5,121,169.4,121.1,169.3,121.2z M170.8,120.3l-0.5,0.3c-0.1,0.1-0.3,0.1-0.3,0l-0.5-0.7c-0.1-0.1,0-0.2,0.1-0.3l0.5-0.3
					c0.1-0.1,0.3-0.1,0.3,0l0.5,0.7C171,120.1,170.9,120.2,170.8,120.3z M171.8,119.6c-0.1,0.1-0.3,0-0.3,0l-0.5-0.7
					c-0.1-0.1,0-0.2,0.1-0.3l0.2-0.1l0.2-0.1c0.1-0.1,0.3-0.1,0.3,0l0.5,0.7c0.1,0.1,0,0.2-0.1,0.3l-0.2,0.1L171.8,119.6z
					 M173.6,118.6l-0.4,0.3c-0.1,0.1-0.3,0-0.3-0.1l-0.5-0.8c-0.1-0.1,0-0.2,0.1-0.3l0.4-0.3c0.1-0.1,0.3,0,0.3,0.1l0.5,0.8
					C173.8,118.4,173.8,118.5,173.6,118.6z M175,117.8c0,0-0.1,0.1-0.2,0.1c-0.1,0.1-0.2,0.1-0.2,0.1c-0.1,0.1-0.2,0-0.3-0.1
					l-0.5-0.8c-0.1-0.1,0-0.2,0.1-0.3c0,0,0.1-0.1,0.2-0.1c0.1-0.1,0.2-0.1,0.2-0.1c0.1-0.1,0.2,0,0.3,0.1l0.5,0.8
					C175.1,117.7,175.1,117.8,175,117.8z M175.9,117.4c-0.1,0-0.2,0-0.3-0.1l-0.5-0.8c-0.1-0.1,0-0.2,0.1-0.3l0.2-0.1l0.2-0.1
					c0.1,0,0.2,0,0.3,0.1l0.5,0.9c0.1,0.1,0,0.2-0.1,0.3l-0.2,0.1L175.9,117.4z M177.4,116.8l-0.4,0.1c-0.1,0-0.2,0-0.3-0.2
					l-0.5-0.9c-0.1-0.1,0-0.2,0.1-0.3l0.4-0.1c0.1,0,0.2,0,0.3,0.2l0.4,1C177.6,116.7,177.5,116.8,177.4,116.8z M178.6,116.6
					l-0.3,0.1c-0.1,0-0.2-0.1-0.2-0.2l-0.4-1c0-0.1,0-0.2,0.1-0.3l0.4-0.1c0.1,0,0.2,0.1,0.2,0.2l0.3,1
					C178.7,116.4,178.6,116.5,178.6,116.6z M178.3,114.5c0,0-0.2,0-0.4,0.1c-0.2,0.1-0.6,0.2-0.9,0.3c-0.3,0.1-0.6,0.2-0.9,0.3
					c-0.2,0.1-0.4,0.2-0.4,0.2c-0.3,0.1-0.7,0-0.8-0.3l-2.7-4.8c-0.2-0.3,0-0.7,0.3-1c0,0,0.2-0.1,0.5-0.3c0.3-0.2,0.8-0.4,1.3-0.7
					c0.5-0.2,1-0.4,1.3-0.6c0.4-0.1,0.6-0.2,0.6-0.2c0.4-0.1,0.9,0,1,0.4l1.4,5.8C178.8,114.1,178.6,114.4,178.3,114.5z"/>
			</g>
		</g>
		<g>
			<g>
				<path fill="#94B2DD" d="M177.3,107.9c-0.1-0.4-0.5-0.6-1-0.4c0,0-0.3,0.1-0.6,0.2c-0.4,0.2-0.9,0.4-1.3,0.6
					c-0.5,0.2-0.9,0.5-1.3,0.7c-0.3,0.2-0.5,0.3-0.5,0.3c-0.4,0.2-0.5,0.7-0.3,1l2.7,4.8c0.2,0.3,0.5,0.4,0.8,0.3
					c0,0,0.2-0.1,0.4-0.2c0.2-0.1,0.6-0.2,0.9-0.3c0.3-0.1,0.6-0.2,0.9-0.3c0.2,0,0.4-0.1,0.4-0.1c0.3-0.1,0.4-0.4,0.3-0.8
					L177.3,107.9z"/>
			</g>
		</g>
		<g>
			<g>
				<path fill="#94B2DD" d="M168,112.6c-0.3,0.2-0.4,0.6-0.2,0.9l3,4c0.2,0.3,0.6,0.3,0.9,0.1c0,0,0.2-0.1,0.4-0.3
					c0.3-0.2,0.6-0.4,1-0.6c0.3-0.2,0.7-0.4,1-0.6c0.3-0.1,0.4-0.2,0.4-0.2c0.3-0.2,0.4-0.5,0.2-0.8l-2.8-4.7
					c-0.2-0.3-0.6-0.4-0.9-0.1c0,0-0.2,0.1-0.5,0.3c-0.3,0.2-0.7,0.5-1,0.8c-0.4,0.3-0.7,0.6-1,0.8C168.2,112.5,168,112.6,168,112.6
					z"/>
			</g>
		</g>
		<g>
			<g>
				<path fill="#94B2DD" d="M167.3,120.5l2.9-1.9c0.3-0.2,0.4-0.6,0.2-0.8l-3-4c-0.2-0.3-0.6-0.3-0.9,0L164,116
					c-0.3,0.2-0.4,0.6-0.2,0.8l2.7,3.6C166.6,120.7,167,120.7,167.3,120.5z"/>
			</g>
		</g>
		<g>
			<g>
				<path fill="#94B2DD" d="M162.9,123.3c0,0,0.8-0.5,1.5-0.9c0.8-0.5,1.5-0.9,1.5-0.9c0.3-0.2,0.4-0.6,0.3-0.8l-2.6-3.6
					c-0.2-0.2-0.5-0.2-0.8,0c0,0-0.7,0.5-1.3,1.1c-0.7,0.5-1.3,1-1.3,1c-0.3,0.2-0.4,0.6-0.3,0.8l2.2,3.3
					C162.2,123.4,162.5,123.5,162.9,123.3z"/>
			</g>
		</g>
		<g>
			<g>
				<path fill="#94B2DD" d="M159.5,120.1c-0.1-0.2-0.5-0.2-0.8,0c0,0-0.7,0.5-1.4,1c-0.7,0.5-1.4,1-1.4,1c-0.3,0.2-0.5,0.5-0.3,0.7
					l1.8,3c0.1,0.2,0.5,0.2,0.8,0c0,0,0.8-0.4,1.6-0.8c0.8-0.4,1.6-0.9,1.6-0.9c0.3-0.2,0.5-0.5,0.3-0.7L159.5,120.1z"/>
			</g>
		</g>
		<g>
			<g>
				<path fill="#94B2DD" d="M155.4,123c-0.1-0.2-0.4-0.2-0.8,0c0,0-0.7,0.5-1.4,0.9c-0.7,0.5-1.4,0.9-1.4,0.9
					c-0.3,0.2-0.5,0.5-0.4,0.7l1.4,2.6c0.1,0.2,0.4,0.2,0.8,0c0,0,0.8-0.4,1.6-0.8c0.8-0.4,1.6-0.8,1.6-0.8c0.3-0.2,0.5-0.5,0.4-0.7
					L155.4,123z"/>
			</g>
		</g>
		<g>
			<g>
				<path fill="#94B2DD" d="M151,125.7c-0.1-0.2-0.4-0.2-0.7,0c0,0-0.7,0.4-1.4,0.8c-0.2,0.1-0.4,0.2-0.5,0.3
					c-0.2,0.1-0.3,0.1-0.5,0.2c-0.3,0.1-0.5,0.2-0.5,0.2c-0.3,0.1-0.5,0.4-0.5,0.5l0.8,2.4c0.1,0.2,0.4,0.2,0.8,0.1
					c0,0,0.2-0.1,0.6-0.2c0.2-0.1,0.4-0.1,0.6-0.2c0.2-0.1,0.4-0.2,0.6-0.2c0.8-0.3,1.7-0.7,1.7-0.7c0.4-0.1,0.6-0.4,0.5-0.6
					L151,125.7z"/>
			</g>
		</g>
		<g>
			<g>
				<path fill="#94B2DD" d="M146.6,127.8c-0.1-0.2-0.4-0.2-0.7,0c0,0-0.2,0.1-0.5,0.2c-0.3,0.1-0.7,0.2-1.1,0.3
					c-0.8,0.2-1.6,0.5-1.6,0.5c-0.2,0.1-0.3,0.1-0.4,0.2c-0.1,0.1-0.2,0.1-0.2,0.2l0.3,2c0,0.1,0.4,0.2,0.7,0.2c0,0,0.9-0.1,1.8-0.3
					c0.5-0.1,0.9-0.1,1.2-0.2c0.3-0.1,0.5-0.2,0.5-0.2c0.4-0.1,0.6-0.3,0.6-0.5L146.6,127.8z"/>
			</g>
		</g>
		<g>
			<g>
				<path fill="#94B2DD" d="M142.1,131.2l-0.2-2c0-0.1-0.3-0.2-0.7-0.1c0,0-0.2,0-0.5,0.1c-0.3,0.1-0.7,0.1-1.1,0.1
					c-0.8,0-1.7,0.1-1.7,0.1c-0.4,0-0.6,0.1-0.7,0.2l-0.1,1.5c0,0.1,0.3,0.3,0.7,0.3c0,0,0.9,0.1,1.8,0.1c0.5,0,0.9,0,1.2,0
					c0.3,0,0.6,0,0.6,0C141.8,131.4,142.1,131.3,142.1,131.2z"/>
			</g>
		</g>
	</g>
	<g>
		<g>
			<circle fill="#626786" cx="135.2" cy="109.4" r="25.6"/>
		</g>
	</g>
	<g>
		<g>
			<circle fill="#141832" cx="135.2" cy="109.4" r="4.1"/>
		</g>
		<g>
			<path fill="#7A809B" d="M135.2,114.5c-2.8,0-5.1-2.3-5.1-5.1s2.3-5.1,5.1-5.1s5.1,2.3,5.1,5.1S138,114.5,135.2,114.5z
				 M135.2,106.4c-1.6,0-3,1.3-3,3s1.3,3,3,3s3-1.3,3-3S136.8,106.4,135.2,106.4z"/>
		</g>
	</g>
	<g>
		<g>
			<g>
				<g>
					<path fill="#282C4C" d="M118.9,94.1c3-3.2,6.9-5.4,11.2-6.4c1-0.2,1.9,0.5,1.9,1.5v11.9c0,1.2-1.3,2-2.4,1.4l-10.3-6
						C118.4,96,118.2,94.8,118.9,94.1z"/>
				</g>
			</g>
			<g>
				<g>
					<path fill="#282C4C" d="M116.1,116.7c-0.9,0.5-2,0.1-2.3-0.9c-0.6-2.1-0.9-4.3-0.9-6.4c0-2.2,0.3-4.4,0.9-6.4
						c0.3-1,1.4-1.4,2.3-0.9l10.3,6c1,0.6,1,2.1,0,2.7L116.1,116.7z"/>
				</g>
			</g>
			<g>
				<g>
					<path fill="#282C4C" d="M144,108l10.3-6c0.9-0.5,2-0.1,2.3,0.9c0.6,2.1,0.9,4.3,0.9,6.4c0,2.2-0.3,4.4-0.9,6.4
						c-0.3,1-1.4,1.4-2.3,0.9l-10.3-6C143,110.1,143,108.6,144,108z"/>
				</g>
			</g>
			<g>
				<g>
					<path fill="#282C4C" d="M140.3,87.6c4.3,1,8.1,3.3,11.2,6.4c0.7,0.7,0.5,1.9-0.4,2.4l-10.3,6c-1,0.6-2.4-0.2-2.4-1.4V89.1
						C138.4,88.1,139.4,87.4,140.3,87.6z"/>
				</g>
			</g>
			<g>
				<g>
					<path fill="#282C4C" d="M130.1,131.2c-4.3-1-8.1-3.3-11.2-6.4c-0.7-0.7-0.5-1.9,0.4-2.4l10.3-6c1-0.6,2.4,0.2,2.4,1.4v11.9
						C132,130.6,131,131.4,130.1,131.2z"/>
				</g>
			</g>
			<g>
				<g>
					<path fill="#282C4C" d="M140.8,116.3l10.3,6c0.9,0.5,1.1,1.7,0.4,2.4c-3,3.2-6.9,5.4-11.2,6.4c-1,0.2-1.9-0.5-1.9-1.5v-11.9
						C138.4,116.5,139.7,115.7,140.8,116.3z"/>
				</g>
			</g>
		</g>
	</g>
	<g>
		<g>
			<g>
				<path fill="#141832" d="M115.1,121.8c-0.3,0-0.5-0.1-0.7-0.4c-0.2-0.4-0.1-0.9,0.3-1.1l13.9-8c0.4-0.2,0.9-0.1,1.1,0.3
					c0.2,0.4,0.1,0.9-0.3,1.1l-13.9,8C115.4,121.7,115.3,121.8,115.1,121.8z"/>
			</g>
		</g>
		<g>
			<g>
				<path fill="#141832" d="M129,106.6c-0.1,0-0.3,0-0.4-0.1l-13.9-8c-0.4-0.2-0.5-0.7-0.3-1.1c0.2-0.4,0.7-0.5,1.1-0.3l13.9,8
					c0.4,0.2,0.5,0.7,0.3,1.1C129.6,106.5,129.3,106.6,129,106.6z"/>
			</g>
		</g>
		<g>
			<g>
				<path fill="#141832" d="M135.2,103.1c-0.4,0-0.8-0.4-0.8-0.8V86.2c0-0.4,0.4-0.8,0.8-0.8s0.8,0.4,0.8,0.8v16.1
					C136,102.7,135.7,103.1,135.2,103.1z"/>
			</g>
		</g>
		<g>
			<g>
				<path fill="#141832" d="M155.3,121.8c-0.1,0-0.3,0-0.4-0.1l-13.9-8c-0.4-0.2-0.5-0.7-0.3-1.1c0.2-0.4,0.7-0.5,1.1-0.3l13.9,8
					c0.4,0.2,0.5,0.7,0.3,1.1C155.8,121.6,155.6,121.8,155.3,121.8z"/>
			</g>
		</g>
		<g>
			<g>
				<path fill="#141832" d="M141.4,106.6c-0.3,0-0.5-0.1-0.7-0.4c-0.2-0.4-0.1-0.9,0.3-1.1l13.9-8c0.4-0.2,0.9-0.1,1.1,0.3
					c0.2,0.4,0.1,0.9-0.3,1.1l-13.9,8C141.6,106.6,141.5,106.6,141.4,106.6z"/>
			</g>
		</g>
		<g>
			<g>
				<path fill="#141832" d="M135.2,133.4c-0.4,0-0.8-0.4-0.8-0.8v-16.1c0-0.4,0.4-0.8,0.8-0.8s0.8,0.4,0.8,0.8v16.1
					C136,133,135.7,133.4,135.2,133.4z"/>
			</g>
		</g>
	</g>
</g>
<g>
	<g>
		<g>
			<g>
				<polygon fill="#ED1C24" points="114.5,135 106.2,135 100.7,90.9 114.5,90.9 				"/>
			</g>
		</g>
		<g>
			<g>
				<g>
					<polygon fill="#EB2227" points="138.5,75 135.5,75 138.5,72.4 					"/>
				</g>
			</g>
			<g>
				<g>
					<polygon fill="#EFF1F9" points="138.4,72.4 135.4,75 132.3,75 135.4,72.4 					"/>
				</g>
			</g>
			<g>
				<g>
					<path fill="#EB2227" d="M130.8,73.7c0.8-0.6,1.5-1.3,1.5-1.3h3l-3,2.6c0,0-0.8,0-1.5,0c-0.4,0-0.8,0-1,0c-0.3,0-0.3,0-0.3,0
						c0,0,0.1-0.2,0.3-0.4C130.1,74.4,130.5,74,130.8,73.7z"/>
				</g>
			</g>
			<g>
				<g>
					<path fill="#EFF1F9" d="M127.7,75c0-0.2,0-0.5,0.1-0.7c0.1-0.5,0.4-1,0.7-1.3c0.1-0.2,0.3-0.3,0.4-0.4c0.1-0.1,0.2-0.1,0.2-0.1
						s0.3,0,0.6,0c0.3,0,0.7,0,1,0c0.8,0,1.5,0,1.5,0s-0.8,0.6-1.5,1.3c-0.4,0.3-0.8,0.6-1,0.9c-0.2,0.3-0.3,0.4-0.3,0.4
						s-0.5,0.1-0.9,0.3c-0.1,0.1-0.2,0.1-0.3,0.2c-0.1,0.1-0.1,0.2-0.2,0.2c-0.1,0.1-0.2,0.2-0.2,0.2s-0.1-0.2-0.2-0.5
						C127.7,75.4,127.7,75.2,127.7,75z"/>
				</g>
			</g>
			<g>
				<g>
					<path fill="#EB2227" d="M125.8,75.5c0-0.2-0.1-0.4-0.1-0.5c0-0.1,0-0.2,0-0.2s0.1-0.2,0.4-0.5c0.1-0.1,0.3-0.3,0.5-0.5
						c0.2-0.2,0.4-0.3,0.6-0.5c0.4-0.3,0.9-0.5,1.3-0.6c0.2,0,0.4-0.1,0.5-0.1c0.1,0,0.2,0,0.2,0s-0.1,0-0.2,0.1
						c-0.1,0.1-0.2,0.2-0.4,0.4c-0.3,0.3-0.6,0.8-0.7,1.3c-0.1,0.2-0.1,0.5-0.1,0.7c0,0.2,0,0.4,0,0.6c0.1,0.3,0.2,0.5,0.2,0.5
						c0,0-0.1,0.1-0.1,0.3c0,0-0.1,0.3-0.2,0.4c-0.1,0.2-0.1,0.3-0.2,0.5c-0.3,0.7-0.5,1.4-0.5,1.4s-0.4-0.9-0.7-1.9
						C126.1,76.3,125.9,75.9,125.8,75.5z"/>
				</g>
			</g>
			<g>
				<g>
					<polygon fill="#EB2227" points="124.5,77.8 125.9,81.6 124.9,84.4 123.5,80.7 					"/>
				</g>
			</g>
			<g>
				<g>
					<path fill="#EFF1F9" d="M125,76.4c0.1-0.4,0.3-0.7,0.4-1c0.2-0.4,0.3-0.6,0.3-0.6s0,0.3,0.1,0.7c0.1,0.4,0.3,0.8,0.5,1.3
						c0.4,0.9,0.7,1.9,0.7,1.9l-1,2.8l-1.4-3.7C124.5,77.8,124.7,77.1,125,76.4z"/>
				</g>
			</g>
			<g>
				<g>
					<polygon fill="#EB2227" points="122.4,83.6 123.9,87.3 122.8,90.2 121.4,86.5 					"/>
				</g>
			</g>
			<g>
				<g>
					<polygon fill="#EFF1F9" points="123.4,80.8 124.9,84.5 123.9,87.3 122.4,83.6 					"/>
				</g>
			</g>
			<g>
				<g>
					<polygon fill="#EB2227" points="120.4,89.4 121.8,93.1 120.8,96 119.4,92.2 					"/>
				</g>
			</g>
			<g>
				<g>
					<polygon fill="#EFF1F9" points="121.4,86.6 122.8,90.3 121.8,93.1 120.4,89.4 					"/>
				</g>
			</g>
			<g>
				<g>
					<polygon fill="#EB2227" points="118.3,95.2 119.7,98.9 117.3,98 					"/>
				</g>
			</g>
			<g>
				<g>
					<polygon fill="#D4D8ED" points="119.3,92.3 120.8,96 119.7,98.9 118.3,95.2 					"/>
				</g>
			</g>
		</g>
		<g>
			<g>
				<polygon fill="#D91F26" points="114.5,135 122.7,135 128.2,90.9 114.5,90.9 				"/>
			</g>
		</g>
		<g>
			<g>
				<rect x="114.5" y="89" fill="#D2DAEF" width="15.3" height="1.9"/>
			</g>
		</g>
		<g>
			<g>
				<rect x="99.1" y="89" fill="#EFF1F9" width="15.3" height="1.9"/>
			</g>
		</g>
	</g>
	<g>
		<g>
			<g>
				<g>
					<path fill="#F15625" d="M84.1,135c-1.4,0.1-2.8-0.1-4.2,0c-0.9-11.7-1.8-23.4-2.8-35.1c1.7-0.1,3.3,0.1,5,0
						C82.8,111.6,83.5,123.3,84.1,135z"/>
				</g>
			</g>
			<g>
				<g>
					<path fill="#EFF1F9" d="M88.3,135c-1.4,0-2.8-0.1-4.2,0c-0.7-11.7-1.3-23.4-2-35.1c1.7-0.1,3.3,0.1,5,0
						C87.5,111.6,87.9,123.3,88.3,135z"/>
				</g>
			</g>
			<g>
				<g>
					<path fill="#F15625" d="M92.5,135c-1.4,0-2.8,0-4.2,0c-0.4-11.7-0.8-23.3-1.2-35.1c1.7-0.1,3.3,0,5,0
						C92.3,111.6,92.4,123.2,92.5,135z"/>
				</g>
			</g>
			<g>
				<g>
					<path fill="#EFF1F9" d="M96.7,135c-1.4,0-2.8,0-4.2,0c-0.1-11.7-0.3-23.3-0.4-35.1c1.7,0,3.3,0,5,0
						C97,111.6,96.8,123.2,96.7,135z"/>
				</g>
			</g>
			<g>
				<g>
					<path fill="#ED4024" d="M100.9,135c-1.4,0-2.8,0-4.2,0c0.1-11.7,0.3-23.3,0.4-35.1c1.7,0,3.3-0.1,5,0
						C101.7,111.6,101.3,123.3,100.9,135z"/>
				</g>
			</g>
			<g>
				<g>
					<path fill="#EFF1F9" d="M105.1,135c-1.4-0.1-2.8,0-4.2,0c0.4-11.7,0.8-23.3,1.2-35.1c1.7,0.1,3.3-0.1,5,0
						C106.4,111.6,105.7,123.3,105.1,135z"/>
				</g>
			</g>
			<g>
				<g>
					<path fill="#ED4024" d="M109.3,135c-1.4-0.1-2.8,0.1-4.2,0c0.7-11.7,1.3-23.4,2-35.1c1.7,0.1,3.3-0.1,5,0
						C111.1,111.6,110.2,123.3,109.3,135z"/>
				</g>
			</g>
		</g>
		<g>
			<g>
				<g>
					<g>
						<path fill="#FFCD5D" d="M91.6,94.6c-0.5,0.7-1.2,1.1-2.1,1.1c-0.4,0-0.9-0.1-1.2-0.3c0.5,0.6,1.2,1,2,1c0.8,0,1.6-0.4,2-1
							C92,95.1,91.8,94.8,91.6,94.6z"/>
					</g>
				</g>
				<g>
					<g>
						<path fill="#FFCD5D" d="M95.9,91.9c0-0.2,0-0.3,0-0.5c0-0.9-0.5-1.7-1.3-2.2c0.3,0.4,0.5,1,0.5,1.5c0,0.2,0,0.3,0,0.5
							c0.6,0.5,0.9,1.1,0.9,1.9c0,1.4-1.1,2.5-2.5,2.5c-0.4,0-0.9-0.1-1.2-0.3c0.5,0.6,1.2,1,2,1c1.4,0,2.5-1.1,2.5-2.5
							C96.9,93,96.5,92.3,95.9,91.9z"/>
					</g>
				</g>
				<g>
					<g>
						<path fill="#FFF1B2" d="M96.1,93.2c0-0.8-0.4-1.5-0.9-1.9c0-0.2,0-0.3,0-0.5c0-0.6-0.2-1.1-0.5-1.5c-0.5-0.6-1.2-1-2-1
							c-1.4,0-2.5,1.1-2.5,2.5c0,0,0,0,0,0.1c-0.2-0.1-0.5-0.1-0.7-0.1c-1.4,0-2.5,1.1-2.5,2.5c0,0.9,0.5,1.7,1.3,2.2
							c0.4,0.2,0.8,0.3,1.2,0.3c0.9,0,1.6-0.4,2.1-1.1c0.2,0.3,0.4,0.5,0.7,0.7c0,0,0.1,0.1,0.1,0.1c0.4,0.2,0.8,0.3,1.2,0.3
							C95,95.7,96.1,94.5,96.1,93.2z"/>
					</g>
				</g>
			</g>
			<g>
				<g>
					<g>
						<path fill="#FFCD5D" d="M99.9,92c-0.5,0.7-1.2,1.1-2.1,1.1c-0.4,0-0.9-0.1-1.2-0.3c0.5,0.6,1.2,1,2,1c0.8,0,1.6-0.4,2-1
							C100.4,92.5,100.1,92.2,99.9,92z"/>
					</g>
				</g>
				<g>
					<g>
						<path fill="#FFCD5D" d="M104.3,89.2c0-0.2,0-0.3,0-0.5c0-0.9-0.5-1.7-1.3-2.2c0.3,0.4,0.5,1,0.5,1.5c0,0.2,0,0.3,0,0.5
							c0.6,0.5,0.9,1.2,0.9,1.9c0,1.4-1.1,2.5-2.5,2.5c-0.4,0-0.9-0.1-1.2-0.3c0.5,0.6,1.2,1,2,1c1.4,0,2.5-1.1,2.5-2.5
							C105.2,90.4,104.9,89.7,104.3,89.2z"/>
					</g>
				</g>
				<g>
					<g>
						<path fill="#FFF1B2" d="M104.5,90.5c0-0.8-0.4-1.5-0.9-1.9c0-0.2,0-0.3,0-0.5c0-0.6-0.2-1.1-0.5-1.5c-0.5-0.6-1.2-1-2-1
							c-1.4,0-2.5,1.1-2.5,2.5c0,0,0,0,0,0.1c-0.2-0.1-0.5-0.1-0.7-0.1c-1.4,0-2.5,1.1-2.5,2.5c0,0.9,0.5,1.7,1.3,2.2
							c0.4,0.2,0.8,0.3,1.2,0.3c0.9,0,1.6-0.4,2.1-1.1c0.2,0.3,0.4,0.5,0.7,0.7c0,0,0.1,0.1,0.1,0.1c0.4,0.2,0.8,0.3,1.2,0.3
							C103.4,93,104.5,91.9,104.5,90.5z"/>
					</g>
				</g>
			</g>
			<g>
				<g>
					<g>
						<path fill="#FFCD5D" d="M98.6,87.1c-0.3,0.4-0.8,0.6-1.3,0.6c-0.3,0-0.5-0.1-0.7-0.2c0.3,0.4,0.7,0.6,1.2,0.6
							c0.5,0,1-0.2,1.3-0.6C98.8,87.4,98.7,87.3,98.6,87.1z"/>
					</g>
				</g>
				<g>
					<g>
						<path fill="#FFCD5D" d="M101.3,85.5c0-0.1,0-0.2,0-0.3c0-0.6-0.3-1.1-0.7-1.4c0.2,0.3,0.3,0.6,0.3,1c0,0.1,0,0.2,0,0.3
							c0.3,0.3,0.5,0.7,0.5,1.2c0,0.8-0.7,1.5-1.6,1.5c-0.3,0-0.5-0.1-0.7-0.2c0.3,0.4,0.7,0.6,1.2,0.6c0.8,0,1.6-0.6,1.6-1.5
							C101.8,86.3,101.6,85.8,101.3,85.5z"/>
					</g>
				</g>
				<g>
					<g>
						<path fill="#FFF1B2" d="M101.4,86.3c0-0.5-0.2-0.9-0.5-1.2c0-0.1,0-0.2,0-0.3c0-0.4-0.1-0.7-0.3-1c-0.3-0.4-0.7-0.6-1.2-0.6
							c-0.8,0-1.6,0.6-1.6,1.5c0,0,0,0,0,0c-0.1-0.1-0.3-0.1-0.4-0.1c-0.8,0-1.6,0.6-1.6,1.5c0,0.6,0.3,1.1,0.7,1.4
							c0.2,0.1,0.5,0.2,0.7,0.2c0.5,0,1-0.2,1.3-0.6c0.1,0.2,0.2,0.3,0.4,0.4c0,0,0.1,0,0.1,0.1c0.2,0.1,0.5,0.2,0.7,0.2
							C100.6,87.8,101.3,87.2,101.4,86.3z"/>
					</g>
				</g>
			</g>
			<g>
				<g>
					<g>
						<path fill="#FFCD5D" d="M84,99.1c-0.5,0.7-1.2,1.1-2.1,1.1c-0.4,0-0.9-0.1-1.2-0.3c0.5,0.6,1.2,1,2,1c0.8,0,1.6-0.4,2-1
							C84.5,99.6,84.2,99.3,84,99.1z"/>
					</g>
				</g>
				<g>
					<g>
						<path fill="#FFCD5D" d="M88.4,96.4c0-0.2,0-0.3,0-0.5c0-0.9-0.5-1.7-1.3-2.2c0.3,0.4,0.5,1,0.5,1.5c0,0.2,0,0.3,0,0.5
							c0.6,0.5,0.9,1.2,0.9,1.9c0,1.4-1.1,2.5-2.5,2.5c-0.4,0-0.9-0.1-1.2-0.3c0.5,0.6,1.2,1,2,1c1.4,0,2.5-1.1,2.5-2.5
							C89.3,97.5,89,96.8,88.4,96.4z"/>
					</g>
				</g>
				<g>
					<g>
						<path fill="#FFF1B2" d="M88.6,97.7c0-0.8-0.4-1.5-0.9-1.9c0-0.2,0-0.3,0-0.5c0-0.6-0.2-1.1-0.5-1.5c-0.5-0.6-1.2-1-2-1
							c-1.4,0-2.5,1.1-2.5,2.5c0,0,0,0,0,0.1c-0.2-0.1-0.5-0.1-0.7-0.1c-1.4,0-2.5,1.1-2.5,2.5c0,0.9,0.5,1.7,1.3,2.2
							c0.4,0.2,0.8,0.3,1.2,0.3c0.9,0,1.6-0.4,2.1-1.1c0.2,0.3,0.4,0.5,0.7,0.7c0,0,0.1,0.1,0.1,0.1c0.4,0.2,0.8,0.3,1.2,0.3
							C87.5,100.2,88.6,99,88.6,97.7z"/>
					</g>
				</g>
			</g>
			<g>
				<g>
					<g>
						<path fill="#FFCD5D" d="M81.5,91.5c0.6-0.3,1.4-0.4,2.1,0c0.4,0.2,0.6,0.5,0.8,0.8c-0.1-0.7-0.5-1.3-1.2-1.6
							c-0.7-0.3-1.4-0.3-2.1,0C81.3,90.9,81.4,91.2,81.5,91.5z"/>
					</g>
				</g>
				<g>
					<g>
						<path fill="#FFCD5D" d="M76.8,91.8c-0.1,0.1-0.2,0.2-0.2,0.4c-0.4,0.7-0.3,1.6,0.1,2.3c-0.1-0.5,0-1,0.2-1.5
							c0.1-0.1,0.2-0.3,0.2-0.4c-0.3-0.6-0.3-1.3,0.1-1.9c0.6-1.1,1.9-1.5,3.1-1c0.4,0.2,0.6,0.5,0.8,0.8c-0.1-0.7-0.5-1.3-1.2-1.6
							c-1.1-0.6-2.5-0.1-3.1,1C76.6,90.5,76.6,91.2,76.8,91.8z"/>
					</g>
				</g>
				<g>
					<g>
						<path fill="#FFF1B2" d="M77.2,90.7c-0.3,0.6-0.3,1.3-0.1,1.9C77,92.7,77,92.9,76.9,93c-0.2,0.5-0.3,1-0.2,1.5
							c0.1,0.7,0.5,1.3,1.2,1.6c1.1,0.6,2.5,0.1,3.1-1c0,0,0,0,0,0c0.2,0.2,0.3,0.3,0.5,0.4c1.1,0.6,2.5,0.1,3.1-1
							c0.4-0.7,0.3-1.6-0.1-2.3c-0.2-0.3-0.5-0.6-0.8-0.8c-0.7-0.4-1.5-0.3-2.1,0c0-0.3-0.1-0.6-0.3-0.8c0,0-0.1-0.1-0.1-0.1
							c-0.2-0.3-0.5-0.6-0.8-0.8C79.1,89.2,77.8,89.6,77.2,90.7z"/>
					</g>
				</g>
			</g>
			<g>
				<g>
					<g>
						<path fill="#FFCD5D" d="M93.8,95.1c0.4-0.5,1.1-0.8,1.8-0.8c0.4,0,0.7,0.1,1,0.3c-0.4-0.5-0.9-0.9-1.6-0.9
							c-0.7,0-1.3,0.3-1.7,0.8C93.5,94.6,93.7,94.8,93.8,95.1z"/>
					</g>
				</g>
				<g>
					<g>
						<path fill="#FFCD5D" d="M90.1,97.1c0,0.1-0.1,0.3-0.1,0.4c0,0.8,0.4,1.5,1,1.9c-0.3-0.4-0.4-0.8-0.4-1.3c0-0.1,0-0.3,0.1-0.4
							c-0.4-0.4-0.7-1-0.7-1.7c0.1-1.1,1-2,2.2-2c0.4,0,0.7,0.1,1,0.3c-0.4-0.5-0.9-0.9-1.6-0.9c-1.1-0.1-2.1,0.8-2.2,2
							C89.4,96.1,89.6,96.7,90.1,97.1z"/>
					</g>
				</g>
				<g>
					<g>
						<path fill="#FFF1B2" d="M90,96c0,0.7,0.2,1.2,0.7,1.7c0,0.1-0.1,0.3-0.1,0.4c0,0.5,0.1,0.9,0.4,1.3c0.4,0.5,0.9,0.9,1.6,0.9
							c1.1,0.1,2.1-0.8,2.2-2c0,0,0,0,0,0c0.2,0.1,0.4,0.1,0.6,0.1c1.2,0.1,2.1-0.8,2.2-2c0-0.8-0.4-1.5-1-1.9
							c-0.3-0.2-0.6-0.3-1-0.3c-0.7,0-1.4,0.3-1.8,0.8c-0.1-0.2-0.3-0.4-0.5-0.6c0,0-0.1,0-0.1-0.1c-0.3-0.2-0.6-0.3-1-0.3
							C91,94,90,94.9,90,96z"/>
					</g>
				</g>
			</g>
			<g>
				<g>
					<g>
						<path fill="#FFCD5D" d="M85,96.5c-0.5-0.3-0.8-0.9-0.8-1.5c0-0.3,0.1-0.6,0.2-0.9c-0.4,0.3-0.7,0.9-0.7,1.5
							c0,0.6,0.3,1.2,0.8,1.5C84.7,96.8,84.8,96.6,85,96.5z"/>
					</g>
				</g>
				<g>
					<g>
						<path fill="#FFCD5D" d="M87.1,99.7c0.1,0,0.2,0,0.4,0c0.7,0,1.3-0.4,1.6-1c-0.3,0.3-0.7,0.4-1.1,0.4c-0.1,0-0.2,0-0.4,0
							c-0.3,0.4-0.9,0.7-1.4,0.7c-1,0-1.9-0.8-1.9-1.9c0-0.3,0.1-0.6,0.2-0.9c-0.4,0.3-0.7,0.9-0.7,1.5c0,1,0.8,1.9,1.9,1.9
							C86.2,100.4,86.7,100.1,87.1,99.7z"/>
					</g>
				</g>
				<g>
					<g>
						<path fill="#FFF1B2" d="M86.1,99.9c0.6,0,1.1-0.3,1.4-0.7c0.1,0,0.2,0,0.4,0c0.4,0,0.8-0.2,1.1-0.4c0.4-0.3,0.7-0.9,0.7-1.5
							c0-1-0.8-1.9-1.9-1.9c0,0,0,0,0,0c0.1-0.2,0.1-0.4,0.1-0.6c0-1-0.8-1.9-1.9-1.9c-0.7,0-1.3,0.4-1.6,1
							c-0.2,0.3-0.2,0.6-0.2,0.9c0,0.6,0.3,1.2,0.8,1.5c-0.2,0.1-0.4,0.3-0.5,0.5c0,0,0,0.1-0.1,0.1c-0.2,0.3-0.2,0.6-0.2,0.9
							C84.2,99,85.1,99.9,86.1,99.9z"/>
					</g>
				</g>
			</g>
			<g>
				<g>
					<g>
						<path fill="#FFCD5D" d="M93.6,99.7c-0.5,0.7-1.2,1.1-2.1,1.1c-0.4,0-0.9-0.1-1.2-0.3c0.5,0.6,1.2,1,2,1c0.8,0,1.6-0.4,2-1
							C94,100.2,93.7,100,93.6,99.7z"/>
					</g>
				</g>
				<g>
					<g>
						<path fill="#FFCD5D" d="M97.9,97c0-0.2,0-0.3,0-0.5c0-0.9-0.5-1.7-1.3-2.2c0.3,0.4,0.5,1,0.5,1.5c0,0.2,0,0.3,0,0.5
							c0.6,0.5,0.9,1.2,0.9,1.9c0,1.4-1.1,2.5-2.5,2.5c-0.4,0-0.9-0.1-1.2-0.3c0.5,0.6,1.2,1,2,1c1.4,0,2.5-1.1,2.5-2.5
							C98.9,98.1,98.5,97.4,97.9,97z"/>
					</g>
				</g>
				<g>
					<g>
						<path fill="#FFF1B2" d="M98.1,98.3c0-0.8-0.4-1.5-0.9-1.9c0-0.2,0-0.3,0-0.5c0-0.6-0.2-1.1-0.5-1.5c-0.5-0.6-1.2-1-2-1
							c-1.4,0-2.5,1.1-2.5,2.5c0,0,0,0,0,0.1c-0.2-0.1-0.5-0.1-0.7-0.1c-1.4,0-2.5,1.1-2.5,2.5c0,0.9,0.5,1.7,1.3,2.2
							c0.4,0.2,0.8,0.3,1.2,0.3c0.9,0,1.6-0.4,2.1-1.1c0.2,0.3,0.4,0.5,0.7,0.7c0,0,0.1,0.1,0.1,0.1c0.4,0.2,0.8,0.3,1.2,0.3
							C97,100.8,98.1,99.7,98.1,98.3z"/>
					</g>
				</g>
			</g>
			<g>
				<g>
					<g>
						<path fill="#FFCD5D" d="M83.4,91c-0.6,0.3-1.4,0.3-2.1-0.1c-0.3-0.2-0.6-0.5-0.8-0.8c0.1,0.6,0.5,1.2,1.1,1.6
							c0.6,0.4,1.4,0.4,2,0.1C83.5,91.5,83.4,91.2,83.4,91z"/>
					</g>
				</g>
				<g>
					<g>
						<path fill="#FFCD5D" d="M87.9,90.8c0.1-0.1,0.2-0.2,0.3-0.4c0.4-0.7,0.4-1.6,0-2.2c0.1,0.5,0,1-0.3,1.4
							c-0.1,0.1-0.2,0.2-0.3,0.4c0.2,0.6,0.2,1.3-0.1,1.9c-0.6,1.1-2,1.4-3,0.8c-0.3-0.2-0.6-0.5-0.8-0.8c0.1,0.6,0.5,1.2,1.1,1.6
							c1.1,0.6,2.4,0.2,3-0.8C88.1,92.1,88.2,91.4,87.9,90.8z"/>
					</g>
				</g>
				<g>
					<g>
						<path fill="#FFF1B2" d="M87.5,91.9c0.3-0.6,0.4-1.3,0.1-1.9c0.1-0.1,0.2-0.2,0.3-0.4c0.3-0.5,0.3-1,0.3-1.4
							c-0.1-0.6-0.5-1.2-1.1-1.6c-1.1-0.6-2.4-0.2-3,0.8c0,0,0,0,0,0c-0.1-0.2-0.3-0.3-0.5-0.4c-1.1-0.6-2.4-0.2-3,0.8
							c-0.4,0.7-0.4,1.6,0,2.2c0.2,0.3,0.5,0.6,0.8,0.8c0.7,0.4,1.4,0.4,2.1,0.1c0,0.3,0.1,0.6,0.2,0.8c0,0,0.1,0.1,0.1,0.1
							c0.2,0.3,0.5,0.6,0.8,0.8C85.5,93.3,86.9,92.9,87.5,91.9z"/>
					</g>
				</g>
			</g>
			<g>
				<g>
					<g>
						<path fill="#FFCD5D" d="M101,92.6c-0.1-0.7,0.1-1.5,0.7-2c0.3-0.3,0.7-0.4,1-0.5c-0.7-0.1-1.4,0.1-1.9,0.5
							c-0.6,0.5-0.8,1.2-0.7,1.9C100.4,92.6,100.7,92.6,101,92.6z"/>
					</g>
				</g>
				<g>
					<g>
						<path fill="#FFCD5D" d="M99.7,97.1c0.1,0.1,0.2,0.2,0.3,0.4c0.6,0.6,1.4,0.8,2.2,0.7c-0.5-0.1-0.9-0.3-1.3-0.7
							c-0.1-0.1-0.2-0.2-0.3-0.4c-0.7,0-1.3-0.2-1.8-0.7C98,95.4,98,94,99,93.2c0.3-0.3,0.7-0.4,1-0.5c-0.7-0.1-1.4,0.1-1.9,0.5
							c-0.9,0.8-1,2.3-0.2,3.2C98.4,96.9,99.1,97.1,99.7,97.1z"/>
					</g>
				</g>
				<g>
					<g>
						<path fill="#FFF1B2" d="M98.8,96.3c0.5,0.5,1.1,0.8,1.8,0.7c0.1,0.1,0.2,0.2,0.3,0.4c0.4,0.4,0.8,0.6,1.3,0.7
							c0.7,0.1,1.4-0.1,1.9-0.5c0.9-0.8,1-2.3,0.2-3.2c0,0,0,0,0,0c0.2-0.1,0.4-0.2,0.6-0.4c0.9-0.8,1-2.3,0.2-3.2
							c-0.6-0.6-1.4-0.8-2.2-0.7c-0.4,0.1-0.7,0.2-1,0.5c-0.6,0.5-0.8,1.3-0.7,2c-0.3-0.1-0.6-0.1-0.9,0c0,0-0.1,0-0.1,0
							c-0.4,0.1-0.7,0.2-1,0.5C98,94,98,95.4,98.8,96.3z"/>
					</g>
				</g>
			</g>
			<g>
				<g>
					<g>
						<path fill="#FFCD5D" d="M96.5,86.6c0.6,0,1.3,0.4,1.6,1c0.2,0.3,0.3,0.7,0.3,1c0.2-0.6,0.2-1.2-0.1-1.8
							c-0.3-0.6-0.9-0.9-1.6-1C96.7,86.1,96.6,86.3,96.5,86.6z"/>
					</g>
				</g>
				<g>
					<g>
						<path fill="#FFCD5D" d="M92.8,84.7c-0.1,0-0.2,0.1-0.4,0.2c-0.7,0.4-1,1.1-1,1.8c0.2-0.4,0.4-0.8,0.9-1
							c0.1-0.1,0.2-0.1,0.4-0.2c0.1-0.6,0.4-1.1,1-1.5c1-0.6,2.2-0.3,2.8,0.7c0.2,0.3,0.3,0.7,0.3,1c0.2-0.6,0.2-1.2-0.1-1.8
							c-0.6-1-1.8-1.3-2.8-0.7C93.2,83.5,92.8,84.1,92.8,84.7z"/>
					</g>
				</g>
				<g>
					<g>
						<path fill="#FFF1B2" d="M93.6,84c-0.5,0.3-0.9,0.9-1,1.5c-0.1,0-0.2,0.1-0.4,0.2c-0.4,0.2-0.7,0.6-0.9,1
							c-0.2,0.6-0.2,1.2,0.1,1.8c0.6,1,1.8,1.3,2.8,0.7c0,0,0,0,0,0c0,0.2,0.1,0.4,0.2,0.6c0.6,1,1.8,1.3,2.8,0.7
							c0.7-0.4,1-1.1,1-1.8c0-0.3-0.1-0.7-0.3-1c-0.4-0.6-1-0.9-1.6-1c0.1-0.2,0.2-0.5,0.2-0.8c0,0,0-0.1,0-0.1c0-0.3-0.1-0.7-0.3-1
							C95.8,83.7,94.6,83.4,93.6,84z"/>
					</g>
				</g>
			</g>
			<g>
				<g>
					<g>
						<path fill="#FFCD5D" d="M91.1,92.1c-0.5,0.7-1.2,1.1-2.1,1.1c-0.4,0-0.9-0.1-1.2-0.3c0.5,0.6,1.2,1,2,1c0.8,0,1.6-0.4,2-1
							C91.6,92.6,91.3,92.3,91.1,92.1z"/>
					</g>
				</g>
				<g>
					<g>
						<path fill="#FFCD5D" d="M95.5,89.3c0-0.2,0-0.3,0-0.5c0-0.9-0.5-1.7-1.3-2.2c0.3,0.4,0.5,1,0.5,1.5c0,0.2,0,0.3,0,0.5
							c0.6,0.5,0.9,1.2,0.9,1.9c0,1.4-1.1,2.5-2.5,2.5c-0.4,0-0.9-0.1-1.2-0.3c0.5,0.6,1.2,1,2,1c1.4,0,2.5-1.1,2.5-2.5
							C96.4,90.5,96.1,89.8,95.5,89.3z"/>
					</g>
				</g>
				<g>
					<g>
						<path fill="#FFF1B2" d="M95.7,90.6c0-0.8-0.4-1.5-0.9-1.9c0-0.2,0-0.3,0-0.5c0-0.6-0.2-1.1-0.5-1.5c-0.5-0.6-1.2-1-2-1
							c-1.4,0-2.5,1.1-2.5,2.5c0,0,0,0,0,0.1c-0.2-0.1-0.5-0.1-0.7-0.1c-1.4,0-2.5,1.1-2.5,2.5c0,0.9,0.5,1.7,1.3,2.2
							c0.4,0.2,0.8,0.3,1.2,0.3c0.9,0,1.6-0.4,2.1-1.1c0.2,0.3,0.4,0.5,0.7,0.7c0,0,0.1,0.1,0.1,0.1c0.4,0.2,0.8,0.3,1.2,0.3
							C94.6,93.1,95.7,92,95.7,90.6z"/>
					</g>
				</g>
			</g>
			<g>
				<g>
					<g>
						<path fill="#FFCD5D" d="M106.3,93.3c-0.7-0.4-1.2-1-1.3-1.9c0-0.4,0-0.8,0.2-1.2c-0.5,0.5-0.8,1.2-0.7,2
							c0.1,0.8,0.6,1.5,1.2,1.8C105.9,93.7,106.1,93.5,106.3,93.3z"/>
					</g>
				</g>
				<g>
					<g>
						<path fill="#FFCD5D" d="M109.4,97.2c0.2,0,0.3,0,0.5,0c0.9-0.1,1.6-0.7,2-1.5c-0.4,0.4-0.9,0.6-1.4,0.7c-0.2,0-0.3,0-0.5,0
							c-0.4,0.6-1,1-1.8,1.1c-1.3,0.1-2.5-0.8-2.7-2.2c0-0.4,0-0.8,0.2-1.2c-0.5,0.5-0.8,1.2-0.7,2c0.1,1.3,1.3,2.3,2.7,2.2
							C108.4,98.2,109,97.8,109.4,97.2z"/>
					</g>
				</g>
				<g>
					<g>
						<path fill="#FFF1B2" d="M108.2,97.5c0.8-0.1,1.4-0.5,1.8-1.1c0.2,0,0.3,0,0.5,0c0.6-0.1,1.1-0.3,1.4-0.7
							c0.5-0.5,0.8-1.2,0.7-2c-0.1-1.3-1.3-2.3-2.7-2.2c0,0,0,0,0,0c0-0.2,0.1-0.5,0-0.7c-0.1-1.3-1.3-2.3-2.7-2.2
							c-0.9,0.1-1.6,0.7-2,1.5c-0.2,0.4-0.2,0.8-0.2,1.2c0.1,0.8,0.6,1.5,1.3,1.9c-0.2,0.2-0.4,0.5-0.6,0.7c0,0,0,0.1-0.1,0.1
							c-0.2,0.4-0.2,0.8-0.2,1.2C105.6,96.7,106.8,97.7,108.2,97.5z"/>
					</g>
				</g>
			</g>
			<g>
				<g>
					<g>
						<path fill="#FFCD5D" d="M102.5,98.8c-0.5,0.7-1.2,1.1-2.1,1.1c-0.4,0-0.9-0.1-1.2-0.3c0.5,0.6,1.2,1,2,1c0.8,0,1.6-0.4,2-1
							C102.9,99.3,102.6,99,102.5,98.8z"/>
					</g>
				</g>
				<g>
					<g>
						<path fill="#FFCD5D" d="M106.8,96c0-0.2,0-0.3,0-0.5c0-0.9-0.5-1.7-1.3-2.2c0.3,0.4,0.5,1,0.5,1.5c0,0.2,0,0.3,0,0.5
							c0.6,0.5,0.9,1.2,0.9,1.9c0,1.4-1.1,2.5-2.5,2.5c-0.4,0-0.9-0.1-1.2-0.3c0.5,0.6,1.2,1,2,1c1.4,0,2.5-1.1,2.5-2.5
							C107.7,97.2,107.4,96.5,106.8,96z"/>
					</g>
				</g>
				<g>
					<g>
						<path fill="#FFF1B2" d="M107,97.3c0-0.8-0.4-1.5-0.9-1.9c0-0.2,0-0.3,0-0.5c0-0.6-0.2-1.1-0.5-1.5c-0.5-0.6-1.2-1-2-1
							c-1.4,0-2.5,1.1-2.5,2.5c0,0,0,0,0,0.1c-0.2-0.1-0.5-0.1-0.7-0.1c-1.4,0-2.5,1.1-2.5,2.5c0,0.9,0.5,1.7,1.3,2.2
							c0.4,0.2,0.8,0.3,1.2,0.3c0.9,0,1.6-0.4,2.1-1.1c0.2,0.3,0.4,0.5,0.7,0.7c0,0,0.1,0.1,0.1,0.1c0.4,0.2,0.8,0.3,1.2,0.3
							C105.9,99.8,107,98.7,107,97.3z"/>
					</g>
				</g>
			</g>
			<g>
				<g>
					<g>
						<path fill="#FFCD5D" d="M97.9,97.3c0.5,0.5,0.8,1.2,0.6,1.9c-0.1,0.4-0.2,0.7-0.4,1c0.5-0.3,1-0.9,1.1-1.5
							c0.1-0.7-0.1-1.4-0.6-1.8C98.4,97,98.2,97.2,97.9,97.3z"/>
					</g>
				</g>
				<g>
					<g>
						<path fill="#FFCD5D" d="M96.2,93.3c-0.1,0-0.3-0.1-0.4-0.1c-0.8-0.1-1.5,0.2-2,0.8c0.4-0.2,0.9-0.3,1.4-0.3
							c0.1,0,0.3,0.1,0.4,0.1c0.5-0.4,1.1-0.6,1.7-0.5c1.2,0.2,2,1.3,1.8,2.4c-0.1,0.4-0.2,0.7-0.4,1c0.5-0.3,1-0.9,1.1-1.5
							c0.2-1.2-0.6-2.3-1.8-2.4C97.3,92.7,96.6,92.9,96.2,93.3z"/>
					</g>
				</g>
				<g>
					<g>
						<path fill="#FFF1B2" d="M97.3,93.3c-0.7-0.1-1.3,0.1-1.7,0.5c-0.1,0-0.3-0.1-0.4-0.1c-0.5-0.1-1,0-1.4,0.3
							c-0.5,0.3-1,0.9-1.1,1.5c-0.2,1.2,0.6,2.3,1.8,2.4c0,0,0,0,0,0c-0.1,0.2-0.2,0.4-0.2,0.6c-0.2,1.2,0.6,2.3,1.8,2.4
							c0.8,0.1,1.5-0.2,2-0.8c0.2-0.3,0.4-0.6,0.4-1c0.1-0.7-0.2-1.4-0.6-1.9c0.2-0.1,0.5-0.3,0.7-0.5c0,0,0.1-0.1,0.1-0.1
							c0.2-0.3,0.4-0.6,0.4-1C99.3,94.6,98.5,93.5,97.3,93.3z"/>
					</g>
				</g>
			</g>
			<g>
				<g>
					<g>
						<path fill="#FFCD5D" d="M110,97.3c0.7-0.2,1.4-0.1,2.1,0.3c0.3,0.2,0.5,0.6,0.7,0.9c0-0.7-0.3-1.3-0.9-1.7
							c-0.6-0.4-1.3-0.5-2-0.3C110,96.7,110.1,97,110,97.3z"/>
					</g>
				</g>
				<g>
					<g>
						<path fill="#FFCD5D" d="M105.5,96.9c-0.1,0.1-0.2,0.2-0.3,0.3c-0.5,0.7-0.6,1.5-0.2,2.2c0-0.5,0.1-1,0.4-1.4
							c0.1-0.1,0.2-0.2,0.3-0.3c-0.2-0.6-0.1-1.3,0.4-1.9c0.7-1,2.1-1.2,3.1-0.4c0.3,0.2,0.5,0.6,0.7,0.9c0-0.7-0.3-1.3-0.9-1.7
							c-1-0.7-2.4-0.5-3.1,0.4C105.4,95.6,105.3,96.3,105.5,96.9z"/>
					</g>
				</g>
				<g>
					<g>
						<path fill="#FFF1B2" d="M106,95.9c-0.4,0.6-0.5,1.3-0.4,1.9c-0.1,0.1-0.2,0.2-0.3,0.3c-0.3,0.4-0.4,0.9-0.4,1.4
							c0,0.7,0.3,1.3,0.9,1.7c1,0.7,2.4,0.5,3.1-0.4c0,0,0,0,0,0c0.1,0.2,0.3,0.3,0.5,0.5c1,0.7,2.4,0.5,3.1-0.4
							c0.5-0.7,0.6-1.5,0.2-2.2c-0.1-0.3-0.4-0.7-0.7-0.9c-0.6-0.5-1.4-0.6-2.1-0.3c0-0.3,0-0.6-0.1-0.9c0,0,0-0.1-0.1-0.1
							c-0.1-0.3-0.4-0.7-0.7-0.9C108.2,94.7,106.8,94.9,106,95.9z"/>
					</g>
				</g>
			</g>
			<g>
				<g>
					<g>
						<path fill="#FFCD5D" d="M104.8,95c-0.5,0.3-1.1,0.5-1.6,0.3c-0.3-0.1-0.6-0.3-0.8-0.5c0.2,0.5,0.6,0.9,1.1,1.1
							c0.6,0.2,1.2,0.1,1.6-0.3C105,95.4,104.9,95.2,104.8,95z"/>
					</g>
				</g>
				<g>
					<g>
						<path fill="#FFCD5D" d="M108.4,94.1c0.1-0.1,0.1-0.2,0.1-0.3c0.2-0.6,0-1.3-0.4-1.8c0.1,0.4,0.2,0.8,0,1.2
							c0,0.1-0.1,0.2-0.1,0.3c0.3,0.4,0.4,1,0.2,1.5c-0.3,0.9-1.3,1.4-2.3,1.1c-0.3-0.1-0.6-0.3-0.8-0.5c0.2,0.5,0.6,0.9,1.1,1.1
							c0.9,0.3,1.9-0.2,2.3-1.1C108.7,95.1,108.6,94.5,108.4,94.1z"/>
					</g>
				</g>
				<g>
					<g>
						<path fill="#FFF1B2" d="M108.2,95c0.2-0.5,0.1-1.1-0.2-1.5c0.1-0.1,0.1-0.2,0.1-0.3c0.1-0.4,0.1-0.8,0-1.2
							c-0.2-0.5-0.6-0.9-1.1-1.1c-0.9-0.3-1.9,0.2-2.3,1.1c0,0,0,0,0,0c-0.1-0.1-0.3-0.2-0.5-0.2c-0.9-0.3-1.9,0.2-2.3,1.1
							c-0.2,0.6,0,1.3,0.4,1.8c0.2,0.2,0.5,0.4,0.8,0.5c0.6,0.2,1.2,0.1,1.6-0.3c0.1,0.2,0.2,0.4,0.3,0.6c0,0,0.1,0.1,0.1,0.1
							c0.2,0.2,0.5,0.4,0.8,0.5C106.9,96.5,107.9,96,108.2,95z"/>
					</g>
				</g>
			</g>
			<g>
				<g>
					<g>
						<path fill="#FFCD5D" d="M76.5,98.9c-0.7-0.1-1.4-0.4-1.8-1.1c-0.2-0.3-0.3-0.7-0.3-1.1c-0.2,0.6-0.2,1.3,0.1,1.9
							c0.4,0.6,1,1,1.7,1.1C76.3,99.5,76.4,99.2,76.5,98.9z"/>
					</g>
				</g>
				<g>
					<g>
						<path fill="#FFCD5D" d="M80.6,101c0.1,0,0.3-0.1,0.4-0.2c0.7-0.4,1.1-1.2,1.1-2c-0.2,0.5-0.5,0.9-0.9,1.1
							c-0.1,0.1-0.3,0.1-0.4,0.2c-0.1,0.6-0.5,1.2-1.1,1.6c-1.1,0.6-2.4,0.3-3.1-0.8c-0.2-0.3-0.3-0.7-0.3-1.1
							c-0.2,0.6-0.2,1.3,0.1,1.9c0.6,1.1,2,1.4,3.1,0.8C80.1,102.3,80.5,101.7,80.6,101z"/>
					</g>
				</g>
				<g>
					<g>
						<path fill="#FFF1B2" d="M79.6,101.8c0.6-0.4,1-1,1.1-1.6c0.1,0,0.3-0.1,0.4-0.2c0.5-0.3,0.8-0.7,0.9-1.1
							c0.2-0.6,0.2-1.3-0.1-1.9c-0.6-1.1-2-1.4-3.1-0.8c0,0,0,0,0,0c0-0.2-0.1-0.4-0.2-0.6c-0.6-1.1-2-1.4-3.1-0.8
							c-0.7,0.4-1.1,1.2-1.1,2c0,0.4,0.1,0.7,0.3,1.1c0.4,0.7,1.1,1,1.8,1.1c-0.1,0.3-0.2,0.5-0.2,0.8c0,0,0,0.1,0,0.1
							c0,0.4,0.1,0.7,0.3,1.1C77.2,102,78.6,102.4,79.6,101.8z"/>
					</g>
				</g>
			</g>
			<g>
				<g>
					<g>
						<path fill="#FFCD5D" d="M88.4,88.9C88,89.6,87.2,90,86.4,90c-0.4,0-0.9-0.1-1.2-0.3c0.5,0.6,1.2,1,2,1c0.8,0,1.6-0.4,2-1
							C88.8,89.4,88.6,89.2,88.4,88.9z"/>
					</g>
				</g>
				<g>
					<g>
						<path fill="#FFCD5D" d="M92.8,86.2c0-0.2,0-0.3,0-0.5c0-0.9-0.5-1.7-1.3-2.2c0.3,0.4,0.5,1,0.5,1.5c0,0.2,0,0.3,0,0.5
							c0.6,0.5,0.9,1.2,0.9,1.9c0,1.4-1.1,2.5-2.5,2.5c-0.4,0-0.9-0.1-1.2-0.3c0.5,0.6,1.2,1,2,1c1.4,0,2.5-1.1,2.5-2.5
							C93.7,87.3,93.4,86.7,92.8,86.2z"/>
					</g>
				</g>
				<g>
					<g>
						<path fill="#FFF1B2" d="M93,87.5c0-0.8-0.4-1.5-0.9-1.9c0-0.2,0-0.3,0-0.5c0-0.6-0.2-1.1-0.5-1.5c-0.5-0.6-1.2-1-2-1
							c-1.4,0-2.5,1.1-2.5,2.5c0,0,0,0,0,0.1c-0.2-0.1-0.5-0.1-0.7-0.1c-1.4,0-2.5,1.1-2.5,2.5c0,0.9,0.5,1.7,1.3,2.2
							c0.4,0.2,0.8,0.3,1.2,0.3c0.9,0,1.6-0.4,2.1-1.1c0.2,0.3,0.4,0.5,0.7,0.7c0,0,0.1,0.1,0.1,0.1c0.4,0.2,0.8,0.3,1.2,0.3
							C91.9,90,93,88.9,93,87.5z"/>
					</g>
				</g>
			</g>
			<g>
				<g>
					<g>
						<path fill="#FFCD5D" d="M83.4,87.9c-0.3,0.4-0.8,0.7-1.4,0.7c-0.3,0-0.6-0.1-0.8-0.3c0.3,0.4,0.8,0.7,1.3,0.7
							c0.6,0,1.1-0.2,1.4-0.7C83.7,88.2,83.5,88.1,83.4,87.9z"/>
					</g>
				</g>
				<g>
					<g>
						<path fill="#FFCD5D" d="M86.4,86.2c0-0.1,0-0.2,0-0.3c0-0.6-0.3-1.2-0.8-1.5c0.2,0.3,0.3,0.7,0.3,1.1c0,0.1,0,0.2,0,0.3
							c0.4,0.3,0.6,0.8,0.6,1.3c0,0.9-0.8,1.7-1.8,1.6c-0.3,0-0.6-0.1-0.8-0.3c0.3,0.4,0.8,0.7,1.3,0.7c0.9,0,1.7-0.7,1.8-1.6
							C87,87,86.8,86.5,86.4,86.2z"/>
					</g>
				</g>
				<g>
					<g>
						<path fill="#FFF1B2" d="M86.5,87c0-0.5-0.2-1-0.6-1.3c0-0.1,0-0.2,0-0.3c0-0.4-0.1-0.8-0.3-1.1c-0.3-0.4-0.8-0.7-1.3-0.7
							c-0.9,0-1.7,0.7-1.8,1.6c0,0,0,0,0,0c-0.2-0.1-0.3-0.1-0.5-0.1c-0.9,0-1.7,0.7-1.8,1.6c0,0.6,0.3,1.2,0.8,1.5
							c0.2,0.1,0.5,0.2,0.8,0.3c0.6,0,1.1-0.3,1.4-0.7c0.1,0.2,0.3,0.3,0.5,0.5c0,0,0.1,0,0.1,0.1c0.2,0.1,0.5,0.2,0.8,0.3
							C85.7,88.7,86.5,88,86.5,87z"/>
					</g>
				</g>
			</g>
			<g>
				<g>
					<g>
						<path fill="#FFCD5D" d="M98,87.7c0.6-0.2,1.2-0.1,1.8,0.3c0.3,0.2,0.5,0.5,0.6,0.8c0-0.6-0.2-1.1-0.7-1.5
							c-0.5-0.4-1.1-0.5-1.7-0.3C98,87.2,98,87.5,98,87.7z"/>
					</g>
				</g>
				<g>
					<g>
						<path fill="#FFCD5D" d="M94.1,87.3c-0.1,0.1-0.2,0.2-0.3,0.3c-0.4,0.6-0.5,1.3-0.3,1.9c0-0.4,0.1-0.8,0.4-1.2
							c0.1-0.1,0.2-0.2,0.3-0.3c-0.1-0.5,0-1.1,0.4-1.6c0.7-0.8,1.9-1,2.7-0.3c0.3,0.2,0.5,0.5,0.6,0.8c0-0.6-0.2-1.1-0.7-1.5
							c-0.8-0.7-2-0.5-2.7,0.3C94.1,86.2,94,86.7,94.1,87.3z"/>
					</g>
				</g>
				<g>
					<g>
						<path fill="#FFF1B2" d="M94.6,86.4c-0.4,0.5-0.5,1.1-0.4,1.6c-0.1,0.1-0.2,0.2-0.3,0.3c-0.3,0.4-0.4,0.8-0.4,1.2
							c0,0.6,0.2,1.1,0.7,1.5c0.8,0.7,2,0.5,2.7-0.3c0,0,0,0,0,0c0.1,0.2,0.2,0.3,0.4,0.4c0.8,0.7,2,0.5,2.7-0.3
							c0.4-0.6,0.5-1.3,0.3-1.9c-0.1-0.3-0.3-0.6-0.6-0.8c-0.5-0.4-1.2-0.5-1.8-0.3c0-0.2,0-0.5-0.1-0.7c0,0,0-0.1,0-0.1
							c-0.1-0.3-0.3-0.6-0.6-0.8C96.5,85.4,95.3,85.6,94.6,86.4z"/>
					</g>
				</g>
			</g>
			<g>
				<g>
					<g>
						<path fill="#FFCD5D" d="M105.2,90.6c0,0.5-0.3,0.9-0.7,1.1c-0.2,0.1-0.5,0.2-0.7,0.2c0.4,0.2,0.9,0.2,1.3-0.1
							c0.4-0.2,0.7-0.6,0.7-1.1C105.5,90.8,105.4,90.7,105.2,90.6z"/>
					</g>
				</g>
				<g>
					<g>
						<path fill="#FFCD5D" d="M106.6,88c0-0.1-0.1-0.2-0.1-0.3c-0.3-0.5-0.8-0.7-1.3-0.7c0.3,0.1,0.5,0.3,0.7,0.6
							c0,0.1,0.1,0.2,0.1,0.3c0.4,0.1,0.8,0.3,1,0.7c0.4,0.7,0.1,1.6-0.6,2c-0.2,0.1-0.5,0.2-0.7,0.2c0.4,0.2,0.9,0.2,1.3-0.1
							c0.7-0.4,0.9-1.3,0.6-2C107.4,88.3,107,88.1,106.6,88z"/>
					</g>
				</g>
				<g>
					<g>
						<path fill="#FFF1B2" d="M107.1,88.6c-0.2-0.4-0.6-0.6-1-0.7c0-0.1-0.1-0.2-0.1-0.3c-0.2-0.3-0.4-0.5-0.7-0.6
							c-0.4-0.2-0.9-0.2-1.3,0.1c-0.7,0.4-0.9,1.3-0.6,2c0,0,0,0,0,0c-0.1,0-0.3,0.1-0.4,0.1c-0.7,0.4-0.9,1.3-0.6,2
							c0.3,0.5,0.8,0.7,1.3,0.7c0.2,0,0.5-0.1,0.7-0.2c0.4-0.2,0.7-0.7,0.7-1.1c0.2,0.1,0.4,0.1,0.5,0.1c0,0,0.1,0,0.1,0
							c0.2,0,0.5-0.1,0.7-0.2C107.2,90.2,107.5,89.3,107.1,88.6z"/>
					</g>
				</g>
			</g>
			<g>
				<g>
					<g>
						<path fill="#FFCD5D" d="M95.8,94.6c-0.5,0.7-1.2,1.1-2.1,1.1c-0.4,0-0.9-0.1-1.2-0.3c0.5,0.6,1.2,1,2,1c0.8,0,1.6-0.4,2-1
							C96.2,95.1,95.9,94.8,95.8,94.6z"/>
					</g>
				</g>
				<g>
					<g>
						<path fill="#FFCD5D" d="M100.1,91.9c0-0.2,0-0.3,0-0.5c0-0.9-0.5-1.7-1.3-2.2c0.3,0.4,0.5,1,0.5,1.5c0,0.2,0,0.3,0,0.5
							c0.6,0.5,0.9,1.1,0.9,1.9c0,1.4-1.1,2.5-2.5,2.5c-0.4,0-0.9-0.1-1.2-0.3c0.5,0.6,1.2,1,2,1c1.4,0,2.5-1.1,2.5-2.5
							C101,93,100.7,92.3,100.1,91.9z"/>
					</g>
				</g>
				<g>
					<g>
						<path fill="#FFF1B2" d="M100.3,93.2c0-0.8-0.4-1.5-0.9-1.9c0-0.2,0-0.3,0-0.5c0-0.6-0.2-1.1-0.5-1.5c-0.5-0.6-1.2-1-2-1
							c-1.4,0-2.5,1.1-2.5,2.5c0,0,0,0,0,0.1c-0.2-0.1-0.5-0.1-0.7-0.1c-1.4,0-2.5,1.1-2.5,2.5c0,0.9,0.5,1.7,1.3,2.2
							c0.4,0.2,0.8,0.3,1.2,0.3c0.9,0,1.6-0.4,2.1-1.1c0.2,0.3,0.4,0.5,0.7,0.7c0,0,0.1,0.1,0.1,0.1c0.4,0.2,0.8,0.3,1.2,0.3
							C99.2,95.7,100.3,94.5,100.3,93.2z"/>
					</g>
				</g>
			</g>
			<g>
				<g>
					<g>
						<path fill="#FFCD5D" d="M104.9,95.3c0.6,0.2,1.2,0.8,1.3,1.5c0.1,0.4,0.1,0.7,0,1.1c0.4-0.5,0.6-1.2,0.4-1.8
							c-0.2-0.7-0.7-1.2-1.3-1.5C105.2,94.8,105.1,95.1,104.9,95.3z"/>
					</g>
				</g>
				<g>
					<g>
						<path fill="#FFCD5D" d="M101.7,92.2c-0.1,0-0.3,0-0.4,0.1c-0.8,0.2-1.4,0.8-1.6,1.5c0.3-0.4,0.7-0.7,1.2-0.8
							c0.1,0,0.3-0.1,0.4-0.1c0.3-0.6,0.8-1,1.4-1.2c1.2-0.3,2.3,0.4,2.6,1.6c0.1,0.4,0.1,0.7,0,1.1c0.4-0.5,0.6-1.2,0.4-1.8
							c-0.3-1.2-1.4-1.9-2.6-1.6C102.5,91.2,102,91.6,101.7,92.2z"/>
					</g>
				</g>
				<g>
					<g>
						<path fill="#FFF1B2" d="M102.8,91.7c-0.7,0.2-1.2,0.6-1.4,1.2c-0.1,0-0.3,0-0.4,0.1c-0.5,0.1-0.9,0.4-1.2,0.8
							c-0.4,0.5-0.6,1.2-0.4,1.8c0.3,1.2,1.4,1.9,2.6,1.6c0,0,0,0,0,0c0,0.2,0,0.4,0,0.6c0.3,1.2,1.4,1.9,2.6,1.6
							c0.8-0.2,1.4-0.8,1.6-1.5c0.1-0.3,0.1-0.7,0-1.1c-0.2-0.7-0.7-1.3-1.3-1.5c0.2-0.2,0.3-0.5,0.4-0.7c0,0,0-0.1,0-0.1
							c0.1-0.3,0.1-0.7,0-1.1C105.1,92.2,104,91.5,102.8,91.7z"/>
					</g>
				</g>
			</g>
		</g>
	</g>
</g>
<g>
	<g>
		<g>
			<g>
				<g>
					
						<rect x="41.9" y="97.6" transform="matrix(0.9824 -0.1869 0.1869 0.9824 -17.5122 13.3273)" fill="#373C5C" width="40.1" height="3.8"/>
				</g>
			</g>
		</g>
		<g>
			<g>
				<polygon fill="#FFFFFF" points="53.1,99.3 48.4,100.2 52.1,103.3 56.9,102.4 				"/>
			</g>
		</g>
		<g>
			<g>
				<polygon fill="#FFFFFF" points="66,96.8 61.3,97.7 65.1,100.8 69.8,99.9 				"/>
			</g>
		</g>
		<g>
			<g>
				<polygon fill="#FFFFFF" points="77.2,94.7 72.5,95.6 76.2,98.7 80.9,97.8 				"/>
			</g>
		</g>
	</g>
	<g>
		<g>
			<g>
				<g>
					<g>
						<rect x="42.3" y="108.6" fill="#373C5C" width="40.1" height="26.4"/>
					</g>
				</g>
				<g>
					<g>
						<g>
							<rect x="42.3" y="104.8" fill="#373C5C" width="40.1" height="3.8"/>
						</g>
					</g>
				</g>
				<g>
					<g>
						<path fill="#626786" d="M46.8,108.6h-4.5V101h2.1c0.5,0,1,0.3,1.3,0.8l2.4,4.7C48.5,107.5,47.8,108.6,46.8,108.6z"/>
					</g>
				</g>
				<g>
					<g>
						<circle fill="#FFFFFF" cx="44.1" cy="103" r="0.4"/>
					</g>
				</g>
				<g>
					<g>
						<circle fill="#FFFFFF" cx="44.1" cy="107.1" r="0.4"/>
					</g>
				</g>
				<g>
					<g>
						<circle fill="#FFFFFF" cx="47" cy="107.1" r="0.4"/>
					</g>
				</g>
				<g>
					<g>
						<g>
							<polygon fill="#FFFFFF" points="53.7,108.6 48.9,108.6 52,104.8 56.8,104.8 							"/>
						</g>
					</g>
				</g>
				<g>
					<g>
						<g>
							<polygon fill="#FFFFFF" points="66.9,108.6 62.1,108.6 65.2,104.8 70,104.8 							"/>
						</g>
					</g>
				</g>
				<g>
					<g>
						<g>
							<polygon fill="#FFFFFF" points="78.2,108.6 73.4,108.6 76.5,104.8 81.3,104.8 							"/>
						</g>
					</g>
				</g>
			</g>
			<g>
				<g>
					<polygon fill="#A0A8D5" points="82.4,109.9 45.7,109.9 42.2,108.6 82.4,108.6 					"/>
				</g>
			</g>
		</g>
	</g>
</g>
<path fill="#EFB134" d="M7.8,121.7l22.9-20.4c0.9,1,2.5,1.1,3.5,0.2l0.5,0.6c0,0-0.1,0-0.1,0.1c-0.2,0.2-0.3,0.6,0,0.8
	c0.2,0.2,0.6,0.3,0.8,0c0,0,0-0.1,0.1-0.1l0.4,0.4c0,0-0.1,0-0.1,0.1c-0.2,0.2-0.3,0.6-0.1,0.8c0.2,0.2,0.6,0.3,0.8,0
	c0,0,0-0.1,0.1-0.1l0.4,0.4c0,0-0.1,0-0.1,0.1c-0.2,0.2-0.3,0.6,0,0.8c0.2,0.2,0.6,0.3,0.8,0c0,0,0-0.1,0.1-0.1l0.4,0.4
	c0,0-0.1,0-0.1,0.1c-0.2,0.2-0.3,0.6,0,0.8c0.2,0.2,0.6,0.3,0.8,0c0,0,0-0.1,0.1-0.1l0.4,0.4c0,0-0.1,0-0.1,0.1
	c-0.2,0.2-0.3,0.6-0.1,0.8c0.2,0.2,0.6,0.3,0.8,0c0,0,0-0.1,0.1-0.1l0.4,0.4c0,0-0.1,0-0.1,0.1c-0.2,0.2-0.3,0.6,0,0.8
	c0.2,0.2,0.6,0.3,0.8,0c0,0,0-0.1,0.1-0.1l0.4,0.4c0,0-0.1,0-0.1,0.1c-0.2,0.2-0.3,0.6,0,0.8c0.2,0.2,0.6,0.3,0.8,0
	c0,0,0-0.1,0.1-0.1l0.5,0.6c-1,0.9-1.1,2.5-0.2,3.5L19.7,135c-0.9-1-2.5-1.1-3.5-0.2l-0.5-0.6c0.2-0.2,0.3-0.6,0-0.8
	c-0.2-0.2-0.6-0.3-0.8,0l-0.3-0.4c0.2-0.2,0.3-0.6,0.1-0.8c-0.2-0.2-0.6-0.3-0.8,0l-0.3-0.4c0.2-0.2,0.3-0.6,0-0.8
	c-0.2-0.2-0.6-0.3-0.8,0l-0.3-0.4c0.2-0.2,0.3-0.6,0-0.8c-0.2-0.2-0.6-0.3-0.8,0l-0.3-0.4c0.2-0.2,0.3-0.6,0.1-0.8
	c-0.2-0.2-0.6-0.3-0.8,0l-0.3-0.4c0.2-0.2,0.3-0.6,0-0.8c-0.2-0.2-0.6-0.3-0.8,0"/>
<g>
	<g>
		<path fill="#FBC048" d="M37.5,114.9l-17,15.1c-1.1,1-2.8,1-3.8-0.1l-4.2-4.8c-1-1.1-0.8-2.8,0.3-3.8l17-15.1c1.1-1,2.8-1,3.8,0.1
			l4.2,4.8C38.8,112.2,38.6,113.9,37.5,114.9z"/>
	</g>
</g>
<g>
	<g>
		<path fill="#EFB134" d="M21.7,124.9l-3.4-3.8l-0.8,0.7l-0.4-0.4l2-1.8l0.4,0.4l-0.8,0.7l3.4,3.8L21.7,124.9z"/>
	</g>
	<g>
		<path fill="#EFB134" d="M19.9,118.8l3.8,4.3l-0.5,0.4l-3.8-4.3L19.9,118.8z"/>
	</g>
	<g>
		<path fill="#EFB134" d="M23.2,117.7l0.3,0.4l-0.5,0.4l-0.4-0.4c-0.3-0.4-0.7-0.5-1-0.2c-0.3,0.3-0.3,0.7,0,1.1l2,2.3
			c0.3,0.4,0.7,0.5,1,0.2c0.3-0.3,0.3-0.7,0-1.1l-0.5-0.6l0.5-0.4l0.5,0.5c0.6,0.6,0.6,1.3,0,1.9c-0.7,0.6-1.3,0.4-1.9-0.2l-2-2.2
			c-0.6-0.6-0.7-1.3,0-1.9C22,116.9,22.6,117.1,23.2,117.7z"/>
	</g>
	<g>
		<path fill="#EFB134" d="M25.6,118.1l0.1,0.6l1.3,1.4l-0.5,0.4l-3.8-4.3l0.5-0.4L25,118l-0.7-3.1l0.5-0.4l0.7,2.9l3.2,1.3l-0.5,0.4
			L25.6,118.1z"/>
	</g>
	<g>
		<path fill="#EFB134" d="M28.4,114.6l0.4,0.4l-1,0.9l1.4,1.5l1.3-1.1l0.4,0.4l-1.8,1.6l-3.8-4.3l1.8-1.6l0.4,0.4l-1.3,1.1l1.3,1.5
			L28.4,114.6z"/>
	</g>
	<g>
		<path fill="#EFB134" d="M31.8,115.9l-3.4-3.8l-0.8,0.7l-0.4-0.4l2-1.8l0.4,0.4l-0.8,0.7l3.4,3.8L31.8,115.9z"/>
	</g>
</g>
<g>
	<g>
		<polygon fill="#EFB134" points="15.9,124 17.2,124.7 18.3,123.7 17.9,125.1 19.2,125.9 17.8,126 17.5,127.4 16.9,126.1 
			15.4,126.2 16.5,125.3 		"/>
	</g>
</g>
<g>
	<g>
		<polygon fill="#EFB134" points="32.1,109.6 33.3,110.3 34.4,109.4 34.1,110.8 35.3,111.5 33.9,111.6 33.6,113 33,111.7 
			31.6,111.9 32.6,110.9 		"/>
	</g>
</g>
<g>
	<g>
		<g>
			<path fill="#FFCD5D" d="M46.7,120.9c0,0.3,0.3,0.6,0.6,0.6c0,0,0.1,0,0.1,0v0.5c0,0-0.1,0-0.1,0c-0.3,0-0.6,0.3-0.6,0.6
				c0,0.3,0.3,0.6,0.6,0.6c0,0,0.1,0,0.1,0v0.5c0,0-0.1,0-0.1,0c-0.3,0-0.6,0.3-0.6,0.6c0,0.3,0.3,0.6,0.6,0.6c0,0,0.1,0,0.1,0v0.5
				c0,0-0.1,0-0.1,0c-0.3,0-0.6,0.3-0.6,0.6c0,0.3,0.3,0.6,0.6,0.6c0,0,0.1,0,0.1,0v0.5c0,0-0.1,0-0.1,0c-0.3,0-0.6,0.3-0.6,0.6
				c0,0.3,0.3,0.6,0.6,0.6c0,0,0.1,0,0.1,0v0.5c0,0-0.1,0-0.1,0c-0.3,0-0.6,0.3-0.6,0.6c0,0.3,0.3,0.6,0.6,0.6c0,0,0.1,0,0.1,0v0.5
				c0,0-0.1,0-0.1,0c-0.3,0-0.6,0.3-0.6,0.6c0,0.3,0.3,0.6,0.6,0.6c0,0,0.1,0,0.1,0v0.8c-1.4,0-2.5,1.1-2.5,2.5H14.3
				c0-1.4-1.1-2.5-2.5-2.5v-0.8c0.3,0,0.6-0.3,0.6-0.6c0-0.3-0.3-0.6-0.6-0.6v-0.5c0.3,0,0.6-0.3,0.6-0.6c0-0.3-0.3-0.6-0.6-0.6
				v-0.5c0.3,0,0.6-0.3,0.6-0.6c0-0.3-0.3-0.6-0.6-0.6v-0.5c0.3,0,0.6-0.3,0.6-0.6c0-0.3-0.3-0.6-0.6-0.6v-0.5
				c0.3,0,0.6-0.3,0.6-0.6c0-0.3-0.3-0.6-0.6-0.6v-0.5c0.3,0,0.6-0.3,0.6-0.6c0-0.3-0.3-0.6-0.6-0.6v-0.5c0.3,0,0.6-0.3,0.6-0.6
				c0-0.3-0.3-0.6-0.6-0.6v-0.8c1.4,0,2.5-1.1,2.5-2.5h30.6c0,1.4,1.1,2.5,2.5,2.5v0.8c0,0-0.1,0-0.1,0
				C47,120.3,46.7,120.5,46.7,120.9z"/>
		</g>
	</g>
	<g>
		<g>
			<path fill="#F69321" d="M40.9,131.8H18.2c-1.5,0-2.8-1.2-2.8-2.6v-6.4c0-1.5,1.2-2.6,2.8-2.6h22.7c1.5,0,2.8,1.2,2.8,2.6v6.4
				C43.7,130.6,42.5,131.8,40.9,131.8z"/>
		</g>
	</g>
	<g>
		<g>
			<path fill="#373C5C" d="M22.5,128.7v-5.1h-1.1V123h2.7v0.6h-1.1v5.1H22.5z"/>
		</g>
		<g>
			<path fill="#373C5C" d="M25.2,123v5.7h-0.6V123H25.2z"/>
		</g>
		<g>
			<path fill="#373C5C" d="M28.4,124.4v0.5h-0.6v-0.5c0-0.5-0.2-0.8-0.7-0.8c-0.5,0-0.7,0.3-0.7,0.8v3c0,0.5,0.2,0.8,0.7,0.8
				c0.5,0,0.7-0.3,0.7-0.8v-0.7h0.6v0.7c0,0.9-0.4,1.4-1.3,1.4c-0.9,0-1.3-0.6-1.3-1.4v-3c0-0.9,0.4-1.4,1.3-1.4
				C28,122.9,28.4,123.5,28.4,124.4z"/>
		</g>
		<g>
			<path fill="#373C5C" d="M29.9,126.2l-0.3,0.6v1.9H29V123h0.6v2.8l1.5-2.8h0.6l-1.4,2.6l1.5,3.1h-0.7L29.9,126.2z"/>
		</g>
		<g>
			<path fill="#373C5C" d="M34.3,125.5v0.6h-1.4v2h1.7v0.6h-2.3V123h2.3v0.6h-1.7v1.9H34.3z"/>
		</g>
		<g>
			<path fill="#373C5C" d="M36.1,128.7v-5.1H35V123h2.7v0.6h-1.1v5.1H36.1z"/>
		</g>
	</g>
	<g>
		<g>
			<polygon fill="#FFCD5D" points="18.8,124.2 19.3,125.5 20.7,125.5 19.5,126.4 20,127.7 18.8,126.9 17.7,127.7 18.1,126.4 
				16.9,125.5 18.4,125.5 			"/>
		</g>
	</g>
	<g>
		<g>
			<polygon fill="#FFCD5D" points="40.4,124.2 40.9,125.5 42.3,125.5 41.1,126.4 41.6,127.7 40.4,126.9 39.3,127.7 39.7,126.4 
				38.5,125.5 40,125.5 			"/>
		</g>
	</g>
</g>
<g>
	<g>
		<g>
			<g>
				<path fill="#C5CDE8" d="M151.2,134.3H145c-2.1,0-3.9-1.5-4.2-3.5l-0.8-4.5c-0.3-1.5,0.9-2.8,2.3-2.8h15.1l-1.8,7.5
					C155,133,153.2,134.3,151.2,134.3z"/>
			</g>
		</g>
		<g>
			<g>
				<path fill="#C5CDE8" d="M167,134.3h6.3c2.1,0,3.9-1.5,4.2-3.5l0.8-4.5c0.3-1.5-0.9-2.8-2.3-2.8H161l1.8,7.5
					C163.3,133,165.1,134.3,167,134.3z"/>
			</g>
		</g>
		<g>
			<g>
				<path fill="#C5CDE8" d="M162.4,127.1c-1.8-1.8-4.7-1.8-6.5,0c0-1.2,0-2.4,0-3.6c2.2,0,4.3,0,6.5,0
					C162.4,124.7,162.4,125.9,162.4,127.1z"/>
			</g>
		</g>
		<g>
			<g>
				<path fill="#E1E4F3" d="M151.2,135H145c-2.1,0-3.9-1.5-4.2-3.5l-0.8-4.5c-0.3-1.5,0.9-2.8,2.3-2.8h15.1l-1.8,7.5
					C155,133.6,153.2,135,151.2,135z"/>
			</g>
		</g>
		<g>
			<g>
				<path fill="#E1E4F3" d="M167,135h6.3c2.1,0,3.9-1.5,4.2-3.5l0.8-4.5c0.3-1.5-0.9-2.8-2.3-2.8H161l1.8,7.5
					C163.3,133.6,165.1,135,167,135z"/>
			</g>
		</g>
		<g>
			<g>
				<path fill="#E1E4F3" d="M162.4,127.8c-1.8-1.8-4.7-1.8-6.5,0c0-1.2,0-2.4,0-3.6c2.2,0,4.3,0,6.5,0
					C162.4,125.4,162.4,126.6,162.4,127.8z"/>
			</g>
		</g>
		<g>
			<g>
				<g>
					<g>
						<path fill="#F15F2B" d="M146.1,133.7c-2.1,0-3.9-1.5-4.3-3.6l-0.6-3.4c-0.1-0.4,0.1-0.7,0.2-0.9c0.1-0.1,0.4-0.4,0.8-0.4h11.6
							c0.9,0,1.6,0.9,1.4,1.7l-1,4.2c-0.3,1.3-1.5,2.3-2.9,2.3H146.1z"/>
					</g>
				</g>
				<g>
					<g>
						<path fill="#5CCCF5" d="M167,133.7c-1.4,0-2.6-0.9-2.9-2.3l-1-4.2c-0.2-0.9,0.5-1.7,1.4-1.7h11.6c0.4,0,0.7,0.2,0.8,0.4
							c0.1,0.1,0.3,0.4,0.2,0.9l-0.8,4.5c-0.3,1.4-1.5,2.4-2.9,2.4H167z"/>
					</g>
				</g>
			</g>
		</g>
	</g>
	<g>
		<g>
			<polygon fill="#F47A55" points="150.1,128.1 143.8,128.1 143.2,126.8 150.1,126.8 			"/>
		</g>
	</g>
	<g>
		<g>
			<path fill="#7ED2EF" d="M171,128.3h-6.3v-1c0-0.2,0.1-0.3,0.3-0.3h6V128.3z"/>
		</g>
	</g>
</g>
<g id="Layer_1_1_">
</g>
<g id="Layer_2">
</g>
</svg>
