<?xml version="1.0" encoding="utf-8"?>
<!-- Generator: Adobe Illustrator 18.0.0, SVG Export Plug-In . SVG Version: 6.00 Build 0)  -->
<!DOCTYPE svg PUBLIC "-//W3C//DTD SVG 1.1//EN" "http://www.w3.org/Graphics/SVG/1.1/DTD/svg11.dtd">
<svg version="1.1" id="Layer_1" xmlns="http://www.w3.org/2000/svg" xmlns:xlink="http://www.w3.org/1999/xlink" x="0px" y="0px"
	 viewBox="0 0 500 500" enable-background="new 0 0 500 500" xml:space="preserve">
<g id="Layer_1_1_">
</g>
<g id="Layer_2">
</g>
<g id="Layer_3">
	<g>
		<g>
			<g>
				
					<linearGradient id="SVGID_1_" gradientUnits="userSpaceOnUse" x1="325.4875" y1="528.769" x2="182.7323" y2="424.8061" gradientTransform="matrix(0.7637 0 0 -0.7637 0 577.631)">
					<stop  offset="0" style="stop-color:#D89013"/>
					<stop  offset="1" style="stop-color:#FFEB36"/>
				</linearGradient>
				<path fill="url(#SVGID_1_)" d="M436.1,180.9l-216-125.1l-59.5-34.3c-22.6-13.2-49.7-13.2-72.4,0S52.1,58,52.1,84.4v318.5
					c0,26.4,13.6,49.7,36.2,62.9c11.3,6.4,23.7,9.8,36.2,9.8s24.9-3.4,36.2-9.8l47.5-27.5l65.6-38.1l162.4-93.8
					c22.6-13.2,36.2-36.6,36.2-62.9C472.3,217.4,458.7,193.7,436.1,180.9z M407.1,255.9L233.3,356.1l-23,13.2l-78.8,45.6
					c-6.4,3.8-12.1,1.1-14.3,0c-2.3-1.1-7.2-4.9-7.2-12.4V84.4c0-7.5,4.9-11.3,7.2-12.4c1.1-0.8,3.8-1.9,7.2-1.9
					c2.3,0,4.5,0.4,7.2,1.9l86.7,50.1l189.2,109.3c6.4,3.8,7.2,9.8,7.2,12.4C414.2,246.1,413.5,252.1,407.1,255.9z"/>
			</g>
			
				<linearGradient id="SVGID_2_" gradientUnits="userSpaceOnUse" x1="67.6854" y1="340.8904" x2="358.3479" y2="340.8904" gradientTransform="matrix(0.7637 0 0 -0.7637 0 577.631)">
				<stop  offset="0" style="stop-color:#F4BE00"/>
				<stop  offset="1" style="stop-color:#C97E19"/>
			</linearGradient>
			<path fill="url(#SVGID_2_)" d="M273.7,400.2l-113.4,65.6c-11.3,6.4-23.7,9.8-36.2,9.8s-24.9-3.4-36.2-9.8
				c-22.6-13.2-36.2-36.6-36.2-62.9V159l58,75v168.8c0,7.5,4.9,11.3,7.2,12.4c2.3,1.1,7.9,3.8,14.3,0l102.1-58.8L273.7,400.2z"/>
			
				<linearGradient id="SVGID_3_" gradientUnits="userSpaceOnUse" x1="445.5152" y1="588.2185" x2="348.6787" y2="157.3674" gradientTransform="matrix(0.7637 0 0 -0.7637 0 577.631)">
				<stop  offset="0" style="stop-color:#D88E13"/>
				<stop  offset="1" style="stop-color:#C95F19"/>
			</linearGradient>
			<path fill="url(#SVGID_3_)" d="M472.3,243.4c0,26.4-13.6,49.7-36.2,62.9l-162.4,93.8l-65.6,38.1l20-78.8l5.3-3l173.7-100.6
				c6.4-3.8,7.2-9.8,7.2-12.4c0-2.6-0.8-8.7-7.2-12.4L217.9,121.7l-18.5-77.6l236.7,136.8C458.7,193.7,472.3,217.4,472.3,243.4z"/>
		</g>
	</g>
</g>
</svg>
