<?xml version="1.0" encoding="utf-8"?>
<!-- Generator: Adobe Illustrator 18.0.0, SVG Export Plug-In . SVG Version: 6.00 Build 0)  -->
<!DOCTYPE svg PUBLIC "-//W3C//DTD SVG 1.1//EN" "http://www.w3.org/Graphics/SVG/1.1/DTD/svg11.dtd">
<svg version="1.1" xmlns="http://www.w3.org/2000/svg" xmlns:xlink="http://www.w3.org/1999/xlink" x="0px" y="0px"
	 viewBox="0 0 654.7 142" enable-background="new 0 0 654.7 142" xml:space="preserve">
<g id="Layer_1">
</g>
<g id="Layer_2">
</g>
<g id="Layer_3">
	<g>
		<g>
			<g>
				<linearGradient id="SVGID_1_" gradientUnits="userSpaceOnUse" x1="66.2256" y1="53.2068" x2="37.2976" y2="74.2739">
					<stop  offset="0" style="stop-color:#D89013"/>
					<stop  offset="1" style="stop-color:#FFEB36"/>
				</linearGradient>
				<path fill="url(#SVGID_1_)" d="M116,55.1L58.7,21.9l-15.8-9.1c-6-3.5-13.2-3.5-19.2,0c-6,3.5-9.6,9.7-9.6,16.7V114
					c0,7,3.6,13.2,9.6,16.7c3,1.7,6.3,2.6,9.6,2.6c3.3,0,6.6-0.9,9.6-2.6l12.6-7.3l17.4-10.1L116,88.4c6-3.5,9.6-9.7,9.6-16.7
					C125.6,64.8,122,58.5,116,55.1z M108.3,75l-46.1,26.6l-6.1,3.5l-20.9,12.1c-1.7,1-3.2,0.3-3.8,0c-0.6-0.3-1.9-1.3-1.9-3.3V29.5
					c0-2,1.3-3,1.9-3.3c0.3-0.2,1-0.5,1.9-0.5c0.6,0,1.2,0.1,1.9,0.5l23,13.3l50.2,29c1.7,1,1.9,2.6,1.9,3.3
					C110.2,72.4,110,74,108.3,75z"/>
			</g>
			<linearGradient id="SVGID_2_" gradientUnits="userSpaceOnUse" x1="14" y1="91.2783" x2="72.9122" y2="91.2783">
				<stop  offset="0" style="stop-color:#F4BE00"/>
				<stop  offset="1" style="stop-color:#C97E19"/>
			</linearGradient>
			<path fill="url(#SVGID_2_)" d="M72.9,113.3l-30.1,17.4c-3,1.7-6.3,2.6-9.6,2.6c-3.3,0-6.6-0.9-9.6-2.6c-6-3.5-9.6-9.7-9.6-16.7
				V49.3l15.4,19.9V114c0,2,1.3,3,1.9,3.3c0.6,0.3,2.1,1,3.8,0l27.1-15.6L72.9,113.3z"/>
			<linearGradient id="SVGID_3_" gradientUnits="userSpaceOnUse" x1="90.6104" y1="41.1918" x2="70.9874" y2="128.4997">
				<stop  offset="0" style="stop-color:#D88E13"/>
				<stop  offset="1" style="stop-color:#C95F19"/>
			</linearGradient>
			<path fill="url(#SVGID_3_)" d="M125.6,71.7c0,7-3.6,13.2-9.6,16.7l-43.1,24.9l-17.4,10.1l5.3-20.9l1.4-0.8L108.3,75
				c1.7-1,1.9-2.6,1.9-3.3c0-0.7-0.2-2.3-1.9-3.3l-50.2-29l-4.9-20.6L116,55.1C122,58.5,125.6,64.8,125.6,71.7z"/>
		</g>
	</g>
	<g>
		<path d="M163.1,100.5c-7.5-7.6-11.2-16.7-11.2-27.5c0-10.7,3.6-19.9,10.7-27.5c7.1-7.6,15.7-11.4,25.7-11.4
			c9.8,0,18.2,3.8,25.2,11.3c7,7.5,10.5,16.5,10.5,26.9l-0.2,3.3h-65.7c0.7,8.6,4.1,15.9,10.2,21.8c6.1,5.9,13.3,8.8,21.8,8.8
			c9.9,0,18.1-3.7,24.7-11.1l4.1,3.9c-8,8.5-17.6,12.8-28.7,12.8C179.5,111.9,170.5,108.1,163.1,100.5z M158.1,70.1h59.4
			c-0.6-8.4-3.7-15.6-9.4-21.5c-5.6-5.9-12.3-8.8-20-8.8c-7.8,0-14.6,2.9-20.4,8.8C162,54.5,158.8,61.6,158.1,70.1z"/>
		<path d="M241.8,110.3V7.7h5.9v102.7H241.8z"/>
		<path d="M275.9,133.3v-5.6c4.5,0,8.1-1,10.9-2.9c2.8-1.9,5.7-6.2,8.7-12.7l1.7-3.8L261,35.7h6.7l26.7,54.8l5.6,11.5l5.3-11.7
			l24.8-54.6h6.6l-35.9,78.6c-2,4.4-4,7.9-6,10.5c-2,2.7-4.2,4.5-6.5,5.7c-2.3,1.1-4.3,1.9-6,2.2
			C280.6,133.1,278.5,133.3,275.9,133.3z"/>
		<path d="M344.5,99.4l3.9-4.4c6.1,7.5,14.2,11.2,24.2,11.2c7,0,12.6-1.5,16.9-4.6c4.3-3.1,6.4-6.8,6.4-11.3c0-2.4-0.6-4.5-1.7-6.3
			c-1.1-1.8-2.9-3.3-5.3-4.5c-2.4-1.2-4.6-2.1-6.7-2.6c-2.1-0.6-4.8-1.3-8.2-2.2c-3.7-1-6.4-1.7-8-2.2c-1.6-0.4-3.9-1.3-6.9-2.4
			c-3-1.2-5.1-2.4-6.3-3.6c-1.2-1.2-2.4-2.9-3.6-5c-1.1-2.1-1.7-4.5-1.7-7.3c0-5.8,2.6-10.6,7.7-14.4c5.1-3.7,10.9-5.6,17.4-5.6
			c9.3,0,17.5,3,24.7,8.9l-3.7,4.2c-6-5-12.8-7.5-20.4-7.5c-5.3,0-9.9,1.4-13.7,4.2c-3.8,2.8-5.7,6.2-5.7,10.1c0,1.9,0.4,3.5,1.3,5
			c0.9,1.5,1.9,2.6,3,3.5c1.1,0.9,2.8,1.8,5.1,2.7c2.3,0.9,4.2,1.5,5.5,1.8c1.3,0.3,3.5,0.9,6.5,1.7c3.4,0.9,6.1,1.6,8.1,2.1
			c2,0.5,4.3,1.4,7,2.5c2.7,1.2,4.8,2.5,6.2,3.8c1.5,1.4,2.7,3.1,3.8,5.3c1.1,2.2,1.6,4.7,1.6,7.5c0,6.8-2.8,12.1-8.5,16
			c-5.7,3.9-12.5,5.9-20.5,5.9C361.4,111.9,351.9,107.7,344.5,99.4z"/>
		<path d="M419.6,18.4c-0.9-0.9-1.4-2.1-1.4-3.4c0-1.4,0.5-2.5,1.4-3.4c0.9-0.9,2.1-1.4,3.4-1.4c1.4,0,2.5,0.5,3.4,1.4
			c0.9,0.9,1.4,2.1,1.4,3.4c0,1.4-0.5,2.5-1.4,3.4c-0.9,0.9-2.1,1.4-3.4,1.4C421.6,19.8,420.5,19.4,419.6,18.4z M419.9,110.3V35.7
			h5.9v74.6H419.9z"/>
		<path d="M446.1,84.4V35.7h5.9v47c0,15.7,7.6,23.6,22.9,23.6c6.8,0,12.5-2.4,17.3-7.3c4.8-4.8,7.2-10.9,7.2-18.3V35.7h5.9v74.6
			h-5.9V97.7c-5.2,9.5-13.6,14.2-25.3,14.2c-8.5,0-15.3-2.4-20.4-7.3C448.6,99.8,446.1,93,446.1,84.4z"/>
		<path d="M527.2,110.3V35.7h5.9v13.1c5.4-9.8,13.9-14.7,25.4-14.7c12.7,0,20.9,5.2,24.7,15.6c2.8-5.2,6.6-9.1,11.5-11.7
			c4.8-2.6,10.1-3.9,15.8-3.9c8.4,0,15,2.4,19.6,7.2c4.6,4.8,6.9,11.5,6.9,20.3v48.7h-5.9v-47c0-7.7-1.7-13.5-5-17.6
			c-3.3-4-8.8-6-16.4-6c-6.7,0-12.4,2.2-17.3,6.7c-4.9,4.5-7.3,10.5-7.3,17.9v45.9h-5.9v-47c0-7.7-1.7-13.5-5-17.6
			c-3.3-4-8.8-6-16.4-6c-6.5,0-12.2,2.4-17.2,7.3c-5,4.9-7.5,11-7.5,18.3v44.9H527.2z"/>
	</g>
</g>
</svg>
