<?xml version="1.0" encoding="utf-8"?>
<!-- Generator: Adobe Illustrator 18.0.0, SVG Export Plug-In . SVG Version: 6.00 Build 0)  -->
<!DOCTYPE svg PUBLIC "-//W3C//DTD SVG 1.1//EN" "http://www.w3.org/Graphics/SVG/1.1/DTD/svg11.dtd">
<svg version="1.1" id="Layer_1" xmlns="http://www.w3.org/2000/svg" xmlns:xlink="http://www.w3.org/1999/xlink" x="0px" y="0px"
	 viewBox="0 136 1024 230" enable-background="new 0 136 1024 230" xml:space="preserve">
<g id="Layer_1_1_">
</g>
<g id="Layer_2">
</g>
<g id="Layer_3">
	<g>
		<g>
			<g>
				
					<linearGradient id="SVGID_1_" gradientUnits="userSpaceOnUse" x1="66.2412" y1="446.7718" x2="37.3132" y2="425.7047" gradientTransform="matrix(1.5641 0 0 -1.5641 0 920.9882)">
					<stop  offset="0" style="stop-color:#D89013"/>
					<stop  offset="1" style="stop-color:#FFEB36"/>
				</linearGradient>
				<path fill="url(#SVGID_1_)" d="M181.4,225.1l-89.6-51.9L67.1,159c-9.4-5.5-20.6-5.5-30,0c-9.4,5.5-15,15.2-15,26.1v132.2
					c0,10.9,5.6,20.6,15,26.1c4.7,2.7,9.9,4.1,15,4.1c5.2,0,10.3-1.4,15-4.1L86.8,332l27.2-15.8l67.4-38.9c9.4-5.5,15-15.2,15-26.1
					C196.4,240.3,190.8,230.4,181.4,225.1z M169.4,256.3l-72.1,41.6l-9.5,5.5l-32.7,18.9c-2.7,1.6-5,0.5-5.9,0c-0.9-0.5-3-2-3-5.2
					v-132c0-3.1,2-4.7,3-5.2c0.5-0.3,1.6-0.8,3-0.8c0.9,0,1.9,0.2,3,0.8l36,20.8l78.5,45.4c2.7,1.6,3,4.1,3,5.2
					C172.4,252.2,172,254.7,169.4,256.3z"/>
			</g>
			
				<linearGradient id="SVGID_2_" gradientUnits="userSpaceOnUse" x1="14" y1="408.7" x2="72.9" y2="408.7" gradientTransform="matrix(1.5641 0 0 -1.5641 0 920.9882)">
				<stop  offset="0" style="stop-color:#F4BE00"/>
				<stop  offset="1" style="stop-color:#C97E19"/>
			</linearGradient>
			<path fill="url(#SVGID_2_)" d="M114,316.2l-47.1,27.2c-4.7,2.7-9.9,4.1-15,4.1s-10.3-1.4-15-4.1c-9.4-5.5-15-15.2-15-26.1V216.1
				L46,247.2v70.1c0,3.1,2,4.7,3,5.2s3.3,1.6,5.9,0L97.3,298L114,316.2z"/>
			
				<linearGradient id="SVGID_3_" gradientUnits="userSpaceOnUse" x1="90.5636" y1="458.8187" x2="70.9406" y2="371.5108" gradientTransform="matrix(1.5641 0 0 -1.5641 0 920.9882)">
				<stop  offset="0" style="stop-color:#D88E13"/>
				<stop  offset="1" style="stop-color:#C95F19"/>
			</linearGradient>
			<path fill="url(#SVGID_3_)" d="M196.4,251.1c0,10.9-5.6,20.6-15,26.1L114,316.2L86.8,332l8.3-32.7l2.2-1.3l72.1-41.8
				c2.7-1.6,3-4.1,3-5.2c0-1.1-0.3-3.6-3-5.2l-78.5-45.4l-7.7-32.2l98.2,56.8C190.8,230.4,196.4,240.3,196.4,251.1z"/>
		</g>
	</g>
	<g>
		<path fill="#FFFFFF" d="M255.1,296.1c-11.7-11.9-17.5-26.1-17.5-43c0-16.7,5.6-31.1,16.7-43c11.1-11.9,24.6-17.8,40.2-17.8
			c15.3,0,28.5,5.9,39.4,17.7c10.9,11.7,16.4,25.8,16.4,42.1l-0.3,5.2H247.3c1.1,13.5,6.4,24.9,16,34.1c9.5,9.2,20.8,13.8,34.1,13.8
			c15.5,0,28.3-5.8,38.6-17.4l6.4,6.1c-12.5,13.3-27.5,20-44.9,20C280.8,314,266.7,308,255.1,296.1z M247.3,248.6h92.9
			c-0.9-13.1-5.8-24.4-14.7-33.6c-8.8-9.2-19.2-13.8-31.3-13.8c-12.2,0-22.8,4.5-31.9,13.8C253.4,224.2,248.4,235.3,247.3,248.6z"/>
		<path fill="#FFFFFF" d="M378.2,311.5V151h9.2v160.6h-9.2V311.5z"/>
		<path fill="#FFFFFF" d="M431.5,347.4v-8.8c7,0,12.7-1.6,17-4.5s8.9-9.7,13.6-19.9l2.7-5.9l-56.6-113.6h10.5l41.8,85.7l8.8,18
			l8.3-18.3l38.8-85.4h10.3l-56.2,122.9c-3.1,6.9-6.3,12.4-9.4,16.4c-3.1,4.2-6.6,7-10.2,8.9c-3.6,1.7-6.7,3-9.4,3.4
			C438.9,347.1,435.6,347.4,431.5,347.4z"/>
		<path fill="#FFFFFF" d="M538.8,294.4l6.1-6.9c9.5,11.7,22.2,17.5,37.9,17.5c10.9,0,19.7-2.3,26.4-7.2c6.7-4.8,10-10.6,10-17.7
			c0-3.8-0.9-7-2.7-9.9c-1.7-2.8-4.5-5.2-8.3-7c-3.8-1.9-7.2-3.3-10.5-4.1c-3.3-0.9-7.5-2-12.8-3.4c-5.8-1.6-10-2.7-12.5-3.4
			c-2.5-0.6-6.1-2-10.8-3.8c-4.7-1.9-8-3.8-9.9-5.6c-1.9-1.9-3.8-4.5-5.6-7.8c-1.7-3.3-2.7-7-2.7-11.4c0-9.1,4.1-16.6,12-22.5
			c8-5.8,17-8.8,27.2-8.8c14.5,0,27.4,4.7,38.6,13.9l-5.8,6.6c-9.4-7.8-20-11.7-31.9-11.7c-8.3,0-15.5,2.2-21.4,6.6
			s-8.9,9.7-8.9,15.8c0,3,0.6,5.5,2,7.8c1.4,2.3,3,4.1,4.7,5.5c1.7,1.4,4.4,2.8,8,4.2c3.6,1.4,6.6,2.3,8.6,2.8
			c2,0.5,5.5,1.4,10.2,2.7c5.3,1.4,9.5,2.5,12.7,3.3c3.1,0.8,6.7,2.2,10.9,3.9c4.2,1.9,7.5,3.9,9.7,5.9c2.3,2.2,4.2,4.8,5.9,8.3
			c1.7,3.4,2.5,7.4,2.5,11.7c0,10.6-4.4,18.9-13.3,25c-8.9,6.1-19.6,9.2-32.1,9.2C565.3,314,550.4,307.4,538.8,294.4z"/>
		<path fill="#FFFFFF" d="M656.3,167.7c-1.4-1.4-2.2-3.3-2.2-5.3c0-2.2,0.8-3.9,2.2-5.3c1.4-1.4,3.3-2.2,5.3-2.2
			c2.2,0,3.9,0.8,5.3,2.2c1.4,1.4,2.2,3.3,2.2,5.3c0,2.2-0.8,3.9-2.2,5.3s-3.3,2.2-5.3,2.2C659.4,169.9,657.7,169.3,656.3,167.7z
			 M656.8,311.5V194.8h9.2v116.7H656.8z"/>
		<path fill="#FFFFFF" d="M697.7,271v-76.2h9.2v73.5c0,24.6,11.9,36.9,35.8,36.9c10.6,0,19.6-3.8,27.1-11.4
			c7.5-7.5,11.3-17,11.3-28.6v-70.4h9.2v116.7h-9.2v-19.7c-8.1,14.9-21.3,22.2-39.6,22.2c-13.3,0-23.9-3.8-31.9-11.4
			C701.6,295,697.7,284.4,697.7,271z"/>
		<path fill="#FFFFFF" d="M824.6,311.5V194.8h9.2v20.5c8.4-15.3,21.7-23,39.7-23c19.9,0,32.7,8.1,38.6,24.4
			c4.4-8.1,10.3-14.2,18-18.3c7.5-4.1,15.8-6.1,24.7-6.1c13.1,0,23.5,3.8,30.7,11.3c7.2,7.5,10.8,18,10.8,31.8v76.2h-9.2V238
			c0-12-2.7-21.1-7.8-27.5c-5.2-6.3-13.8-9.4-25.7-9.4c-10.5,0-19.4,3.4-27.1,10.5c-7.7,7-11.4,16.4-11.4,28v71.8h-9.2v-73.5
			c0-12-2.7-21.1-7.8-27.5c-5.2-6.3-13.8-9.4-25.7-9.4c-10.2,0-19.1,3.8-26.9,11.4s-11.7,17.2-11.7,28.6v70.2h-9.2V311.5z"/>
	</g>
</g>
</svg>
