<?xml version="1.0" encoding="utf-8"?>
<!-- Generator: Adobe Illustrator 18.0.0, SVG Export Plug-In . SVG Version: 6.00 Build 0)  -->
<!DOCTYPE svg PUBLIC "-//W3C//DTD SVG 1.1//EN" "http://www.w3.org/Graphics/SVG/1.1/DTD/svg11.dtd">
<svg version="1.1" id="Layer_1" xmlns="http://www.w3.org/2000/svg" xmlns:xlink="http://www.w3.org/1999/xlink" x="0px" y="0px"
	 viewBox="0 0 128.8 203.2" enable-background="new 0 0 128.8 203.2" xml:space="preserve">
<g display="none">
	<g display="inline">
		<g>
			<g>
				
					<linearGradient id="SVGID_1_" gradientUnits="userSpaceOnUse" x1="216.2702" y1="168.6399" x2="325.1648" y2="168.6399" gradientTransform="matrix(1 0 0 1 -205.3628 0)">
					<stop  offset="0.1301" style="stop-color:#15181B"/>
					<stop  offset="0.1368" style="stop-color:#242D3A"/>
					<stop  offset="0.4693" style="stop-color:#242D3A"/>
					<stop  offset="0.4756" style="stop-color:#2E3D49"/>
					<stop  offset="0.8756" style="stop-color:#2E3D49"/>
					<stop  offset="0.8788" style="stop-color:#242D3A"/>
				</linearGradient>
				<path fill="url(#SVGID_1_)" d="M119.8,143v20.5c0,1.1-0.1,2.3-0.4,3.4c-2.9,15.4-26.1,27.4-54,27.4c-5.9,0-11.6-0.5-16.9-1.5
					c-19.8-3.6-34.7-13.5-37.1-25.7c-0.2-1.1-0.4-2.3-0.4-3.5l-0.1-10.8v-9.7h13.4l24.2-0.1l57.9-0.1H119.8z"/>
			</g>
			<path fill="#45576C" d="M119.8,143c0,2.7-0.6,5.4-1.9,7.9c-3.3,7.4-11.6,13.8-22.6,17.9c-8.6,3.2-18.8,5.1-29.9,5.1
				c-5.9,0-11.6-0.5-16.9-1.5c-4.6-0.8-9-2.1-12.9-3.6c-11.1-4.1-19.3-10.4-22.7-17.8c-1.2-2.5-1.9-5.1-1.9-7.8
				c0-13.7,15.7-25.2,37.5-29.3c5.3-1,11-1.5,16.9-1.5C95.4,112.3,119.8,126,119.8,143z"/>
		</g>
		<g>
			<g>
				
					<linearGradient id="SVGID_2_" gradientUnits="userSpaceOnUse" x1="218.9537" y1="140.9821" x2="322.4811" y2="140.9821" gradientTransform="matrix(1 0 0 1 -205.3628 0)">
					<stop  offset="0.1348" style="stop-color:#EE9C21"/>
					<stop  offset="0.1415" style="stop-color:#FDB813"/>
					<stop  offset="0.474" style="stop-color:#FDB813"/>
					<stop  offset="0.4803" style="stop-color:#FAD022"/>
					<stop  offset="0.8756" style="stop-color:#FAD022"/>
					<stop  offset="0.8835" style="stop-color:#FDB813"/>
				</linearGradient>
				<path fill="url(#SVGID_2_)" d="M117.1,114.5v23.8c0,1.1-0.1,2.2-0.4,3.3c-2.7,14.7-24.8,26-51.4,26c-5.6,0-11.1-0.5-16.1-1.4
					c-18.9-3.5-32.9-12.9-35.3-24.4c-0.2-1.1-0.4-2.2-0.4-3.3l-0.1-14.6v-9.2h12.7l23-0.1l55.1-0.1H117.1z"/>
			</g>
			<path fill="#37487C" d="M117.1,114.5c0,2.6-0.6,5.1-1.8,7.5c-3.2,7.1-11,13.1-21.5,17c-8.2,3-17.9,4.8-28.4,4.8
				c-5.6,0-11.1-0.5-16.1-1.4c-4.4-0.8-8.5-2-12.3-3.4C26.5,135,18.6,129,15.4,122c-1.2-2.4-1.8-4.8-1.8-7.4c0-13,15-24,35.7-27.9
				c5.1-0.9,10.5-1.4,16-1.4C93.9,85.3,117.1,98.3,117.1,114.5z"/>
		</g>
		<g>
			<g>
				
					<linearGradient id="SVGID_3_" gradientUnits="userSpaceOnUse" x1="216.2702" y1="134.2073" x2="325.1648" y2="134.2073" gradientTransform="matrix(1 0 0 1 -205.3628 0)">
					<stop  offset="0.1301" style="stop-color:#15181B"/>
					<stop  offset="0.1368" style="stop-color:#242D3A"/>
					<stop  offset="0.4693" style="stop-color:#242D3A"/>
					<stop  offset="0.4756" style="stop-color:#2E3D49"/>
					<stop  offset="0.8756" style="stop-color:#2E3D49"/>
					<stop  offset="0.8788" style="stop-color:#242D3A"/>
				</linearGradient>
				<path fill="url(#SVGID_3_)" d="M119.8,108.6v20.5c0,1.1-0.1,2.3-0.4,3.4c-2.9,15.4-26.1,27.4-54,27.4c-5.9,0-11.6-0.5-16.9-1.5
					c-19.8-3.6-34.7-13.5-37.1-25.7c-0.2-1.1-0.4-2.3-0.4-3.5l-0.1-10.8v-9.6h13.4l24.2-0.1l57.9-0.1H119.8z"/>
			</g>
			<path fill="#45576C" d="M119.8,108.6c0,2.7-0.6,5.4-1.9,7.9c-3.3,7.4-11.6,13.8-22.6,17.9c-8.6,3.2-18.8,5.1-29.9,5.1
				c-5.9,0-11.6-0.5-16.9-1.5c-4.6-0.8-9-2.1-12.9-3.6c-11.1-4.1-19.3-10.4-22.7-17.8c-1.2-2.5-1.9-5.1-1.9-7.8
				c0-13.7,15.7-25.2,37.5-29.3c5.3-1,11-1.5,16.9-1.5C95.4,77.9,119.8,91.6,119.8,108.6z"/>
		</g>
		<g>
			<g>
				
					<linearGradient id="SVGID_4_" gradientUnits="userSpaceOnUse" x1="218.9537" y1="106.3186" x2="322.4811" y2="106.3186" gradientTransform="matrix(1 0 0 1 -205.3628 0)">
					<stop  offset="0.1777" style="stop-color:#045DA1"/>
					<stop  offset="0.1844" style="stop-color:#4375BA"/>
					<stop  offset="0.474" style="stop-color:#4375BA"/>
					<stop  offset="0.4756" style="stop-color:#669DD4"/>
					<stop  offset="0.8089" style="stop-color:#669DD4"/>
					<stop  offset="0.8169" style="stop-color:#4375BA"/>
				</linearGradient>
				<path fill="url(#SVGID_4_)" d="M117.1,79.8v23.8c0,1.1-0.1,2.2-0.4,3.3c-2.7,14.7-24.8,26-51.4,26c-5.6,0-11.1-0.5-16.1-1.4
					C30.4,127.9,16.3,118.5,14,107c-0.2-1.1-0.4-2.2-0.4-3.3l-0.1-14.6v-9.2h12.7l23-0.1l55.1-0.1H117.1z"/>
			</g>
			<path fill="#37487C" d="M117.1,79.8c0,2.6-0.6,5.1-1.8,7.5c-3.2,7.1-11,13.1-21.5,17c-8.2,3-17.9,4.8-28.4,4.8
				c-5.6,0-11.1-0.5-16.1-1.4c-4.4-0.8-8.5-2-12.3-3.4c-10.5-3.9-18.4-9.9-21.6-16.9c-1.2-2.4-1.8-4.8-1.8-7.4c0-13,15-24,35.7-27.9
				c5.1-0.9,10.5-1.4,16-1.4C93.9,50.6,117.1,63.7,117.1,79.8z"/>
		</g>
		<g>
			<g>
				
					<linearGradient id="SVGID_5_" gradientUnits="userSpaceOnUse" x1="216.2702" y1="99.5438" x2="325.1648" y2="99.5438" gradientTransform="matrix(1 0 0 1 -205.3628 0)">
					<stop  offset="0.1301" style="stop-color:#15181B"/>
					<stop  offset="0.1368" style="stop-color:#242D3A"/>
					<stop  offset="0.4693" style="stop-color:#242D3A"/>
					<stop  offset="0.4756" style="stop-color:#2E3D49"/>
					<stop  offset="0.8756" style="stop-color:#2E3D49"/>
					<stop  offset="0.8788" style="stop-color:#242D3A"/>
				</linearGradient>
				<path fill="url(#SVGID_5_)" d="M119.8,73.9v20.5c0,1.1-0.1,2.3-0.4,3.4c-2.9,15.4-26.1,27.4-54,27.4c-5.9,0-11.6-0.5-16.9-1.5
					C28.6,120,13.8,110.1,11.4,98c-0.2-1.1-0.4-2.3-0.4-3.5l-0.1-10.8V74h13.4L48.4,74l57.9-0.1H119.8z"/>
			</g>
			<path fill="#45576C" d="M119.8,73.9c0,2.7-0.6,5.4-1.9,7.9c-3.3,7.4-11.6,13.8-22.6,17.9c-8.6,3.2-18.8,5.1-29.9,5.1
				c-5.9,0-11.6-0.5-16.9-1.5c-4.6-0.8-9-2.1-12.9-3.6c-11.1-4.1-19.3-10.4-22.7-17.8c-1.2-2.5-1.9-5.1-1.9-7.8
				c0-13.7,15.7-25.2,37.5-29.3c5.3-1,11-1.5,16.9-1.5C95.4,43.2,119.8,57,119.8,73.9z"/>
		</g>
		<g>
			<g>
				
					<linearGradient id="SVGID_6_" gradientUnits="userSpaceOnUse" x1="218.9537" y1="72.0062" x2="322.4811" y2="72.0062" gradientTransform="matrix(1 0 0 1 -205.3628 0)">
					<stop  offset="0.1777" style="stop-color:#045DA1"/>
					<stop  offset="0.1844" style="stop-color:#4375BA"/>
					<stop  offset="0.474" style="stop-color:#4375BA"/>
					<stop  offset="0.4756" style="stop-color:#669DD4"/>
					<stop  offset="0.8089" style="stop-color:#669DD4"/>
					<stop  offset="0.8169" style="stop-color:#4375BA"/>
				</linearGradient>
				<path fill="url(#SVGID_6_)" d="M117.1,45.5v23.8c0,1.1-0.1,2.2-0.4,3.3c-2.7,14.7-24.8,26-51.4,26c-5.6,0-11.1-0.5-16.1-1.4
					C30.4,93.6,16.3,84.2,14,72.7c-0.2-1.1-0.4-2.2-0.4-3.3l-0.1-14.6v-9.2h12.7l23-0.1l55.1-0.1H117.1z"/>
			</g>
			<path fill="#37487C" d="M117.1,45.5c0,2.6-0.6,5.1-1.8,7.5c-3.2,7.1-11,13.1-21.5,17c-8.2,3-17.9,4.8-28.4,4.8
				c-5.6,0-11.1-0.5-16.1-1.4c-4.4-0.8-8.5-2-12.3-3.4c-10.5-3.9-18.4-9.9-21.6-16.9c-1.2-2.4-1.8-4.8-1.8-7.4c0-13,15-24,35.7-27.9
				c5.1-0.9,10.5-1.4,16-1.4C93.9,16.3,117.1,29.4,117.1,45.5z"/>
		</g>
		<g>
			<g>
				
					<linearGradient id="SVGID_7_" gradientUnits="userSpaceOnUse" x1="216.2702" y1="65.2314" x2="325.1648" y2="65.2314" gradientTransform="matrix(1 0 0 1 -205.3628 0)">
					<stop  offset="0.1301" style="stop-color:#15181B"/>
					<stop  offset="0.1368" style="stop-color:#242D3A"/>
					<stop  offset="0.4693" style="stop-color:#242D3A"/>
					<stop  offset="0.4756" style="stop-color:#2E3D49"/>
					<stop  offset="0.8756" style="stop-color:#2E3D49"/>
					<stop  offset="0.8788" style="stop-color:#242D3A"/>
				</linearGradient>
				<path fill="url(#SVGID_7_)" d="M119.8,39.6v20.5c0,1.1-0.1,2.3-0.4,3.4c-2.9,15.4-26.1,27.4-54,27.4c-5.9,0-11.6-0.5-16.9-1.5
					c-19.8-3.6-34.7-13.5-37.1-25.7c-0.2-1.1-0.4-2.3-0.4-3.5l-0.1-10.8v-9.6h13.4l24.2-0.1l57.9-0.1H119.8z"/>
			</g>
			<path fill="#45576C" d="M119.8,39.6c0,2.7-0.6,5.4-1.9,7.9c-3.3,7.4-11.6,13.8-22.6,17.9c-8.6,3.2-18.8,5.1-29.9,5.1
				c-5.9,0-11.6-0.5-16.9-1.5c-4.6-0.8-9-2.1-12.9-3.6c-11.1-4.1-19.3-10.4-22.7-17.8c-1.2-2.5-1.9-5.1-1.9-7.8
				c0-13.7,15.7-25.2,37.5-29.3c5.3-1,11-1.5,16.9-1.5C95.4,8.9,119.8,22.6,119.8,39.6z"/>
			<path fill="#2E3D49" d="M65.4,57.8c9.6,0,19-1.6,27.1-4.6c9.2-3.4,15.8-8.4,18.2-13.7l0.2-0.4c0.7-1.3,1-2.7,1-4.3
				c0-10.8-19.1-22.8-46.6-22.8c-5.3,0-10.5,0.5-15.4,1.4c-18,3.4-31.1,12.4-31.1,21.5c0,1.4,0.4,2.8,1.1,4.4
				c2.5,5.4,9.2,10.4,18.3,13.8c3.7,1.4,7.5,2.5,11.6,3.2C54.8,57.3,60.1,57.8,65.4,57.8z"/>
			<path fill="#45576C" d="M65.4,55.8c9.4,0,18.5-1.5,26.4-4.5c8.7-3.2,14.9-7.8,17.1-12.6l0.2-0.4c0.6-1.1,0.8-2.2,0.8-3.4
				c0-8.7-17-20.8-44.6-20.8c-5.2,0-10.2,0.5-15.1,1.4C33.5,18.6,20.8,27,20.8,35c0,1.1,0.3,2.2,0.9,3.5c2.3,4.9,8.6,9.6,17.2,12.8
				c3.5,1.4,7.3,2.4,11.2,3.1C55.1,55.4,60.2,55.8,65.4,55.8z"/>
			<path fill="#383938" d="M117.9,42.9c-3.3,7.4-11.6,13.8-22.6,17.9c-8.6,3.2-18.8,5.1-29.9,5.1c-5.9,0-11.6-0.5-16.9-1.5
				c-4.6-0.8-9-2.1-12.9-3.6c-11.1-4.1-19.3-10.4-22.7-17.8c-0.8-1.7-1.3-3.5-1.6-5.3c-0.1,0.7-0.3,1.4-0.3,2.1
				c0,2.7,0.7,5.3,1.9,7.8c3.4,7.4,11.6,13.7,22.7,17.8c4,1.5,8.3,2.7,12.9,3.6c5.3,1,11,1.5,16.9,1.5c11,0,21.3-1.9,29.9-5.1
				c11.1-4.1,19.3-10.4,22.6-17.9c1.3-2.5,1.9-5.2,1.9-7.9c0-0.9-0.1-1.7-0.2-2.6C119.3,39,118.9,41,117.9,42.9z"/>
		</g>
		<g>
			
				<linearGradient id="XMLID_18_" gradientUnits="userSpaceOnUse" x1="667.2924" y1="72.6775" x2="671.3983" y2="79.846" gradientTransform="matrix(-1 0 0 1 762.0657 0)">
				<stop  offset="0.1212" style="stop-color:#171C24"/>
				<stop  offset="0.1244" style="stop-color:#212B34"/>
				<stop  offset="0.5244" style="stop-color:#212B34"/>
				<stop  offset="0.5307" style="stop-color:#171C24"/>
				<stop  offset="0.8632" style="stop-color:#171C24"/>
				<stop  offset="0.8699" style="stop-color:#15181B"/>
			</linearGradient>
			<path id="XMLID_367_" fill="url(#XMLID_18_)" d="M90.3,79.6l1.5,1l0.2-0.3c1.1-0.1,2.4-1.1,3.3-2.7c0.6-1,0.9-2.1,0.9-3
				c0-0.6-0.1-1-0.3-1.4l0-0.2c0,0-1.4-0.9-1.5-1l0,0v0c-1.2-0.5-2.9,0.6-4,2.6c-0.5,0.9-0.8,1.8-0.9,2.6
				C89.3,78.3,89.6,79.2,90.3,79.6z"/>
			
				<ellipse id="XMLID_366_" transform="matrix(-0.4994 0.8664 -0.8664 -0.4994 207.0635 33.9502)" fill="#15181B" cx="93.7" cy="76.8" rx="4.3" ry="2.4"/>
			
				<radialGradient id="SVGID_8_" cx="580.2322" cy="75.0021" r="3.2478" fx="579.0607" fy="75.0288" gradientTransform="matrix(-1 0 0 1 674.2966 0)" gradientUnits="userSpaceOnUse">
				<stop  offset="0" style="stop-color:#B7D433"/>
				<stop  offset="1" style="stop-color:#7FB642"/>
			</radialGradient>
			<path fill="url(#SVGID_8_)" d="M92.3,80.1c0.8,0,2-0.7,3-2.4c1.1-1.9,1-3.7,0.3-4.1c-0.1-0.1-0.3-0.1-0.5-0.1c-0.8,0-2,0.7-3,2.4
				c-1.1,1.9-1,3.7-0.3,4.1C92,80.1,92.2,80.1,92.3,80.1z"/>
		</g>
		<g>
			
				<linearGradient id="XMLID_19_" gradientUnits="userSpaceOnUse" x1="667.2925" y1="106.9898" x2="671.3984" y2="114.1583" gradientTransform="matrix(-1 0 0 1 762.0657 0)">
				<stop  offset="0.1212" style="stop-color:#171C24"/>
				<stop  offset="0.1244" style="stop-color:#212B34"/>
				<stop  offset="0.5244" style="stop-color:#212B34"/>
				<stop  offset="0.5307" style="stop-color:#171C24"/>
				<stop  offset="0.8632" style="stop-color:#171C24"/>
				<stop  offset="0.8699" style="stop-color:#15181B"/>
			</linearGradient>
			<path id="XMLID_365_" fill="url(#XMLID_19_)" d="M90.3,113.9l1.5,1l0.2-0.3c1.1-0.1,2.4-1.1,3.3-2.7c0.6-1,0.9-2.1,0.9-3
				c0-0.6-0.1-1-0.3-1.4l0-0.2c0,0-1.4-0.9-1.5-1l0,0v0c-1.2-0.5-2.9,0.6-4,2.6c-0.5,0.9-0.8,1.8-0.9,2.6
				C89.3,112.6,89.6,113.5,90.3,113.9z"/>
			
				<ellipse id="XMLID_364_" transform="matrix(-0.4994 0.8664 -0.8664 -0.4994 236.7914 85.3995)" fill="#15181B" cx="93.7" cy="111.1" rx="4.3" ry="2.4"/>
			
				<radialGradient id="SVGID_9_" cx="579.5198" cy="109.7479" r="2.8833" gradientTransform="matrix(-1 0 0 1 674.2966 0)" gradientUnits="userSpaceOnUse">
				<stop  offset="0" style="stop-color:#B7D433"/>
				<stop  offset="1" style="stop-color:#7FB642"/>
			</radialGradient>
			<path fill="url(#SVGID_9_)" d="M92.3,114.4c0.8,0,2-0.7,3-2.4c1.1-1.9,1-3.7,0.3-4.1c-0.1-0.1-0.3-0.1-0.5-0.1
				c-0.8,0-2,0.7-3,2.4c-1.1,1.9-1,3.7-0.3,4.1C92,114.4,92.2,114.4,92.3,114.4z"/>
		</g>
		<g>
			
				<linearGradient id="XMLID_20_" gradientUnits="userSpaceOnUse" x1="667.7529" y1="141.8328" x2="671.8589" y2="149.0013" gradientTransform="matrix(-1 0 0 1 762.0657 0)">
				<stop  offset="0.1212" style="stop-color:#171C24"/>
				<stop  offset="0.1244" style="stop-color:#212B34"/>
				<stop  offset="0.5244" style="stop-color:#212B34"/>
				<stop  offset="0.5307" style="stop-color:#171C24"/>
				<stop  offset="0.8632" style="stop-color:#171C24"/>
				<stop  offset="0.8699" style="stop-color:#15181B"/>
			</linearGradient>
			<path id="XMLID_363_" fill="url(#XMLID_20_)" d="M89.8,148.8l1.5,1l0.2-0.3c1.1-0.1,2.4-1.1,3.3-2.7c0.6-1,0.9-2.1,0.9-3
				c0-0.6-0.1-1-0.3-1.4l0-0.2c0,0-1.4-0.9-1.5-1l0,0v0c-1.2-0.5-2.9,0.6-4,2.6c-0.5,0.9-0.8,1.8-0.9,2.6
				C88.9,147.5,89.1,148.4,89.8,148.8z"/>
			
				<ellipse id="XMLID_362_" transform="matrix(-0.4994 0.8664 -0.8664 -0.4994 266.2884 138.0416)" fill="#15181B" cx="93.3" cy="146" rx="4.3" ry="2.4"/>
			
				<radialGradient id="SVGID_10_" cx="579.98" cy="144.4051" r="2.8833" gradientTransform="matrix(-1 0 0 1 674.2966 0)" gradientUnits="userSpaceOnUse">
				<stop  offset="0" style="stop-color:#B7D433"/>
				<stop  offset="1" style="stop-color:#7FB642"/>
			</radialGradient>
			<path fill="url(#SVGID_10_)" d="M91.9,149.3c0.8,0,2-0.7,3-2.4c1.1-1.9,1-3.7,0.3-4.1c-0.1-0.1-0.3-0.1-0.5-0.1
				c-0.8,0-2,0.7-3,2.4c-1.1,1.9-1,3.7-0.3,4.1C91.6,149.2,91.7,149.3,91.9,149.3z"/>
		</g>
		<g>
			
				<linearGradient id="XMLID_21_" gradientUnits="userSpaceOnUse" x1="667.2924" y1="177.001" x2="671.3983" y2="184.1694" gradientTransform="matrix(-1 0 0 1 762.0657 0)">
				<stop  offset="0.1212" style="stop-color:#171C24"/>
				<stop  offset="0.1244" style="stop-color:#212B34"/>
				<stop  offset="0.5244" style="stop-color:#212B34"/>
				<stop  offset="0.5307" style="stop-color:#171C24"/>
				<stop  offset="0.8632" style="stop-color:#171C24"/>
				<stop  offset="0.8699" style="stop-color:#15181B"/>
			</linearGradient>
			<path id="XMLID_361_" fill="url(#XMLID_21_)" d="M90.3,183.9l1.5,1l0.2-0.3c1.1-0.1,2.4-1.1,3.3-2.7c0.6-1,0.9-2.1,0.9-3
				c0-0.6-0.1-1-0.3-1.4l0-0.2c0,0-1.4-0.9-1.5-1l0,0v0c-1.2-0.5-2.9,0.6-4,2.6c-0.5,0.9-0.8,1.8-0.9,2.6
				C89.3,182.7,89.6,183.5,90.3,183.9z"/>
			
				<ellipse id="XMLID_360_" transform="matrix(-0.4994 0.8664 -0.8664 -0.4994 297.4474 190.374)" fill="#15181B" cx="93.7" cy="181.1" rx="4.3" ry="2.4"/>
			
				<radialGradient id="SVGID_11_" cx="579.272" cy="179.2636" r="2.8833" gradientTransform="matrix(-1 0 0 1 674.2966 0)" gradientUnits="userSpaceOnUse">
				<stop  offset="0" style="stop-color:#B7D433"/>
				<stop  offset="1" style="stop-color:#7FB642"/>
			</radialGradient>
			<path fill="url(#SVGID_11_)" d="M92.3,184.4c0.8,0,2-0.7,3-2.4c1.1-1.9,1-3.7,0.3-4.1c-0.1-0.1-0.3-0.1-0.5-0.1
				c-0.8,0-2,0.7-3,2.4c-1.1,1.9-1,3.7-0.3,4.1C92,184.4,92.2,184.4,92.3,184.4z"/>
		</g>
	</g>
</g>
<g>
	<g>
		<g>
			<g>
				
					<linearGradient id="SVGID_12_" gradientUnits="userSpaceOnUse" x1="216.27" y1="168.648" x2="325.1646" y2="168.648" gradientTransform="matrix(1 0 0 1 -205.3628 0)">
					<stop  offset="0.1301" style="stop-color:#15181B"/>
					<stop  offset="0.1368" style="stop-color:#242D3A"/>
					<stop  offset="0.4693" style="stop-color:#242D3A"/>
					<stop  offset="0.4756" style="stop-color:#2E3D49"/>
					<stop  offset="0.8756" style="stop-color:#2E3D49"/>
					<stop  offset="0.8788" style="stop-color:#242D3A"/>
				</linearGradient>
				<path fill="url(#SVGID_12_)" d="M119.8,143v20.5c0,1.1-0.1,2.3-0.4,3.4c-2.9,15.4-26.1,27.4-54,27.4c-5.9,0-11.6-0.5-16.9-1.5
					c-19.8-3.6-34.7-13.5-37.1-25.7c-0.2-1.1-0.4-2.3-0.4-3.5l-0.1-10.8v-9.7h13.4l24.2-0.1l57.9-0.1H119.8z"/>
			</g>
			<path fill="#45576C" d="M119.8,143c0,2.7-0.6,5.4-1.9,7.9c-3.3,7.4-11.6,13.8-22.6,17.9c-8.6,3.2-18.8,5.1-29.9,5.1
				c-5.9,0-11.6-0.5-16.9-1.5c-4.6-0.8-9-2.1-12.9-3.6c-11.1-4.1-19.3-10.4-22.7-17.8c-1.2-2.5-1.9-5.1-1.9-7.8
				c0-13.7,15.7-25.2,37.5-29.3c5.3-1,11-1.5,16.9-1.5C95.4,112.3,119.8,126.1,119.8,143z"/>
		</g>
		<g>
			<g>
				
					<linearGradient id="SVGID_13_" gradientUnits="userSpaceOnUse" x1="218.9535" y1="140.9902" x2="322.4808" y2="140.9902" gradientTransform="matrix(1 0 0 1 -205.3628 0)">
					<stop  offset="0.1348" style="stop-color:#EE9C21"/>
					<stop  offset="0.1415" style="stop-color:#FDB813"/>
					<stop  offset="0.474" style="stop-color:#FDB813"/>
					<stop  offset="0.4803" style="stop-color:#FAD022"/>
					<stop  offset="0.8756" style="stop-color:#FAD022"/>
					<stop  offset="0.8835" style="stop-color:#FDB813"/>
				</linearGradient>
				<path fill="url(#SVGID_13_)" d="M117.1,114.5v23.8c0,1.1-0.1,2.2-0.4,3.3c-2.7,14.7-24.8,26-51.4,26c-5.6,0-11.1-0.5-16.1-1.4
					c-18.9-3.5-32.9-12.9-35.3-24.4c-0.2-1.1-0.4-2.2-0.4-3.3l-0.1-14.6v-9.2h12.7l23-0.1l55.1-0.1H117.1z"/>
			</g>
			<path fill="#37487C" d="M117.1,114.5c0,2.6-0.6,5.1-1.8,7.5c-3.2,7.1-11,13.1-21.5,17c-8.2,3-17.9,4.8-28.4,4.8
				c-5.6,0-11.1-0.5-16.1-1.4c-4.4-0.8-8.5-2-12.3-3.4c-10.5-3.9-18.4-9.9-21.6-16.9c-1.2-2.4-1.8-4.8-1.8-7.4c0-13,15-24,35.7-27.9
				c5.1-0.9,10.5-1.4,16-1.4C93.9,85.3,117.1,98.3,117.1,114.5z"/>
		</g>
		<g>
			<g>
				
					<linearGradient id="SVGID_14_" gradientUnits="userSpaceOnUse" x1="216.27" y1="134.2155" x2="325.1646" y2="134.2155" gradientTransform="matrix(1 0 0 1 -205.3628 0)">
					<stop  offset="0.1301" style="stop-color:#15181B"/>
					<stop  offset="0.1368" style="stop-color:#242D3A"/>
					<stop  offset="0.4693" style="stop-color:#242D3A"/>
					<stop  offset="0.4756" style="stop-color:#2E3D49"/>
					<stop  offset="0.8756" style="stop-color:#2E3D49"/>
					<stop  offset="0.8788" style="stop-color:#242D3A"/>
				</linearGradient>
				<path fill="url(#SVGID_14_)" d="M119.8,108.6v20.5c0,1.1-0.1,2.3-0.4,3.4c-2.9,15.4-26.1,27.4-54,27.4c-5.9,0-11.6-0.5-16.9-1.5
					c-19.8-3.6-34.7-13.5-37.1-25.7c-0.2-1.1-0.4-2.3-0.4-3.5l-0.1-10.8v-9.6h13.4l24.2-0.1l57.9-0.1H119.8z"/>
			</g>
			<path fill="#45576C" d="M119.8,108.6c0,2.7-0.6,5.4-1.9,7.9c-3.3,7.4-11.6,13.8-22.6,17.9c-8.6,3.2-18.8,5.1-29.9,5.1
				c-5.9,0-11.6-0.5-16.9-1.5c-4.6-0.8-9-2.1-12.9-3.6c-11.1-4.1-19.3-10.4-22.7-17.8c-1.2-2.5-1.9-5.1-1.9-7.8
				c0-13.7,15.7-25.2,37.5-29.3c5.3-1,11-1.5,16.9-1.5C95.4,77.9,119.8,91.6,119.8,108.6z"/>
		</g>
		<g>
			<g>
				
					<linearGradient id="SVGID_15_" gradientUnits="userSpaceOnUse" x1="218.9535" y1="106.3268" x2="322.4808" y2="106.3268" gradientTransform="matrix(1 0 0 1 -205.3628 0)">
					<stop  offset="0.1348" style="stop-color:#EE9C21"/>
					<stop  offset="0.1415" style="stop-color:#FDB813"/>
					<stop  offset="0.474" style="stop-color:#FDB813"/>
					<stop  offset="0.4803" style="stop-color:#FAD022"/>
					<stop  offset="0.8756" style="stop-color:#FAD022"/>
					<stop  offset="0.8835" style="stop-color:#FDB813"/>
				</linearGradient>
				<path fill="url(#SVGID_15_)" d="M117.1,79.8v23.8c0,1.1-0.1,2.2-0.4,3.3c-2.7,14.7-24.8,26-51.4,26c-5.6,0-11.1-0.5-16.1-1.4
					C30.4,127.9,16.3,118.6,14,107c-0.2-1.1-0.4-2.2-0.4-3.3l-0.1-14.6v-9.2h12.7l23-0.1l55.1-0.1H117.1z"/>
			</g>
			<path fill="#37487C" d="M117.1,79.8c0,2.6-0.6,5.1-1.8,7.5c-3.2,7.1-11,13.1-21.5,17c-8.2,3-17.9,4.8-28.4,4.8
				c-5.6,0-11.1-0.5-16.1-1.4c-4.4-0.8-8.5-2-12.3-3.4c-10.5-3.9-18.4-9.9-21.6-16.9c-1.2-2.4-1.8-4.8-1.8-7.4c0-13,15-24,35.7-27.9
				c5.1-0.9,10.5-1.4,16-1.4C93.9,50.6,117.1,63.7,117.1,79.8z"/>
		</g>
		<g>
			<g>
				
					<linearGradient id="SVGID_16_" gradientUnits="userSpaceOnUse" x1="216.27" y1="99.552" x2="325.1646" y2="99.552" gradientTransform="matrix(1 0 0 1 -205.3628 0)">
					<stop  offset="0.1301" style="stop-color:#15181B"/>
					<stop  offset="0.1368" style="stop-color:#242D3A"/>
					<stop  offset="0.4693" style="stop-color:#242D3A"/>
					<stop  offset="0.4756" style="stop-color:#2E3D49"/>
					<stop  offset="0.8756" style="stop-color:#2E3D49"/>
					<stop  offset="0.8788" style="stop-color:#242D3A"/>
				</linearGradient>
				<path fill="url(#SVGID_16_)" d="M119.8,73.9v20.5c0,1.1-0.1,2.3-0.4,3.4c-2.9,15.4-26.1,27.4-54,27.4c-5.9,0-11.6-0.5-16.9-1.5
					C28.6,120,13.8,110.2,11.4,98c-0.2-1.1-0.4-2.3-0.4-3.5l-0.1-10.8v-9.7h13.4L48.4,74l57.9-0.1H119.8z"/>
			</g>
			<path fill="#45576C" d="M119.8,73.9c0,2.7-0.6,5.4-1.9,7.9c-3.3,7.4-11.6,13.8-22.6,17.9c-8.6,3.2-18.8,5.1-29.9,5.1
				c-5.9,0-11.6-0.5-16.9-1.5c-4.6-0.8-9-2.1-12.9-3.6c-11.1-4.1-19.3-10.4-22.7-17.8c-1.2-2.5-1.9-5.1-1.9-7.8
				c0-13.7,15.7-25.2,37.5-29.3c5.3-1,11-1.5,16.9-1.5C95.4,43.2,119.8,57,119.8,73.9z"/>
		</g>
		<g>
			<g>
				
					<linearGradient id="SVGID_17_" gradientUnits="userSpaceOnUse" x1="218.9535" y1="72.0144" x2="322.4808" y2="72.0144" gradientTransform="matrix(1 0 0 1 -205.3628 0)">
					<stop  offset="0.1777" style="stop-color:#045DA1"/>
					<stop  offset="0.1844" style="stop-color:#4375BA"/>
					<stop  offset="0.474" style="stop-color:#4375BA"/>
					<stop  offset="0.4756" style="stop-color:#669DD4"/>
					<stop  offset="0.8089" style="stop-color:#669DD4"/>
					<stop  offset="0.8169" style="stop-color:#4375BA"/>
				</linearGradient>
				<path fill="url(#SVGID_17_)" d="M117.1,45.5v23.8c0,1.1-0.1,2.2-0.4,3.3c-2.7,14.7-24.8,26-51.4,26c-5.6,0-11.1-0.5-16.1-1.4
					C30.4,93.6,16.3,84.2,14,72.7c-0.2-1.1-0.4-2.2-0.4-3.3l-0.1-14.6v-9.2h12.7l23-0.1l55.1-0.1H117.1z"/>
			</g>
			<path fill="#37487C" d="M117.1,45.5c0,2.6-0.6,5.1-1.8,7.5c-3.2,7.1-11,13.1-21.5,17c-8.2,3-17.9,4.8-28.4,4.8
				c-5.6,0-11.1-0.5-16.1-1.4c-4.4-0.8-8.5-2-12.3-3.4c-10.5-3.9-18.4-9.9-21.6-16.9c-1.2-2.4-1.8-4.8-1.8-7.4c0-13,15-24,35.7-27.9
				c5.1-0.9,10.5-1.4,16-1.4C93.9,16.3,117.1,29.4,117.1,45.5z"/>
		</g>
		<g>
			<g>
				
					<linearGradient id="SVGID_18_" gradientUnits="userSpaceOnUse" x1="216.27" y1="65.2396" x2="325.1646" y2="65.2396" gradientTransform="matrix(1 0 0 1 -205.3628 0)">
					<stop  offset="0.1301" style="stop-color:#15181B"/>
					<stop  offset="0.1368" style="stop-color:#242D3A"/>
					<stop  offset="0.4693" style="stop-color:#242D3A"/>
					<stop  offset="0.4756" style="stop-color:#2E3D49"/>
					<stop  offset="0.8756" style="stop-color:#2E3D49"/>
					<stop  offset="0.8788" style="stop-color:#242D3A"/>
				</linearGradient>
				<path fill="url(#SVGID_18_)" d="M119.8,39.6v20.5c0,1.1-0.1,2.3-0.4,3.4c-2.9,15.4-26.1,27.4-54,27.4c-5.9,0-11.6-0.5-16.9-1.5
					c-19.8-3.6-34.7-13.5-37.1-25.7c-0.2-1.1-0.4-2.3-0.4-3.5l-0.1-10.8v-9.6h13.4l24.2-0.1l57.9-0.1H119.8z"/>
			</g>
			<path fill="#45576C" d="M119.8,39.6c0,2.7-0.6,5.4-1.9,7.9c-3.3,7.4-11.6,13.8-22.6,17.9c-8.6,3.2-18.8,5.1-29.9,5.1
				c-5.9,0-11.6-0.5-16.9-1.5c-4.6-0.8-9-2.1-12.9-3.6c-11.1-4.1-19.3-10.4-22.7-17.8c-1.2-2.5-1.9-5.1-1.9-7.8
				c0-13.7,15.7-25.2,37.5-29.3c5.3-1,11-1.5,16.9-1.5C95.4,8.9,119.8,22.6,119.8,39.6z"/>
			<path fill="#2E3D49" d="M65.4,57.8c9.6,0,19-1.6,27.1-4.6c9.2-3.4,15.8-8.4,18.2-13.7l0.2-0.4c0.7-1.3,1-2.7,1-4.3
				c0-10.8-19.1-22.8-46.6-22.8c-5.3,0-10.5,0.5-15.4,1.4c-18,3.4-31.1,12.4-31.1,21.5c0,1.4,0.4,2.8,1.1,4.4
				c2.5,5.4,9.2,10.4,18.3,13.8c3.7,1.4,7.5,2.5,11.6,3.2C54.8,57.3,60.1,57.8,65.4,57.8z"/>
			<path fill="#45576C" d="M65.4,55.8c9.4,0,18.5-1.5,26.4-4.5c8.7-3.2,14.9-7.8,17.1-12.6l0.2-0.4c0.6-1.1,0.8-2.2,0.8-3.4
				c0-8.7-17-20.8-44.6-20.8c-5.2,0-10.2,0.5-15.1,1.4C33.5,18.6,20.8,27,20.8,35c0,1.1,0.3,2.2,0.9,3.5c2.3,4.9,8.6,9.6,17.2,12.8
				c3.5,1.4,7.3,2.4,11.2,3.1C55.1,55.4,60.2,55.8,65.4,55.8z"/>
			<path fill="#383938" d="M117.9,42.9c-3.3,7.4-11.6,13.8-22.6,17.9c-8.6,3.2-18.8,5.1-29.9,5.1c-5.9,0-11.6-0.5-16.9-1.5
				c-4.6-0.8-9-2.1-12.9-3.6c-11.1-4.1-19.3-10.4-22.7-17.8c-0.8-1.7-1.3-3.5-1.6-5.3c-0.1,0.7-0.3,1.4-0.3,2.1
				c0,2.7,0.7,5.3,1.9,7.8c3.4,7.4,11.6,13.7,22.7,17.8c4,1.5,8.3,2.7,12.9,3.6c5.3,1,11,1.5,16.9,1.5c11,0,21.3-1.9,29.9-5.1
				c11.1-4.1,19.3-10.4,22.6-17.9c1.3-2.5,1.9-5.2,1.9-7.9c0-0.9-0.1-1.7-0.2-2.6C119.3,39,118.9,41,117.9,42.9z"/>
		</g>
		<g>
			
				<linearGradient id="XMLID_22_" gradientUnits="userSpaceOnUse" x1="667.2926" y1="72.6857" x2="671.3986" y2="79.8541" gradientTransform="matrix(-1 0 0 1 762.0657 0)">
				<stop  offset="0.1212" style="stop-color:#171C24"/>
				<stop  offset="0.1244" style="stop-color:#212B34"/>
				<stop  offset="0.5244" style="stop-color:#212B34"/>
				<stop  offset="0.5307" style="stop-color:#171C24"/>
				<stop  offset="0.8632" style="stop-color:#171C24"/>
				<stop  offset="0.8699" style="stop-color:#15181B"/>
			</linearGradient>
			<path id="XMLID_8_" fill="url(#XMLID_22_)" d="M90.3,79.6l1.5,1l0.2-0.3c1.1-0.1,2.4-1.1,3.3-2.7c0.6-1,0.9-2.1,0.9-3
				c0-0.6-0.1-1-0.3-1.4l0-0.2c0,0-1.4-0.9-1.5-1l0,0v0c-1.2-0.5-2.9,0.6-4,2.6c-0.5,0.9-0.8,1.8-0.9,2.6
				C89.3,78.3,89.6,79.2,90.3,79.6z"/>
			
				<ellipse id="XMLID_7_" transform="matrix(-0.4994 0.8664 -0.8664 -0.4994 207.0702 33.9627)" fill="#15181B" cx="93.7" cy="76.8" rx="4.3" ry="2.4"/>
			
				<radialGradient id="SVGID_19_" cx="580.2324" cy="75.0103" r="3.2478" fx="579.0609" fy="75.0369" gradientTransform="matrix(-1 0 0 1 674.2966 0)" gradientUnits="userSpaceOnUse">
				<stop  offset="0" style="stop-color:#B7D433"/>
				<stop  offset="1" style="stop-color:#7FB642"/>
			</radialGradient>
			<path fill="url(#SVGID_19_)" d="M92.3,80.1c0.8,0,2-0.7,3-2.4c1.1-1.9,1-3.7,0.3-4.1c-0.1-0.1-0.3-0.1-0.5-0.1
				c-0.8,0-2,0.7-3,2.4c-1.1,1.9-1,3.7-0.3,4.1C92,80.1,92.2,80.1,92.3,80.1z"/>
		</g>
		<g>
			
				<linearGradient id="XMLID_23_" gradientUnits="userSpaceOnUse" x1="667.2927" y1="106.998" x2="671.3987" y2="114.1665" gradientTransform="matrix(-1 0 0 1 762.0657 0)">
				<stop  offset="0.1212" style="stop-color:#171C24"/>
				<stop  offset="0.1244" style="stop-color:#212B34"/>
				<stop  offset="0.5244" style="stop-color:#212B34"/>
				<stop  offset="0.5307" style="stop-color:#171C24"/>
				<stop  offset="0.8632" style="stop-color:#171C24"/>
				<stop  offset="0.8699" style="stop-color:#15181B"/>
			</linearGradient>
			<path id="XMLID_6_" fill="url(#XMLID_23_)" d="M90.3,113.9l1.5,1l0.2-0.3c1.1-0.1,2.4-1.1,3.3-2.7c0.6-1,0.9-2.1,0.9-3
				c0-0.6-0.1-1-0.3-1.4l0-0.2c0,0-1.4-0.9-1.5-1l0,0v0c-1.2-0.5-2.9,0.6-4,2.6c-0.5,0.9-0.8,1.8-0.9,2.6
				C89.3,112.7,89.6,113.5,90.3,113.9z"/>
			
				<ellipse id="XMLID_5_" transform="matrix(-0.4994 0.8664 -0.8664 -0.4994 236.798 85.4119)" fill="#15181B" cx="93.7" cy="111.1" rx="4.3" ry="2.4"/>
			
				<radialGradient id="SVGID_20_" cx="579.52" cy="109.756" r="2.8833" gradientTransform="matrix(-1 0 0 1 674.2966 0)" gradientUnits="userSpaceOnUse">
				<stop  offset="0" style="stop-color:#B7D433"/>
				<stop  offset="1" style="stop-color:#7FB642"/>
			</radialGradient>
			<path fill="url(#SVGID_20_)" d="M92.3,114.4c0.8,0,2-0.7,3-2.4c1.1-1.9,1-3.7,0.3-4.1c-0.1-0.1-0.3-0.1-0.5-0.1
				c-0.8,0-2,0.7-3,2.4c-1.1,1.9-1,3.7-0.3,4.1C92,114.4,92.2,114.4,92.3,114.4z"/>
		</g>
		<g>
			
				<linearGradient id="XMLID_24_" gradientUnits="userSpaceOnUse" x1="667.7532" y1="141.841" x2="671.8591" y2="149.0095" gradientTransform="matrix(-1 0 0 1 762.0657 0)">
				<stop  offset="0.1212" style="stop-color:#171C24"/>
				<stop  offset="0.1244" style="stop-color:#212B34"/>
				<stop  offset="0.5244" style="stop-color:#212B34"/>
				<stop  offset="0.5307" style="stop-color:#171C24"/>
				<stop  offset="0.8632" style="stop-color:#171C24"/>
				<stop  offset="0.8699" style="stop-color:#15181B"/>
			</linearGradient>
			<path id="XMLID_4_" fill="url(#XMLID_24_)" d="M89.8,148.8l1.5,1l0.2-0.3c1.1-0.1,2.4-1.1,3.3-2.7c0.6-1,0.9-2.1,0.9-3
				c0-0.6-0.1-1-0.3-1.4l0-0.2c0,0-1.4-0.9-1.5-1l0,0v0c-1.2-0.5-2.9,0.6-4,2.6c-0.5,0.9-0.8,1.8-0.9,2.6
				C88.9,147.5,89.1,148.4,89.8,148.8z"/>
			
				<ellipse id="XMLID_3_" transform="matrix(-0.4994 0.8664 -0.8664 -0.4994 266.295 138.054)" fill="#15181B" cx="93.3" cy="146" rx="4.3" ry="2.4"/>
			
				<radialGradient id="SVGID_21_" cx="579.9803" cy="144.4132" r="2.8833" gradientTransform="matrix(-1 0 0 1 674.2966 0)" gradientUnits="userSpaceOnUse">
				<stop  offset="0" style="stop-color:#B7D433"/>
				<stop  offset="1" style="stop-color:#7FB642"/>
			</radialGradient>
			<path fill="url(#SVGID_21_)" d="M91.9,149.3c0.8,0,2-0.7,3-2.4c1.1-1.9,1-3.7,0.3-4.1c-0.1-0.1-0.3-0.1-0.5-0.1
				c-0.8,0-2,0.7-3,2.4c-1.1,1.9-1,3.7-0.3,4.1C91.6,149.2,91.7,149.3,91.9,149.3z"/>
		</g>
		<g>
			
				<linearGradient id="XMLID_25_" gradientUnits="userSpaceOnUse" x1="667.2926" y1="177.0091" x2="671.3986" y2="184.1776" gradientTransform="matrix(-1 0 0 1 762.0657 0)">
				<stop  offset="0.1212" style="stop-color:#171C24"/>
				<stop  offset="0.1244" style="stop-color:#212B34"/>
				<stop  offset="0.5244" style="stop-color:#212B34"/>
				<stop  offset="0.5307" style="stop-color:#171C24"/>
				<stop  offset="0.8632" style="stop-color:#171C24"/>
				<stop  offset="0.8699" style="stop-color:#15181B"/>
			</linearGradient>
			<path id="XMLID_2_" fill="url(#XMLID_25_)" d="M90.3,183.9l1.5,1l0.2-0.3c1.1-0.1,2.4-1.1,3.3-2.7c0.6-1,0.9-2.1,0.9-3
				c0-0.6-0.1-1-0.3-1.4l0-0.2c0,0-1.4-0.9-1.5-1l0,0v0c-1.2-0.5-2.9,0.6-4,2.6c-0.5,0.9-0.8,1.8-0.9,2.6
				C89.3,182.7,89.6,183.6,90.3,183.9z"/>
			
				<ellipse id="XMLID_1_" transform="matrix(-0.4994 0.8664 -0.8664 -0.4994 297.4541 190.3864)" fill="#15181B" cx="93.7" cy="181.1" rx="4.3" ry="2.4"/>
			
				<radialGradient id="SVGID_22_" cx="579.2723" cy="179.2718" r="2.8833" gradientTransform="matrix(-1 0 0 1 674.2966 0)" gradientUnits="userSpaceOnUse">
				<stop  offset="0" style="stop-color:#B7D433"/>
				<stop  offset="1" style="stop-color:#7FB642"/>
			</radialGradient>
			<path fill="url(#SVGID_22_)" d="M92.3,184.4c0.8,0,2-0.7,3-2.4c1.1-1.9,1-3.7,0.3-4.1c-0.1-0.1-0.3-0.1-0.5-0.1
				c-0.8,0-2,0.7-3,2.4c-1.1,1.9-1,3.7-0.3,4.1C92,184.4,92.2,184.4,92.3,184.4z"/>
		</g>
	</g>
</g>
<g display="none">
	<g display="inline">
		<g>
			<g>
				
					<linearGradient id="SVGID_23_" gradientUnits="userSpaceOnUse" x1="216.2702" y1="168.648" x2="325.1648" y2="168.648" gradientTransform="matrix(1 0 0 1 -205.3628 0)">
					<stop  offset="0.1301" style="stop-color:#15181B"/>
					<stop  offset="0.1368" style="stop-color:#242D3A"/>
					<stop  offset="0.4693" style="stop-color:#242D3A"/>
					<stop  offset="0.4756" style="stop-color:#2E3D49"/>
					<stop  offset="0.8756" style="stop-color:#2E3D49"/>
					<stop  offset="0.8788" style="stop-color:#242D3A"/>
				</linearGradient>
				<path fill="url(#SVGID_23_)" d="M119.8,143v20.5c0,1.1-0.1,2.3-0.4,3.4c-2.9,15.4-26.1,27.4-54,27.4c-5.9,0-11.6-0.5-16.9-1.5
					c-19.8-3.6-34.7-13.5-37.1-25.7c-0.2-1.1-0.4-2.3-0.4-3.5l-0.1-10.8v-9.7h13.4l24.2-0.1l57.9-0.1H119.8z"/>
			</g>
			<path fill="#45576C" d="M119.8,143c0,2.7-0.6,5.4-1.9,7.9c-3.3,7.4-11.6,13.8-22.6,17.9c-8.6,3.2-18.8,5.1-29.9,5.1
				c-5.9,0-11.6-0.5-16.9-1.5c-4.6-0.8-9-2.1-12.9-3.6c-11.1-4.1-19.3-10.4-22.7-17.8c-1.2-2.5-1.9-5.1-1.9-7.8
				c0-13.7,15.7-25.2,37.5-29.3c5.3-1,11-1.5,16.9-1.5C95.4,112.3,119.8,126.1,119.8,143z"/>
		</g>
		<g>
			<g>
				
					<linearGradient id="SVGID_24_" gradientUnits="userSpaceOnUse" x1="218.9537" y1="140.9902" x2="322.4811" y2="140.9902" gradientTransform="matrix(1 0 0 1 -205.3628 0)">
					<stop  offset="0.1348" style="stop-color:#EE9C21"/>
					<stop  offset="0.1415" style="stop-color:#FDB813"/>
					<stop  offset="0.474" style="stop-color:#FDB813"/>
					<stop  offset="0.4803" style="stop-color:#FAD022"/>
					<stop  offset="0.8756" style="stop-color:#FAD022"/>
					<stop  offset="0.8835" style="stop-color:#FDB813"/>
				</linearGradient>
				<path fill="url(#SVGID_24_)" d="M117.1,114.5v23.8c0,1.1-0.1,2.2-0.4,3.3c-2.7,14.7-24.8,26-51.4,26c-5.6,0-11.1-0.5-16.1-1.4
					c-18.9-3.5-32.9-12.9-35.3-24.4c-0.2-1.1-0.4-2.2-0.4-3.3l-0.1-14.6v-9.2h12.7l23-0.1l55.1-0.1H117.1z"/>
			</g>
			<path fill="#37487C" d="M117.1,114.5c0,2.6-0.6,5.1-1.8,7.5c-3.2,7.1-11,13.1-21.5,17c-8.2,3-17.9,4.8-28.4,4.8
				c-5.6,0-11.1-0.5-16.1-1.4c-4.4-0.8-8.5-2-12.3-3.4c-10.5-3.9-18.4-9.9-21.6-16.9c-1.2-2.4-1.8-4.8-1.8-7.4c0-13,15-24,35.7-27.9
				c5.1-0.9,10.5-1.4,16-1.4C93.9,85.3,117.1,98.3,117.1,114.5z"/>
		</g>
		<g>
			<g>
				
					<linearGradient id="SVGID_25_" gradientUnits="userSpaceOnUse" x1="216.2702" y1="134.2155" x2="325.1648" y2="134.2155" gradientTransform="matrix(1 0 0 1 -205.3628 0)">
					<stop  offset="0.1301" style="stop-color:#15181B"/>
					<stop  offset="0.1368" style="stop-color:#242D3A"/>
					<stop  offset="0.4693" style="stop-color:#242D3A"/>
					<stop  offset="0.4756" style="stop-color:#2E3D49"/>
					<stop  offset="0.8756" style="stop-color:#2E3D49"/>
					<stop  offset="0.8788" style="stop-color:#242D3A"/>
				</linearGradient>
				<path fill="url(#SVGID_25_)" d="M119.8,108.6v20.5c0,1.1-0.1,2.3-0.4,3.4c-2.9,15.4-26.1,27.4-54,27.4c-5.9,0-11.6-0.5-16.9-1.5
					c-19.8-3.6-34.7-13.5-37.1-25.7c-0.2-1.1-0.4-2.3-0.4-3.5l-0.1-10.8v-9.6h13.4l24.2-0.1l57.9-0.1H119.8z"/>
			</g>
			<path fill="#45576C" d="M119.8,108.6c0,2.7-0.6,5.4-1.9,7.9c-3.3,7.4-11.6,13.8-22.6,17.9c-8.6,3.2-18.8,5.1-29.9,5.1
				c-5.9,0-11.6-0.5-16.9-1.5c-4.6-0.8-9-2.1-12.9-3.6c-11.1-4.1-19.3-10.4-22.7-17.8c-1.2-2.5-1.9-5.1-1.9-7.8
				c0-13.7,15.7-25.2,37.5-29.3c5.3-1,11-1.5,16.9-1.5C95.4,77.9,119.8,91.6,119.8,108.6z"/>
		</g>
		<g>
			<g>
				
					<linearGradient id="SVGID_26_" gradientUnits="userSpaceOnUse" x1="218.9537" y1="106.3268" x2="322.4811" y2="106.3268" gradientTransform="matrix(1 0 0 1 -205.3628 0)">
					<stop  offset="0.1348" style="stop-color:#EE9C21"/>
					<stop  offset="0.1415" style="stop-color:#FDB813"/>
					<stop  offset="0.474" style="stop-color:#FDB813"/>
					<stop  offset="0.4803" style="stop-color:#FAD022"/>
					<stop  offset="0.8756" style="stop-color:#FAD022"/>
					<stop  offset="0.8835" style="stop-color:#FDB813"/>
				</linearGradient>
				<path fill="url(#SVGID_26_)" d="M117.1,79.8v23.8c0,1.1-0.1,2.2-0.4,3.3c-2.7,14.7-24.8,26-51.4,26c-5.6,0-11.1-0.5-16.1-1.4
					C30.4,127.9,16.3,118.6,14,107c-0.2-1.1-0.4-2.2-0.4-3.3l-0.1-14.6v-9.2h12.7l23-0.1l55.1-0.1H117.1z"/>
			</g>
			<path fill="#37487C" d="M117.1,79.8c0,2.6-0.6,5.1-1.8,7.5c-3.2,7.1-11,13.1-21.5,17c-8.2,3-17.9,4.8-28.4,4.8
				c-5.6,0-11.1-0.5-16.1-1.4c-4.4-0.8-8.5-2-12.3-3.4c-10.5-3.9-18.4-9.9-21.6-16.9c-1.2-2.4-1.8-4.8-1.8-7.4c0-13,15-24,35.7-27.9
				c5.1-0.9,10.5-1.4,16-1.4C93.9,50.6,117.1,63.7,117.1,79.8z"/>
		</g>
		<g>
			<g>
				
					<linearGradient id="SVGID_27_" gradientUnits="userSpaceOnUse" x1="216.2702" y1="99.552" x2="325.1648" y2="99.552" gradientTransform="matrix(1 0 0 1 -205.3628 0)">
					<stop  offset="0.1301" style="stop-color:#15181B"/>
					<stop  offset="0.1368" style="stop-color:#242D3A"/>
					<stop  offset="0.4693" style="stop-color:#242D3A"/>
					<stop  offset="0.4756" style="stop-color:#2E3D49"/>
					<stop  offset="0.8756" style="stop-color:#2E3D49"/>
					<stop  offset="0.8788" style="stop-color:#242D3A"/>
				</linearGradient>
				<path fill="url(#SVGID_27_)" d="M119.8,73.9v20.5c0,1.1-0.1,2.3-0.4,3.4c-2.9,15.4-26.1,27.4-54,27.4c-5.9,0-11.6-0.5-16.9-1.5
					C28.6,120,13.8,110.2,11.4,98c-0.2-1.1-0.4-2.3-0.4-3.5l-0.1-10.8v-9.7h13.4L48.4,74l57.9-0.1H119.8z"/>
			</g>
			<path fill="#45576C" d="M119.8,73.9c0,2.7-0.6,5.4-1.9,7.9c-3.3,7.4-11.6,13.8-22.6,17.9c-8.6,3.2-18.8,5.1-29.9,5.1
				c-5.9,0-11.6-0.5-16.9-1.5c-4.6-0.8-9-2.1-12.9-3.6c-11.1-4.1-19.3-10.4-22.7-17.8c-1.2-2.5-1.9-5.1-1.9-7.8
				c0-13.7,15.7-25.2,37.5-29.3c5.3-1,11-1.5,16.9-1.5C95.4,43.2,119.8,57,119.8,73.9z"/>
		</g>
		<g>
			<g>
				
					<linearGradient id="SVGID_28_" gradientUnits="userSpaceOnUse" x1="218.9537" y1="72.0144" x2="322.4811" y2="72.0144" gradientTransform="matrix(1 0 0 1 -205.3628 0)">
					<stop  offset="0.1348" style="stop-color:#EE9C21"/>
					<stop  offset="0.1415" style="stop-color:#FDB813"/>
					<stop  offset="0.474" style="stop-color:#FDB813"/>
					<stop  offset="0.4803" style="stop-color:#FAD022"/>
					<stop  offset="0.8756" style="stop-color:#FAD022"/>
					<stop  offset="0.8835" style="stop-color:#FDB813"/>
				</linearGradient>
				<path fill="url(#SVGID_28_)" d="M117.1,45.5v23.8c0,1.1-0.1,2.2-0.4,3.3c-2.7,14.7-24.8,26-51.4,26c-5.6,0-11.1-0.5-16.1-1.4
					C30.4,93.6,16.3,84.2,14,72.7c-0.2-1.1-0.4-2.2-0.4-3.3l-0.1-14.6v-9.2h12.7l23-0.1l55.1-0.1H117.1z"/>
			</g>
			<path fill="#37487C" d="M117.1,45.5c0,2.6-0.6,5.1-1.8,7.5c-3.2,7.1-11,13.1-21.5,17c-8.2,3-17.9,4.8-28.4,4.8
				c-5.6,0-11.1-0.5-16.1-1.4c-4.4-0.8-8.5-2-12.3-3.4c-10.5-3.9-18.4-9.9-21.6-16.9c-1.2-2.4-1.8-4.8-1.8-7.4c0-13,15-24,35.7-27.9
				c5.1-0.9,10.5-1.4,16-1.4C93.9,16.3,117.1,29.4,117.1,45.5z"/>
		</g>
		<g>
			<g>
				
					<linearGradient id="SVGID_29_" gradientUnits="userSpaceOnUse" x1="216.2702" y1="65.2396" x2="325.1648" y2="65.2396" gradientTransform="matrix(1 0 0 1 -205.3628 0)">
					<stop  offset="0.1301" style="stop-color:#15181B"/>
					<stop  offset="0.1368" style="stop-color:#242D3A"/>
					<stop  offset="0.4693" style="stop-color:#242D3A"/>
					<stop  offset="0.4756" style="stop-color:#2E3D49"/>
					<stop  offset="0.8756" style="stop-color:#2E3D49"/>
					<stop  offset="0.8788" style="stop-color:#242D3A"/>
				</linearGradient>
				<path fill="url(#SVGID_29_)" d="M119.8,39.6v20.5c0,1.1-0.1,2.3-0.4,3.4c-2.9,15.4-26.1,27.4-54,27.4c-5.9,0-11.6-0.5-16.9-1.5
					c-19.8-3.6-34.7-13.5-37.1-25.7c-0.2-1.1-0.4-2.3-0.4-3.5l-0.1-10.8v-9.6h13.4l24.2-0.1l57.9-0.1H119.8z"/>
			</g>
			<path fill="#45576C" d="M119.8,39.6c0,2.7-0.6,5.4-1.9,7.9c-3.3,7.4-11.6,13.8-22.6,17.9c-8.6,3.2-18.8,5.1-29.9,5.1
				c-5.9,0-11.6-0.5-16.9-1.5c-4.6-0.8-9-2.1-12.9-3.6c-11.1-4.1-19.3-10.4-22.7-17.8c-1.2-2.5-1.9-5.1-1.9-7.8
				c0-13.7,15.7-25.2,37.5-29.3c5.3-1,11-1.5,16.9-1.5C95.4,8.9,119.8,22.6,119.8,39.6z"/>
			<path fill="#2E3D49" d="M65.4,57.8c9.6,0,19-1.6,27.1-4.6c9.2-3.4,15.8-8.4,18.2-13.7l0.2-0.4c0.7-1.3,1-2.7,1-4.3
				c0-10.8-19.1-22.8-46.6-22.8c-5.3,0-10.5,0.5-15.4,1.4c-18,3.4-31.1,12.4-31.1,21.5c0,1.4,0.4,2.8,1.1,4.4
				c2.5,5.4,9.2,10.4,18.3,13.8c3.7,1.4,7.5,2.5,11.6,3.2C54.8,57.3,60.1,57.8,65.4,57.8z"/>
			<path fill="#45576C" d="M65.4,55.8c9.4,0,18.5-1.5,26.4-4.5c8.7-3.2,14.9-7.8,17.1-12.6l0.2-0.4c0.6-1.1,0.8-2.2,0.8-3.4
				c0-8.7-17-20.8-44.6-20.8c-5.2,0-10.2,0.5-15.1,1.4C33.5,18.6,20.8,27,20.8,35c0,1.1,0.3,2.2,0.9,3.5c2.3,4.9,8.6,9.6,17.2,12.8
				c3.5,1.4,7.3,2.4,11.2,3.1C55.1,55.4,60.2,55.8,65.4,55.8z"/>
			<path fill="#383938" d="M117.9,42.9c-3.3,7.4-11.6,13.8-22.6,17.9c-8.6,3.2-18.8,5.1-29.9,5.1c-5.9,0-11.6-0.5-16.9-1.5
				c-4.6-0.8-9-2.1-12.9-3.6c-11.1-4.1-19.3-10.4-22.7-17.8c-0.8-1.7-1.3-3.5-1.6-5.3c-0.1,0.7-0.3,1.4-0.3,2.1
				c0,2.7,0.7,5.3,1.9,7.8c3.4,7.4,11.6,13.7,22.7,17.8c4,1.5,8.3,2.7,12.9,3.6c5.3,1,11,1.5,16.9,1.5c11,0,21.3-1.9,29.9-5.1
				c11.1-4.1,19.3-10.4,22.6-17.9c1.3-2.5,1.9-5.2,1.9-7.9c0-0.9-0.1-1.7-0.2-2.6C119.3,39,118.9,41,117.9,42.9z"/>
		</g>
		<g>
			
				<linearGradient id="XMLID_26_" gradientUnits="userSpaceOnUse" x1="667.2924" y1="72.6857" x2="671.3983" y2="79.8541" gradientTransform="matrix(-1 0 0 1 762.0657 0)">
				<stop  offset="0.1212" style="stop-color:#171C24"/>
				<stop  offset="0.1244" style="stop-color:#212B34"/>
				<stop  offset="0.5244" style="stop-color:#212B34"/>
				<stop  offset="0.5307" style="stop-color:#171C24"/>
				<stop  offset="0.8632" style="stop-color:#171C24"/>
				<stop  offset="0.8699" style="stop-color:#15181B"/>
			</linearGradient>
			<path id="XMLID_16_" fill="url(#XMLID_26_)" d="M90.3,79.6l1.5,1l0.2-0.3c1.1-0.1,2.4-1.1,3.3-2.7c0.6-1,0.9-2.1,0.9-3
				c0-0.6-0.1-1-0.3-1.4l0-0.2c0,0-1.4-0.9-1.5-1l0,0v0c-1.2-0.5-2.9,0.6-4,2.6c-0.5,0.9-0.8,1.8-0.9,2.6
				C89.3,78.3,89.6,79.2,90.3,79.6z"/>
			
				<ellipse id="XMLID_15_" transform="matrix(-0.4994 0.8664 -0.8664 -0.4994 207.0705 33.9624)" fill="#15181B" cx="93.7" cy="76.8" rx="4.3" ry="2.4"/>
			
				<radialGradient id="SVGID_30_" cx="580.2322" cy="75.0103" r="3.2478" fx="579.0607" fy="75.0369" gradientTransform="matrix(-1 0 0 1 674.2966 0)" gradientUnits="userSpaceOnUse">
				<stop  offset="0" style="stop-color:#B7D433"/>
				<stop  offset="1" style="stop-color:#7FB642"/>
			</radialGradient>
			<path fill="url(#SVGID_30_)" d="M92.3,80.1c0.8,0,2-0.7,3-2.4c1.1-1.9,1-3.7,0.3-4.1c-0.1-0.1-0.3-0.1-0.5-0.1
				c-0.8,0-2,0.7-3,2.4c-1.1,1.9-1,3.7-0.3,4.1C92,80.1,92.2,80.1,92.3,80.1z"/>
		</g>
		<g>
			
				<linearGradient id="XMLID_27_" gradientUnits="userSpaceOnUse" x1="667.2925" y1="106.998" x2="671.3984" y2="114.1665" gradientTransform="matrix(-1 0 0 1 762.0657 0)">
				<stop  offset="0.1212" style="stop-color:#171C24"/>
				<stop  offset="0.1244" style="stop-color:#212B34"/>
				<stop  offset="0.5244" style="stop-color:#212B34"/>
				<stop  offset="0.5307" style="stop-color:#171C24"/>
				<stop  offset="0.8632" style="stop-color:#171C24"/>
				<stop  offset="0.8699" style="stop-color:#15181B"/>
			</linearGradient>
			<path id="XMLID_14_" fill="url(#XMLID_27_)" d="M90.3,113.9l1.5,1l0.2-0.3c1.1-0.1,2.4-1.1,3.3-2.7c0.6-1,0.9-2.1,0.9-3
				c0-0.6-0.1-1-0.3-1.4l0-0.2c0,0-1.4-0.9-1.5-1l0,0v0c-1.2-0.5-2.9,0.6-4,2.6c-0.5,0.9-0.8,1.8-0.9,2.6
				C89.3,112.7,89.6,113.5,90.3,113.9z"/>
			
				<ellipse id="XMLID_13_" transform="matrix(-0.4994 0.8664 -0.8664 -0.4994 236.7984 85.4117)" fill="#15181B" cx="93.7" cy="111.1" rx="4.3" ry="2.4"/>
			
				<radialGradient id="SVGID_31_" cx="579.5198" cy="109.756" r="2.8833" gradientTransform="matrix(-1 0 0 1 674.2966 0)" gradientUnits="userSpaceOnUse">
				<stop  offset="0" style="stop-color:#B7D433"/>
				<stop  offset="1" style="stop-color:#7FB642"/>
			</radialGradient>
			<path fill="url(#SVGID_31_)" d="M92.3,114.4c0.8,0,2-0.7,3-2.4c1.1-1.9,1-3.7,0.3-4.1c-0.1-0.1-0.3-0.1-0.5-0.1
				c-0.8,0-2,0.7-3,2.4c-1.1,1.9-1,3.7-0.3,4.1C92,114.4,92.2,114.4,92.3,114.4z"/>
		</g>
		<g>
			
				<linearGradient id="XMLID_28_" gradientUnits="userSpaceOnUse" x1="667.7529" y1="141.841" x2="671.8589" y2="149.0095" gradientTransform="matrix(-1 0 0 1 762.0657 0)">
				<stop  offset="0.1212" style="stop-color:#171C24"/>
				<stop  offset="0.1244" style="stop-color:#212B34"/>
				<stop  offset="0.5244" style="stop-color:#212B34"/>
				<stop  offset="0.5307" style="stop-color:#171C24"/>
				<stop  offset="0.8632" style="stop-color:#171C24"/>
				<stop  offset="0.8699" style="stop-color:#15181B"/>
			</linearGradient>
			<path id="XMLID_12_" fill="url(#XMLID_28_)" d="M89.8,148.8l1.5,1l0.2-0.3c1.1-0.1,2.4-1.1,3.3-2.7c0.6-1,0.9-2.1,0.9-3
				c0-0.6-0.1-1-0.3-1.4l0-0.2c0,0-1.4-0.9-1.5-1l0,0v0c-1.2-0.5-2.9,0.6-4,2.6c-0.5,0.9-0.8,1.8-0.9,2.6
				C88.9,147.5,89.1,148.4,89.8,148.8z"/>
			
				<ellipse id="XMLID_11_" transform="matrix(-0.4994 0.8664 -0.8664 -0.4994 266.2954 138.0538)" fill="#15181B" cx="93.3" cy="146" rx="4.3" ry="2.4"/>
			
				<radialGradient id="SVGID_32_" cx="579.98" cy="144.4132" r="2.8833" gradientTransform="matrix(-1 0 0 1 674.2966 0)" gradientUnits="userSpaceOnUse">
				<stop  offset="0" style="stop-color:#B7D433"/>
				<stop  offset="1" style="stop-color:#7FB642"/>
			</radialGradient>
			<path fill="url(#SVGID_32_)" d="M91.9,149.3c0.8,0,2-0.7,3-2.4c1.1-1.9,1-3.7,0.3-4.1c-0.1-0.1-0.3-0.1-0.5-0.1
				c-0.8,0-2,0.7-3,2.4c-1.1,1.9-1,3.7-0.3,4.1C91.6,149.2,91.7,149.3,91.9,149.3z"/>
		</g>
		<g>
			
				<linearGradient id="XMLID_29_" gradientUnits="userSpaceOnUse" x1="667.2924" y1="177.0091" x2="671.3983" y2="184.1776" gradientTransform="matrix(-1 0 0 1 762.0657 0)">
				<stop  offset="0.1212" style="stop-color:#171C24"/>
				<stop  offset="0.1244" style="stop-color:#212B34"/>
				<stop  offset="0.5244" style="stop-color:#212B34"/>
				<stop  offset="0.5307" style="stop-color:#171C24"/>
				<stop  offset="0.8632" style="stop-color:#171C24"/>
				<stop  offset="0.8699" style="stop-color:#15181B"/>
			</linearGradient>
			<path id="XMLID_10_" fill="url(#XMLID_29_)" d="M90.3,183.9l1.5,1l0.2-0.3c1.1-0.1,2.4-1.1,3.3-2.7c0.6-1,0.9-2.1,0.9-3
				c0-0.6-0.1-1-0.3-1.4l0-0.2c0,0-1.4-0.9-1.5-1l0,0v0c-1.2-0.5-2.9,0.6-4,2.6c-0.5,0.9-0.8,1.8-0.9,2.6
				C89.3,182.7,89.6,183.6,90.3,183.9z"/>
			
				<ellipse id="XMLID_9_" transform="matrix(-0.4994 0.8664 -0.8664 -0.4994 297.4544 190.3862)" fill="#15181B" cx="93.7" cy="181.1" rx="4.3" ry="2.4"/>
			
				<radialGradient id="SVGID_33_" cx="579.272" cy="179.2718" r="2.8833" gradientTransform="matrix(-1 0 0 1 674.2966 0)" gradientUnits="userSpaceOnUse">
				<stop  offset="0" style="stop-color:#B7D433"/>
				<stop  offset="1" style="stop-color:#7FB642"/>
			</radialGradient>
			<path fill="url(#SVGID_33_)" d="M92.3,184.4c0.8,0,2-0.7,3-2.4c1.1-1.9,1-3.7,0.3-4.1c-0.1-0.1-0.3-0.1-0.5-0.1
				c-0.8,0-2,0.7-3,2.4c-1.1,1.9-1,3.7-0.3,4.1C92,184.4,92.2,184.4,92.3,184.4z"/>
		</g>
	</g>
</g>
</svg>
